JonovaCondensed-BoldItalic.ufo
<glyph name="exclam" format="2">
  <advance width="552"/>
  <unicode hex="0021"/>
  <outline>
    <contour>
      <point x="347" y="375" type="line"/>
      <point x="412" y="1434" type="line"/>
      <point x="439" y="1464" type="line"/>
      <point x="658" y="1464" type="line"/>
      <point x="676" y="1434" type="line"/>
      <point x="461" y="375" type="line"/>
    </contour>
    <contour>
      <point x="479" y="116" type="qcurve"/>
      <point x="479" y="86"/>
      <point x="462" y="32"/>
      <point x="433" y="-7"/>
      <point x="392" y="-30"/>
      <point x="370" y="-30" type="qcurve"/>
      <point x="347" y="-30"/>
      <point x="307" y="-7"/>
      <point x="278" y="32"/>
      <point x="260" y="86"/>
      <point x="260" y="116" type="qcurve"/>
      <point x="260" y="146"/>
      <point x="278" y="200"/>
      <point x="307" y="239"/>
      <point x="347" y="262"/>
      <point x="370" y="262" type="qcurve"/>
      <point x="392" y="262"/>
      <point x="433" y="239"/>
      <point x="462" y="200"/>
      <point x="479" y="146"/>
    </contour>
  </outline>
</glyph>
<glyph name="dollar" format="2">
  <advance width="840"/>
  <unicode hex="0024"/>
  <outline>
    <contour>
      <point x="548" y="1464" type="qcurve"/>
      <point x="563" y="1576" type="line"/>
      <point x="673" y="1600" type="line"/>
      <point x="655" y="1464" type="line"/>
      <point x="701" y="1459"/>
      <point x="769" y="1432"/>
      <point x="822" y="1392"/>
      <point x="866" y="1341"/>
      <point x="889" y="1312" type="qcurve"/>
      <point x="805" y="1200" type="line"/>
      <point x="782" y="1247"/>
      <point x="703" y="1329"/>
      <point x="639" y="1346" type="qcurve"/>
      <point x="575" y="861" type="line"/>
      <point x="625" y="822"/>
      <point x="715" y="738"/>
      <point x="783" y="639"/>
      <point x="823" y="521"/>
      <point x="823" y="449" type="qcurve"/>
      <point x="823" y="382"/>
      <point x="794" y="264"/>
      <point x="742" y="163"/>
      <point x="671" y="81"/>
      <point x="590" y="19"/>
      <point x="501" y="-22"/>
      <point x="457" y="-30" type="qcurve"/>
      <point x="442" y="-142" type="line"/>
      <point x="332" y="-165" type="line"/>
      <point x="350" y="-30" type="line"/>
      <point x="280" y="-24"/>
      <point x="152" y="43"/>
      <point x="87" y="121" type="qcurve"/>
      <point x="172" y="233" type="line"/>
      <point x="211" y="161"/>
      <point x="311" y="91"/>
      <point x="365" y="83" type="qcurve"/>
      <point x="442" y="662" type="line"/>
      <point x="391" y="698"/>
      <point x="306" y="775"/>
      <point x="245" y="864"/>
      <point x="212" y="969"/>
      <point x="212" y="1033" type="qcurve"/>
      <point x="212" y="1125"/>
      <point x="272" y="1275"/>
      <point x="367" y="1386"/>
      <point x="487" y="1454"/>
    </contour>
    <contour>
      <point x="634" y="371" type="qcurve"/>
      <point x="634" y="436"/>
      <point x="588" y="543"/>
      <point x="539" y="588" type="qcurve"/>
      <point x="472" y="82" type="line"/>
      <point x="510" y="98"/>
      <point x="570" y="155"/>
      <point x="611" y="231"/>
      <point x="634" y="321"/>
    </contour>
    <contour>
      <point x="401" y="1104" type="qcurve"/>
      <point x="401" y="1055"/>
      <point x="435" y="968"/>
      <point x="479" y="937" type="qcurve"/>
      <point x="533" y="1346" type="line"/>
      <point x="502" y="1332"/>
      <point x="453" y="1283"/>
      <point x="419" y="1220"/>
      <point x="401" y="1144"/>
    </contour>
  </outline>
</glyph>
<glyph name="parenleft" format="2">
  <advance width="552"/>
  <unicode hex="0028"/>
  <guideline x="0" y="1307" angle="0"/>
  <guideline x="502" y="0" angle="90"/>
  <guideline x="479" y="0" angle="80"/>
  <guideline x="673" y="0" angle="100"/>
  <outline>
    <contour>
      <point x="672" y="1464" type="line" name="hr00"/>
      <point x="574" y="1359"/>
      <point x="435" y="1078"/>
      <point x="347" y="763"/>
      <point x="305" y="434"/>
      <point x="305" y="280" type="qcurve" name="dh02"/>
      <point x="305" y="196"/>
      <point x="320" y="39"/>
      <point x="352" y="-103"/>
      <point x="404" y="-227"/>
      <point x="441" y="-278" type="qcurve"/>
      <point x="427" y="-384" type="line" name="av01"/>
      <point x="362" y="-321"/>
      <point x="258" y="-168"/>
      <point x="185" y="12"/>
      <point x="146" y="220"/>
      <point x="146" y="339" type="qcurve" name="dh01"/>
      <point x="146" y="534"/>
      <point x="224" y="901"/>
      <point x="366" y="1222"/>
      <point x="565" y="1482"/>
      <point x="686" y="1570" type="qcurve" name="av02"/>
    </contour>
  </outline>
</glyph>
<glyph name="parenright" format="2">
  <advance width="552"/>
  <unicode hex="0029"/>
  <outline>
    <contour>
      <point x="282" y="1570" type="line"/>
      <point x="348" y="1505"/>
      <point x="452" y="1349"/>
      <point x="523" y="1164"/>
      <point x="560" y="950"/>
      <point x="560" y="828" type="qcurve"/>
      <point x="560" y="633"/>
      <point x="482" y="271"/>
      <point x="341" y="-42"/>
      <point x="143" y="-297"/>
      <point x="23" y="-384" type="qcurve"/>
      <point x="37" y="-278" type="line"/>
      <point x="102" y="-209"/>
      <point x="207" y="-40"/>
      <point x="288" y="151"/>
      <point x="347" y="358"/>
      <point x="383" y="571"/>
      <point x="401" y="785"/>
      <point x="401" y="887" type="qcurve"/>
      <point x="401" y="970"/>
      <point x="388" y="1133"/>
      <point x="356" y="1282"/>
      <point x="305" y="1413"/>
      <point x="268" y="1464" type="qcurve"/>
    </contour>
  </outline>
</glyph>
<glyph name="comma" format="2">
  <advance width="432"/>
  <unicode hex="002C"/>
  <guideline x="0" y="-266" angle="0"/>
  <guideline x="-594" y="0" angle="125"/>
  <outline>
    <contour>
      <point x="138" y="154" type="line" name="hr00"/>
      <point x="289" y="325" type="line" name="av01"/>
      <point x="309" y="325" type="line"/>
      <point x="322" y="297"/>
      <point x="346" y="196"/>
      <point x="346" y="121" type="qcurve" name="dh02"/>
      <point x="346" y="25"/>
      <point x="298" y="-145"/>
      <point x="217" y="-290"/>
      <point x="113" y="-412"/>
      <point x="56" y="-460" type="qcurve" name="ab01"/>
      <point x="0" y="-367" type="line"/>
      <point x="34" y="-331"/>
      <point x="96" y="-254"/>
      <point x="143" y="-169"/>
      <point x="172" y="-74"/>
      <point x="172" y="-19" type="qcurve" name="dh01"/>
      <point x="172" y="29"/>
      <point x="149" y="99"/>
      <point x="134" y="128" type="qcurve"/>
    </contour>
  </outline>
</glyph>
<glyph name="slash" format="2">
  <advance width="432"/>
  <unicode hex="002F"/>
  <outline>
    <contour>
      <point x="703" y="1556" type="line"/>
      <point x="107" y="-152" type="line"/>
      <point x="-42" y="-122" type="line"/>
      <point x="553" y="1586" type="line"/>
    </contour>
  </outline>
</glyph>
<glyph name="eight" format="2">
  <advance width="840"/>
  <unicode hex="0038"/>
  <outline>
    <contour>
      <point x="448" y="1038" type="qcurve"/>
      <point x="448" y="963"/>
      <point x="490" y="872"/>
      <point x="535" y="872" type="qcurve"/>
      <point x="562" y="872"/>
      <point x="605" y="904"/>
      <point x="639" y="958"/>
      <point x="663" y="1026"/>
      <point x="679" y="1097"/>
      <point x="686" y="1166"/>
      <point x="686" y="1193" type="qcurve"/>
      <point x="686" y="1265"/>
      <point x="643" y="1342"/>
      <point x="597" y="1342" type="qcurve"/>
      <point x="555" y="1342"/>
      <point x="498" y="1279"/>
      <point x="463" y="1187"/>
      <point x="448" y="1081"/>
    </contour>
    <contour>
      <point x="316" y="300" type="qcurve"/>
      <point x="316" y="257"/>
      <point x="329" y="181"/>
      <point x="357" y="125"/>
      <point x="401" y="92"/>
      <point x="432" y="92" type="qcurve"/>
      <point x="467" y="92"/>
      <point x="524" y="134"/>
      <point x="569" y="205"/>
      <point x="602" y="298"/>
      <point x="625" y="399"/>
      <point x="636" y="501"/>
      <point x="636" y="546" type="qcurve"/>
      <point x="636" y="588"/>
      <point x="623" y="663"/>
      <point x="594" y="718"/>
      <point x="550" y="750"/>
      <point x="519" y="750" type="qcurve"/>
      <point x="485" y="750"/>
      <point x="428" y="708"/>
      <point x="382" y="638"/>
      <point x="349" y="546"/>
      <point x="326" y="446"/>
      <point x="316" y="345"/>
    </contour>
    <contour>
      <point x="336" y="828" type="qcurve"/>
      <point x="295" y="876"/>
      <point x="259" y="992"/>
      <point x="259" y="1056" type="qcurve"/>
      <point x="259" y="1148"/>
      <point x="323" y="1299"/>
      <point x="425" y="1406"/>
      <point x="551" y="1464"/>
      <point x="614" y="1464" type="qcurve"/>
      <point x="675" y="1464"/>
      <point x="772" y="1416"/>
      <point x="839" y="1335"/>
      <point x="875" y="1230"/>
      <point x="875" y="1172" type="qcurve"/>
      <point x="875" y="1118"/>
      <point x="850" y="1018"/>
      <point x="807" y="930"/>
      <point x="750" y="856"/>
      <point x="719" y="828" type="qcurve"/>
      <point x="755" y="798"/>
      <point x="805" y="731"/>
      <point x="835" y="657"/>
      <point x="848" y="576"/>
      <point x="848" y="533" type="qcurve"/>
      <point x="848" y="411"/>
      <point x="779" y="205"/>
      <point x="661" y="55"/>
      <point x="504" y="-30"/>
      <point x="416" y="-30" type="qcurve"/>
      <point x="336" y="-30"/>
      <point x="219" y="32"/>
      <point x="142" y="135"/>
      <point x="104" y="269"/>
      <point x="104" y="342" type="qcurve"/>
      <point x="104" y="423"/>
      <point x="139" y="568"/>
      <point x="200" y="692"/>
      <point x="285" y="792"/>
    </contour>
  </outline>
</glyph>
<glyph name="colon" format="2">
  <advance width="432"/>
  <unicode hex="003A"/>
  <outline>
    <contour>
      <point x="388" y="116" type="qcurve"/>
      <point x="388" y="86"/>
      <point x="371" y="32"/>
      <point x="341" y="-7"/>
      <point x="301" y="-30"/>
      <point x="278" y="-30" type="qcurve"/>
      <point x="256" y="-30"/>
      <point x="215" y="-7"/>
      <point x="186" y="32"/>
      <point x="169" y="86"/>
      <point x="169" y="116" type="qcurve"/>
      <point x="169" y="146"/>
      <point x="186" y="200"/>
      <point x="215" y="239"/>
      <point x="256" y="262"/>
      <point x="278" y="262" type="qcurve"/>
      <point x="301" y="262"/>
      <point x="341" y="239"/>
      <point x="371" y="200"/>
      <point x="388" y="146"/>
    </contour>
    <contour>
      <point x="486" y="858" type="qcurve"/>
      <point x="486" y="828"/>
      <point x="469" y="774"/>
      <point x="440" y="735"/>
      <point x="399" y="712"/>
      <point x="377" y="712" type="qcurve"/>
      <point x="354" y="712"/>
      <point x="314" y="735"/>
      <point x="284" y="774"/>
      <point x="267" y="828"/>
      <point x="267" y="858" type="qcurve"/>
      <point x="267" y="888"/>
      <point x="284" y="942"/>
      <point x="314" y="981"/>
      <point x="354" y="1004"/>
      <point x="377" y="1004" type="qcurve"/>
      <point x="399" y="1004"/>
      <point x="440" y="981"/>
      <point x="469" y="942"/>
      <point x="486" y="888"/>
    </contour>
  </outline>
</glyph>
<glyph name="at" format="2">
  <advance width="1536"/>
  <unicode hex="0040"/>
  <outline>
    <contour>
      <point x="652" y="272" type="qcurve"/>
      <point x="652" y="203"/>
      <point x="692" y="122"/>
      <point x="731" y="122" type="qcurve"/>
      <point x="763" y="122"/>
      <point x="824" y="171"/>
      <point x="876" y="251"/>
      <point x="920" y="355"/>
      <point x="951" y="465"/>
      <point x="968" y="572"/>
      <point x="968" y="616" type="qcurve"/>
      <point x="968" y="647"/>
      <point x="959" y="700"/>
      <point x="939" y="738"/>
      <point x="906" y="760"/>
      <point x="883" y="760" type="qcurve"/>
      <point x="857" y="760"/>
      <point x="803" y="716"/>
      <point x="751" y="641"/>
      <point x="706" y="542"/>
      <point x="671" y="434"/>
      <point x="652" y="322"/>
    </contour>
    <contour>
      <point x="884" y="882" type="qcurve"/>
      <point x="913" y="882"/>
      <point x="965" y="861"/>
      <point x="1005" y="820"/>
      <point x="1033" y="759"/>
      <point x="1038" y="719" type="qcurve"/>
      <point x="1074" y="852" type="line"/>
      <point x="1199" y="882" type="line"/>
      <point x="1222" y="882" type="line"/>
      <point x="1067" y="291" type="line"/>
      <point x="1060" y="263"/>
      <point x="1046" y="206"/>
      <point x="1046" y="183" type="qcurve"/>
      <point x="1046" y="159"/>
      <point x="1069" y="122"/>
      <point x="1098" y="122" type="qcurve"/>
      <point x="1134" y="122"/>
      <point x="1204" y="166"/>
      <point x="1267" y="243"/>
      <point x="1320" y="346"/>
      <point x="1358" y="464"/>
      <point x="1380" y="590"/>
      <point x="1380" y="652" type="qcurve"/>
      <point x="1380" y="759"/>
      <point x="1325" y="953"/>
      <point x="1215" y="1101"/>
      <point x="1049" y="1188"/>
      <point x="938" y="1188" type="qcurve"/>
      <point x="858" y="1188"/>
      <point x="701" y="1123"/>
      <point x="560" y="1007"/>
      <point x="438" y="846"/>
      <point x="350" y="653"/>
      <point x="299" y="436"/>
      <point x="299" y="321" type="qcurve"/>
      <point x="299" y="191"/>
      <point x="368" y="-33"/>
      <point x="488" y="-197"/>
      <point x="650" y="-290"/>
      <point x="742" y="-290" type="qcurve"/>
      <point x="845" y="-290"/>
      <point x="1043" y="-185"/>
      <point x="1132" y="-88" type="qcurve"/>
      <point x="1220" y="-207" type="line"/>
      <point x="1162" y="-268"/>
      <point x="1029" y="-357"/>
      <point x="896" y="-414"/>
      <point x="773" y="-442"/>
      <point x="722" y="-442" type="qcurve"/>
      <point x="639" y="-442"/>
      <point x="491" y="-391"/>
      <point x="366" y="-298"/>
      <point x="267" y="-165"/>
      <point x="198" y="-2"/>
      <point x="161" y="189"/>
      <point x="161" y="293" type="qcurve"/>
      <point x="161" y="433"/>
      <point x="223" y="697"/>
      <point x="332" y="930"/>
      <point x="481" y="1123"/>
      <point x="658" y="1263"/>
      <point x="856" y="1340"/>
      <point x="958" y="1340" type="qcurve"/>
      <point x="1096" y="1340"/>
      <point x="1302" y="1232"/>
      <point x="1438" y="1051"/>
      <point x="1505" y="815"/>
      <point x="1505" y="686" type="qcurve"/>
      <point x="1505" y="598"/>
      <point x="1474" y="427"/>
      <point x="1416" y="275"/>
      <point x="1333" y="146"/>
      <point x="1229" y="53"/>
      <point x="1107" y="0"/>
      <point x="1039" y="0" type="qcurve"/>
      <point x="1004" y="0"/>
      <point x="954" y="24"/>
      <point x="919" y="60"/>
      <point x="899" y="103"/>
      <point x="894" y="122" type="qcurve"/>
      <point x="858" y="71"/>
      <point x="760" y="0"/>
      <point x="703" y="0" type="qcurve"/>
      <point x="651" y="0"/>
      <point x="575" y="40"/>
      <point x="526" y="113"/>
      <point x="502" y="214"/>
      <point x="502" y="275" type="qcurve"/>
      <point x="502" y="341"/>
      <point x="530" y="482"/>
      <point x="579" y="617"/>
      <point x="649" y="738"/>
      <point x="734" y="829"/>
      <point x="831" y="882"/>
    </contour>
  </outline>
</glyph>
<glyph name="A" format="2">
  <advance width="1008"/>
  <unicode hex="0041"/>
  <anchor x="400" y="0" name="AccentBelow"/>
  <anchor x="550" y="1600" name="AccentDefault"/>
  <anchor x="400" y="712" name="AccentMiddle"/>
  <anchor x="600" y="0" name="AccentOgonek"/>
  <outline>
    <contour>
      <point x="635" y="1434" type="line"/>
      <point x="747" y="1464" type="line"/>
      <point x="996" y="0" type="line"/>
      <point x="748" y="-30" type="line"/>
      <point x="684" y="345" type="line"/>
      <point x="292" y="345" type="line"/>
      <point x="128" y="-30" type="line"/>
      <point x="11" y="0" type="line"/>
    </contour>
    <contour>
      <point x="659" y="487" type="line"/>
      <point x="573" y="992" type="line"/>
      <point x="353" y="487" type="line"/>
    </contour>
  </outline>
</glyph>
<glyph name="C" format="2">
  <advance width="1008"/>
  <unicode hex="0043"/>
  <outline>
    <contour>
      <point x="1156" y="1235" type="qcurve"/>
      <point x="1065" y="1113" type="line"/>
      <point x="1022" y="1213"/>
      <point x="876" y="1322"/>
      <point x="772" y="1322" type="qcurve"/>
      <point x="718" y="1322"/>
      <point x="615" y="1263"/>
      <point x="524" y="1158"/>
      <point x="448" y="1012"/>
      <point x="393" y="838"/>
      <point x="362" y="641"/>
      <point x="362" y="537" type="qcurve"/>
      <point x="362" y="434"/>
      <point x="399" y="276"/>
      <point x="466" y="168"/>
      <point x="557" y="112"/>
      <point x="611" y="112" type="qcurve"/>
      <point x="657" y="112"/>
      <point x="740" y="133"/>
      <point x="818" y="183"/>
      <point x="891" y="262"/>
      <point x="927" y="321" type="qcurve"/>
      <point x="1019" y="199" type="line"/>
      <point x="976" y="147"/>
      <point x="885" y="62"/>
      <point x="782" y="2"/>
      <point x="664" y="-30"/>
      <point x="593" y="-30" type="qcurve"/>
      <point x="499" y="-30"/>
      <point x="331" y="54"/>
      <point x="203" y="211"/>
      <point x="128" y="436"/>
      <point x="128" y="577" type="qcurve"/>
      <point x="128" y="695"/>
      <point x="179" y="918"/>
      <point x="268" y="1115"/>
      <point x="391" y="1279"/>
      <point x="538" y="1398"/>
      <point x="704" y="1464"/>
      <point x="791" y="1464" type="qcurve"/>
      <point x="856" y="1464"/>
      <point x="965" y="1430"/>
      <point x="1055" y="1369"/>
      <point x="1127" y="1285"/>
    </contour>
  </outline>
</glyph>
<glyph name="E" format="2">
  <advance width="816"/>
  <unicode hex="0045"/>
  <anchor x="300" y="0" name="AccentBelow"/>
  <anchor x="450" y="1600" name="AccentDefault"/>
  <anchor x="450" y="1000" name="AccentMiddle"/>
  <anchor x="300" y="0" name="AccentOgonek"/>
  <outline>
    <contour>
      <point x="287" y="1434" type="line"/>
      <point x="927" y="1434" type="line"/>
      <point x="906" y="1272" type="line"/>
      <point x="505" y="1312" type="line"/>
      <point x="445" y="859" type="line"/>
      <point x="775" y="859" type="line"/>
      <point x="755" y="717" type="line"/>
      <point x="426" y="717" type="line"/>
      <point x="347" y="122" type="line"/>
      <point x="782" y="162" type="line"/>
      <point x="761" y="0" type="line"/>
      <point x="98" y="0" type="line"/>
    </contour>
  </outline>
</glyph>
<glyph name="H" format="2">
  <advance width="1128"/>
  <unicode hex="0048"/>
  <anchor x="450" y="0" name="AccentBelow"/>
  <anchor x="100" y="0" name="AccentCedilla"/>
  <anchor x="650" y="1600" name="AccentDefault"/>
  <anchor x="500" y="1000" name="AccentMiddle"/>
  <outline>
    <contour>
      <point x="288" y="1434" type="line" name="hr00"/>
      <point x="527" y="1464" type="line" name="at01"/>
      <point x="446" y="859" type="line"/>
      <point x="908" y="859" type="line" name="dv02"/>
      <point x="984" y="1434" type="line"/>
      <point x="1223" y="1464" type="line" name="at02"/>
      <point x="1029" y="0" type="line" name="ab01"/>
      <point x="795" y="0" type="line"/>
      <point x="890" y="717" type="line" name="dv01"/>
      <point x="428" y="717" type="line"/>
      <point x="333" y="0" type="line" name="ab02"/>
      <point x="99" y="0" type="line"/>
    </contour>
  </outline>
</glyph>
<glyph name="J" format="2">
  <advance width="552"/>
  <unicode hex="004A"/>
  <anchor x="150" y="0" name="AccentBelow"/>
  <anchor x="400" y="1600" name="AccentDefault"/>
  <anchor x="250" y="712" name="AccentMiddle"/>
  <outline>
    <contour>
      <point x="405" y="1434" type="line"/>
      <point x="644" y="1464" type="line"/>
      <point x="521" y="539" type="line"/>
      <point x="498" y="362"/>
      <point x="402" y="139"/>
      <point x="266" y="15"/>
      <point x="95" y="-30"/>
      <point x="-4" y="-30" type="qcurve"/>
      <point x="17" y="132" type="line"/>
      <point x="61" y="132"/>
      <point x="142" y="150"/>
      <point x="209" y="213"/>
      <point x="260" y="332"/>
      <point x="273" y="433" type="qcurve"/>
    </contour>
  </outline>
</glyph>
<glyph name="L" format="2">
  <advance width="816"/>
  <unicode hex="004C"/>
  <anchor x="300" y="0" name="AccentBelow"/>
  <anchor x="250" y="1600" name="AccentDefault"/>
  <anchor x="120" y="712" name="AccentMiddle"/>
  <outline>
    <contour>
      <point x="287" y="1434" type="line"/>
      <point x="525" y="1464" type="line"/>
      <point x="347" y="122" type="line"/>
      <point x="781" y="162" type="line"/>
      <point x="760" y="0" type="line"/>
      <point x="98" y="0" type="line"/>
    </contour>
  </outline>
</glyph>
<glyph name="S" format="2">
  <advance width="864"/>
  <unicode hex="0053"/>
  <anchor x="300" y="0" name="AccentBelow"/>
  <anchor x="300" y="0" name="AccentCedilla"/>
  <anchor x="550" y="1600" name="AccentDefault"/>
  <anchor x="350" y="712" name="AccentMiddle"/>
  <outline>
    <contour>
      <point x="938" y="1235" type="qcurve"/>
      <point x="846" y="1113" type="line"/>
      <point x="833" y="1150"/>
      <point x="791" y="1224"/>
      <point x="737" y="1284"/>
      <point x="673" y="1322"/>
      <point x="637" y="1322" type="qcurve"/>
      <point x="599" y="1322"/>
      <point x="539" y="1286"/>
      <point x="497" y="1224"/>
      <point x="476" y="1142"/>
      <point x="476" y="1097" type="qcurve"/>
      <point x="476" y="1060"/>
      <point x="486" y="993"/>
      <point x="518" y="933"/>
      <point x="575" y="880"/>
      <point x="621" y="856" type="qcurve"/>
      <point x="730" y="801"/>
      <point x="843" y="602"/>
      <point x="843" y="474" type="qcurve"/>
      <point x="843" y="395"/>
      <point x="810" y="259"/>
      <point x="751" y="147"/>
      <point x="670" y="60"/>
      <point x="575" y="1"/>
      <point x="468" y="-30"/>
      <point x="413" y="-30" type="qcurve"/>
      <point x="354" y="-30"/>
      <point x="251" y="11"/>
      <point x="167" y="77"/>
      <point x="104" y="159"/>
      <point x="85" y="199" type="qcurve"/>
      <point x="176" y="321" type="line"/>
      <point x="195" y="282"/>
      <point x="247" y="206"/>
      <point x="310" y="148"/>
      <point x="383" y="112"/>
      <point x="425" y="112" type="qcurve"/>
      <point x="468" y="112"/>
      <point x="542" y="152"/>
      <point x="595" y="222"/>
      <point x="624" y="316"/>
      <point x="624" y="370" type="qcurve"/>
      <point x="624" y="410"/>
      <point x="611" y="483"/>
      <point x="574" y="549"/>
      <point x="509" y="607"/>
      <point x="459" y="631" type="qcurve"/>
      <point x="418" y="651"/>
      <point x="347" y="721"/>
      <point x="294" y="814"/>
      <point x="264" y="927"/>
      <point x="264" y="990" type="qcurve"/>
      <point x="264" y="1097"/>
      <point x="326" y="1272"/>
      <point x="430" y="1396"/>
      <point x="566" y="1464"/>
      <point x="641" y="1464" type="qcurve"/>
      <point x="698" y="1464"/>
      <point x="790" y="1425"/>
      <point x="864" y="1361"/>
      <point x="920" y="1278"/>
    </contour>
  </outline>
</glyph>
<glyph name="T" format="2">
  <advance width="864"/>
  <unicode hex="0054"/>
  <guideline x="0" y="1100" angle="0"/>
  <guideline x="842" y="0" angle="80"/>
  <guideline x="22" y="0" angle="80"/>
  <guideline x="432" y="0" angle="90"/>
  <guideline x="43" y="0" angle="90"/>
  <guideline x="59" y="0" angle="90"/>
  <anchor x="350" y="0" name="AccentBelow"/>
  <anchor x="300" y="0" name="AccentCedilla"/>
  <anchor x="500" y="1600" name="AccentDefault"/>
  <anchor x="350" y="712" name="AccentMiddle"/>
  <outline>
    <contour>
      <point x="212" y="1434" type="line" name="at01"/>
      <point x="1031" y="1434" type="line"/>
      <point x="1010" y="1272" type="line"/>
      <point x="722" y="1312" type="line"/>
      <point x="549" y="0" type="line" name="ab01"/>
      <point x="315" y="0" type="line"/>
      <point x="488" y="1313" type="line" name="iv01"/>
      <point x="190" y="1272" type="line" name="iv02"/>
    </contour>
  </outline>
</glyph>
<glyph name="U" format="2">
  <advance width="1128"/>
  <unicode hex="0055"/>
  <anchor x="450" y="0" name="AccentBelow"/>
  <anchor x="650" y="1600" name="AccentDefault"/>
  <anchor x="500" y="712" name="AccentMiddle"/>
  <anchor x="350" y="0" name="AccentOgonek"/>
  <outline>
    <contour>
      <point x="530" y="1464" type="line"/>
      <point x="402" y="500" type="line"/>
      <point x="397" y="462"/>
      <point x="397" y="422" type="qcurve"/>
      <point x="397" y="345"/>
      <point x="437" y="229"/>
      <point x="506" y="151"/>
      <point x="593" y="112"/>
      <point x="641" y="112" type="qcurve"/>
      <point x="707" y="112"/>
      <point x="818" y="171"/>
      <point x="904" y="280"/>
      <point x="962" y="435"/>
      <point x="974" y="530" type="qcurve"/>
      <point x="1098" y="1464" type="line"/>
      <point x="1215" y="1434" type="line"/>
      <point x="1101" y="568" type="line"/>
      <point x="1084" y="437"/>
      <point x="998" y="218"/>
      <point x="869" y="59"/>
      <point x="699" y="-30"/>
      <point x="597" y="-30" type="qcurve"/>
      <point x="500" y="-30"/>
      <point x="341" y="30"/>
      <point x="230" y="150"/>
      <point x="169" y="328"/>
      <point x="169" y="446" type="qcurve"/>
      <point x="169" y="507"/>
      <point x="178" y="578" type="qcurve"/>
      <point x="291" y="1434" type="line"/>
    </contour>
  </outline>
</glyph>
<glyph name="V" format="2">
  <advance width="936"/>
  <unicode hex="0056"/>
  <anchor x="350" y="0" name="AccentBelow"/>
  <anchor x="600" y="1600" name="AccentDefault"/>
  <anchor x="350" y="712" name="AccentMiddle"/>
  <outline>
    <contour>
      <point x="448" y="1464" type="line"/>
      <point x="589" y="456" type="line"/>
      <point x="997" y="1464" type="line"/>
      <point x="1113" y="1434" type="line"/>
      <point x="533" y="0" type="line"/>
      <point x="404" y="0" type="line"/>
      <point x="201" y="1434" type="line"/>
    </contour>
  </outline>
</glyph>
<glyph name="W" format="2">
  <advance width="1416"/>
  <unicode hex="0057"/>
  <anchor x="600" y="0" name="AccentBelow"/>
  <anchor x="850" y="1600" name="AccentDefault"/>
  <anchor x="650" y="712" name="AccentMiddle"/>
  <outline>
    <contour>
      <point x="1127" y="528" type="line"/>
      <point x="1452" y="1464" type="line"/>
      <point x="1566" y="1434" type="line"/>
      <point x="1067" y="0" type="line"/>
      <point x="939" y="0" type="line"/>
      <point x="833" y="943" type="line"/>
      <point x="478" y="0" type="line"/>
      <point x="349" y="0" type="line"/>
      <point x="228" y="1434" type="line"/>
      <point x="476" y="1464" type="line"/>
      <point x="555" y="528" type="line"/>
      <point x="895" y="1434" type="line"/>
      <point x="1026" y="1434" type="line"/>
    </contour>
  </outline>
</glyph>
<glyph name="X" format="2">
  <advance width="936"/>
  <unicode hex="0058"/>
  <outline>
    <contour>
      <point x="467" y="1464" type="line"/>
      <point x="611" y="980" type="line"/>
      <point x="887" y="1464" type="line"/>
      <point x="1009" y="1434" type="line"/>
      <point x="661" y="818" type="line"/>
      <point x="906" y="0" type="line"/>
      <point x="659" y="-30" type="line"/>
      <point x="493" y="521" type="line"/>
      <point x="181" y="-30" type="line"/>
      <point x="58" y="0" type="line"/>
      <point x="445" y="685" type="line"/>
      <point x="219" y="1434" type="line"/>
    </contour>
  </outline>
</glyph>
<glyph name="Y" format="2">
  <advance width="936"/>
  <unicode hex="0059"/>
  <anchor x="350" y="0" name="AccentBelow"/>
  <anchor x="550" y="1600" name="AccentDefault"/>
  <anchor x="400" y="1000" name="AccentMiddle"/>
  <outline>
    <contour>
      <point x="448" y="1464" type="line"/>
      <point x="629" y="785" type="line"/>
      <point x="989" y="1464" type="line"/>
      <point x="1113" y="1434" type="line"/>
      <point x="662" y="582" type="line"/>
      <point x="585" y="0" type="line"/>
      <point x="351" y="0" type="line"/>
      <point x="428" y="584" type="line"/>
      <point x="201" y="1434" type="line"/>
    </contour>
  </outline>
</glyph>
<glyph name="bracketleft" format="2">
  <advance width="552"/>
  <unicode hex="005B"/>
  <outline>
    <contour>
      <point x="369" y="1464" type="line"/>
      <point x="698" y="1464" type="line"/>
      <point x="682" y="1342" type="line"/>
      <point x="542" y="1342" type="line"/>
      <point x="344" y="-156" type="line"/>
      <point x="485" y="-156" type="line"/>
      <point x="468" y="-278" type="line"/>
      <point x="138" y="-278" type="line"/>
    </contour>
  </outline>
</glyph>
<glyph name="bracketright" format="2">
  <advance width="552"/>
  <unicode hex="005D"/>
  <guideline x="47" y="0" angle="80"/>
  <outline>
    <contour>
      <point x="339" y="-278" type="line" name="hr00"/>
      <point x="11" y="-278" type="line" name="dv01"/>
      <point x="26" y="-156" type="line"/>
      <point x="167" y="-156" type="line" name="dv02"/>
      <point x="365" y="1342" type="line" name="sv01"/>
      <point x="224" y="1342" type="line"/>
      <point x="240" y="1464" type="line" name="at01"/>
      <point x="570" y="1464" type="line"/>
    </contour>
  </outline>
</glyph>
<glyph name="underscore" format="2">
  <advance width="768"/>
  <unicode hex="005F"/>
  <outline>
    <contour>
      <point x="-29" y="-222" type="line"/>
      <point x="738" y="-222" type="line"/>
      <point x="728" y="-304" type="line"/>
      <point x="-40" y="-304" type="line"/>
    </contour>
  </outline>
</glyph>
<glyph name="grave" format="2">
  <advance width="576"/>
  <unicode hex="0060"/>
  <guideline x="0" y="1613" angle="0"/>
  <guideline x="0" y="1346" angle="45"/>
  <guideline x="1328" y="0" angle="135"/>
  <guideline x="590" y="0" angle="90"/>
  <guideline x="-490" y="0" angle="45"/>
  <guideline x="1212" y="0" angle="135"/>
  <guideline x="222" y="0" angle="90"/>
  <outline>
    <contour>
      <point x="514" y="1138" type="line" name="av01"/>
      <point x="239" y="1426" type="line"/>
      <point x="239" y="1470" type="line"/>
      <point x="328" y="1588" type="line" name="av02"/>
      <point x="361" y="1588" type="line"/>
      <point x="572" y="1219" type="line"/>
    </contour>
  </outline>
</glyph>
<glyph name="a" format="2">
  <advance width="840"/>
  <unicode hex="0061"/>
  <anchor x="250" y="0" name="AccentBelow"/>
  <anchor x="400" y="1100" name="AccentDefault"/>
  <anchor x="500" y="500" name="AccentMiddle"/>
  <anchor x="450" y="0" name="AccentOgonek"/>
  <outline>
    <contour>
      <point x="613" y="497" type="line"/>
      <point x="563" y="491"/>
      <point x="455" y="455"/>
      <point x="366" y="386"/>
      <point x="309" y="281"/>
      <point x="309" y="207" type="qcurve"/>
      <point x="309" y="170"/>
      <point x="327" y="122"/>
      <point x="356" y="93"/>
      <point x="390" y="82"/>
      <point x="406" y="82" type="qcurve"/>
      <point x="427" y="82"/>
      <point x="474" y="102"/>
      <point x="520" y="135"/>
      <point x="560" y="177"/>
      <point x="574" y="199" type="qcurve"/>
    </contour>
    <contour>
      <point x="188" y="852" type="line"/>
      <point x="226" y="888"/>
      <point x="309" y="944"/>
      <point x="397" y="983"/>
      <point x="486" y="1004"/>
      <point x="529" y="1004" type="qcurve"/>
      <point x="585" y="1004"/>
      <point x="698" y="961"/>
      <point x="788" y="877"/>
      <point x="844" y="755"/>
      <point x="844" y="676" type="qcurve"/>
      <point x="844" y="643"/>
      <point x="839" y="609" type="qcurve"/>
      <point x="779" y="150" type="line"/>
      <point x="778" y="145"/>
      <point x="777" y="136"/>
      <point x="777" y="131" type="qcurve"/>
      <point x="777" y="82"/>
      <point x="824" y="82" type="qcurve"/>
      <point x="809" y="-30" type="line"/>
      <point x="746" y="-30"/>
      <point x="666" y="-13"/>
      <point x="616" y="17"/>
      <point x="590" y="58"/>
      <point x="581" y="82" type="qcurve"/>
      <point x="559" y="60"/>
      <point x="506" y="20"/>
      <point x="444" y="-11"/>
      <point x="372" y="-30"/>
      <point x="330" y="-30" type="qcurve"/>
      <point x="281" y="-30"/>
      <point x="194" y="0"/>
      <point x="128" y="58"/>
      <point x="90" y="142"/>
      <point x="90" y="196" type="qcurve"/>
      <point x="90" y="295"/>
      <point x="173" y="442"/>
      <point x="319" y="541"/>
      <point x="515" y="594"/>
      <point x="626" y="599" type="qcurve"/>
      <point x="635" y="668" type="line"/>
      <point x="640" y="699"/>
      <point x="640" y="728" type="qcurve"/>
      <point x="640" y="765"/>
      <point x="619" y="826"/>
      <point x="581" y="869"/>
      <point x="529" y="892"/>
      <point x="499" y="892" type="qcurve"/>
      <point x="478" y="892"/>
      <point x="425" y="875"/>
      <point x="367" y="838"/>
      <point x="303" y="780"/>
      <point x="272" y="740" type="qcurve"/>
    </contour>
  </outline>
</glyph>
<glyph name="c" format="2">
  <advance width="768"/>
  <unicode hex="0063"/>
  <anchor x="250" y="0" name="AccentBelow"/>
  <anchor x="300" y="0" name="AccentCedilla"/>
  <anchor x="400" y="1100" name="AccentDefault"/>
  <anchor x="300" y="500" name="AccentMiddle"/>
  <outline>
    <contour>
      <point x="734" y="740" type="line"/>
      <point x="722" y="767"/>
      <point x="692" y="821"/>
      <point x="652" y="865"/>
      <point x="601" y="892"/>
      <point x="568" y="892" type="qcurve"/>
      <point x="536" y="892"/>
      <point x="474" y="849"/>
      <point x="420" y="773"/>
      <point x="375" y="671"/>
      <point x="343" y="552"/>
      <point x="325" y="422"/>
      <point x="325" y="357" type="qcurve"/>
      <point x="325" y="227"/>
      <point x="399" y="82"/>
      <point x="461" y="82" type="qcurve"/>
      <point x="488" y="82"/>
      <point x="538" y="109"/>
      <point x="582" y="152"/>
      <point x="620" y="207"/>
      <point x="637" y="235" type="qcurve"/>
      <point x="722" y="122" type="line"/>
      <point x="695" y="90"/>
      <point x="636" y="34"/>
      <point x="565" y="-7"/>
      <point x="478" y="-30"/>
      <point x="423" y="-30" type="qcurve"/>
      <point x="348" y="-30"/>
      <point x="230" y="29"/>
      <point x="149" y="136"/>
      <point x="106" y="286"/>
      <point x="106" y="377" type="qcurve"/>
      <point x="106" y="462"/>
      <point x="137" y="622"/>
      <point x="196" y="761"/>
      <point x="278" y="876"/>
      <point x="380" y="959"/>
      <point x="497" y="1004"/>
      <point x="560" y="1004" type="qcurve"/>
      <point x="614" y="1004"/>
      <point x="695" y="980"/>
      <point x="757" y="938"/>
      <point x="801" y="883"/>
      <point x="818" y="852" type="qcurve"/>
    </contour>
  </outline>
</glyph>
<glyph name="d" format="2">
  <advance width="840"/>
  <unicode hex="0064"/>
  <anchor x="250" y="0" name="AccentBelow"/>
  <anchor x="300" y="0" name="AccentCedilla"/>
  <anchor x="400" y="1600" name="AccentDefault"/>
  <anchor x="660" y="1200" name="AccentMiddle"/>
  <outline>
    <contour>
      <point x="662" y="821" type="line"/>
      <point x="647" y="852"/>
      <point x="592" y="892"/>
      <point x="547" y="892" type="qcurve"/>
      <point x="515" y="892"/>
      <point x="455" y="846"/>
      <point x="404" y="767"/>
      <point x="362" y="661"/>
      <point x="333" y="541"/>
      <point x="317" y="412"/>
      <point x="317" y="350" type="qcurve"/>
      <point x="317" y="283"/>
      <point x="336" y="183"/>
      <point x="369" y="116"/>
      <point x="414" y="82"/>
      <point x="440" y="82" type="qcurve"/>
      <point x="485" y="82"/>
      <point x="550" y="123"/>
      <point x="573" y="152" type="qcurve"/>
    </contour>
    <contour>
      <point x="526" y="1004" type="qcurve"/>
      <point x="548" y="1004"/>
      <point x="595" y="988"/>
      <point x="637" y="966"/>
      <point x="668" y="941"/>
      <point x="677" y="931" type="qcurve"/>
      <point x="747" y="1464" type="line"/>
      <point x="917" y="1494" type="line"/>
      <point x="962" y="1494" type="line"/>
      <point x="785" y="156" type="line"/>
      <point x="785" y="149"/>
      <point x="784" y="136"/>
      <point x="784" y="131" type="qcurve"/>
      <point x="784" y="107"/>
      <point x="803" y="82"/>
      <point x="830" y="82" type="qcurve"/>
      <point x="815" y="-30" type="line"/>
      <point x="716" y="-30"/>
      <point x="606" y="19"/>
      <point x="587" y="82" type="qcurve"/>
      <point x="569" y="58"/>
      <point x="519" y="17"/>
      <point x="466" y="-13"/>
      <point x="412" y="-30"/>
      <point x="388" y="-30" type="qcurve"/>
      <point x="325" y="-30"/>
      <point x="218" y="24"/>
      <point x="141" y="126"/>
      <point x="98" y="275"/>
      <point x="98" y="370" type="qcurve"/>
      <point x="98" y="450"/>
      <point x="127" y="606"/>
      <point x="181" y="747"/>
      <point x="257" y="867"/>
      <point x="353" y="955"/>
      <point x="464" y="1004"/>
    </contour>
  </outline>
</glyph>
<glyph name="g" format="2">
  <advance width="840"/>
  <unicode hex="0067"/>
  <anchor x="200" y="-500" name="AccentBelow"/>
  <anchor x="450" y="1100" name="AccentDefault"/>
  <anchor x="500" y="500" name="AccentMiddle"/>
  <outline>
    <contour>
      <point x="521" y="974" type="qcurve"/>
      <point x="544" y="974"/>
      <point x="591" y="958"/>
      <point x="632" y="936"/>
      <point x="665" y="911"/>
      <point x="672" y="901" type="qcurve"/>
      <point x="682" y="974" type="line"/>
      <point x="853" y="1004" type="line"/>
      <point x="898" y="1004" type="line"/>
      <point x="771" y="49" type="line"/>
      <point x="754" y="-80"/>
      <point x="672" y="-281"/>
      <point x="555" y="-418"/>
      <point x="408" y="-490"/>
      <point x="326" y="-490" type="qcurve"/>
      <point x="285" y="-490"/>
      <point x="205" y="-468"/>
      <point x="131" y="-428"/>
      <point x="66" y="-372"/>
      <point x="42" y="-338" type="qcurve"/>
      <point x="126" y="-226" type="line"/>
      <point x="140" y="-251"/>
      <point x="182" y="-298"/>
      <point x="233" y="-335"/>
      <point x="291" y="-358"/>
      <point x="320" y="-358" type="qcurve"/>
      <point x="355" y="-358"/>
      <point x="425" y="-329"/>
      <point x="487" y="-257"/>
      <point x="535" y="-134"/>
      <point x="548" y="-40" type="qcurve"/>
      <point x="564" y="80" type="line"/>
      <point x="527" y="42"/>
      <point x="437" y="0"/>
      <point x="392" y="0" type="qcurve"/>
      <point x="328" y="0"/>
      <point x="221" y="47"/>
      <point x="142" y="140"/>
      <point x="98" y="280"/>
      <point x="98" y="373" type="qcurve"/>
      <point x="98" y="495"/>
      <point x="161" y="713"/>
      <point x="274" y="878"/>
      <point x="429" y="974"/>
    </contour>
    <contour>
      <point x="578" y="182" type="qcurve"/>
      <point x="658" y="791" type="line"/>
      <point x="642" y="822"/>
      <point x="587" y="862"/>
      <point x="542" y="862" type="qcurve"/>
      <point x="495" y="862"/>
      <point x="413" y="775"/>
      <point x="352" y="633"/>
      <point x="317" y="452"/>
      <point x="317" y="358" type="qcurve"/>
      <point x="317" y="293"/>
      <point x="338" y="200"/>
      <point x="372" y="140"/>
      <point x="418" y="112"/>
      <point x="443" y="112" type="qcurve"/>
      <point x="489" y="112"/>
      <point x="554" y="153"/>
    </contour>
  </outline>
</glyph>
<glyph name="h" format="2">
  <advance width="840"/>
  <unicode hex="0068"/>
  <outline>
    <contour>
      <point x="269" y="1464" type="line"/>
      <point x="439" y="1494" type="line"/>
      <point x="484" y="1494" type="line"/>
      <point x="409" y="925" type="line"/>
      <point x="454" y="963"/>
      <point x="561" y="1004"/>
      <point x="620" y="1004" type="qcurve"/>
      <point x="674" y="1004"/>
      <point x="760" y="970"/>
      <point x="821" y="904"/>
      <point x="853" y="809"/>
      <point x="853" y="748" type="qcurve"/>
      <point x="853" y="716"/>
      <point x="848" y="680" type="qcurve"/>
      <point x="782" y="172" type="line"/>
      <point x="780" y="161"/>
      <point x="777" y="138"/>
      <point x="777" y="130" type="qcurve"/>
      <point x="777" y="107"/>
      <point x="798" y="82"/>
      <point x="824" y="82" type="qcurve"/>
      <point x="809" y="-30" type="line"/>
      <point x="767" y="-30"/>
      <point x="683" y="-7"/>
      <point x="615" y="42"/>
      <point x="573" y="121"/>
      <point x="573" y="177" type="qcurve"/>
      <point x="573" y="193"/>
      <point x="577" y="227"/>
      <point x="580" y="247" type="qcurve"/>
      <point x="643" y="724" type="line"/>
      <point x="645" y="740"/>
      <point x="645" y="755" type="qcurve"/>
      <point x="645" y="787"/>
      <point x="629" y="838"/>
      <point x="602" y="873"/>
      <point x="568" y="892"/>
      <point x="551" y="892" type="qcurve"/>
      <point x="526" y="892"/>
      <point x="480" y="875"/>
      <point x="439" y="846"/>
      <point x="404" y="811"/>
      <point x="391" y="793" type="qcurve"/>
      <point x="287" y="0" type="line"/>
      <point x="75" y="0" type="line"/>
    </contour>
  </outline>
</glyph>
<glyph name="j" format="2">
  <advance width="432"/>
  <unicode hex="006A"/>
  <anchor x="0" y="-500" name="AccentBelow"/>
  <anchor x="250" y="1600" name="AccentDefault"/>
  <anchor x="100" y="500" name="AccentMiddle"/>
  <outline>
    <contour>
      <point x="242" y="974" type="line"/>
      <point x="413" y="1004" type="line"/>
      <point x="458" y="1004" type="line"/>
      <point x="315" y="-76" type="line"/>
      <point x="300" y="-191"/>
      <point x="246" y="-349"/>
      <point x="161" y="-447"/>
      <point x="43" y="-490"/>
      <point x="-37" y="-490" type="qcurve"/>
      <point x="-22" y="-378" type="line"/>
      <point x="3" y="-378"/>
      <point x="38" y="-363"/>
      <point x="63" y="-323"/>
      <point x="81" y="-250"/>
      <point x="89" y="-191" type="qcurve"/>
    </contour>
    <contour>
      <point x="280" y="1288" type="qcurve"/>
      <point x="280" y="1318"/>
      <point x="297" y="1372"/>
      <point x="326" y="1411"/>
      <point x="367" y="1434"/>
      <point x="389" y="1434" type="qcurve"/>
      <point x="412" y="1434"/>
      <point x="452" y="1411"/>
      <point x="482" y="1372"/>
      <point x="499" y="1318"/>
      <point x="499" y="1288" type="qcurve"/>
      <point x="499" y="1258"/>
      <point x="482" y="1204"/>
      <point x="452" y="1165"/>
      <point x="412" y="1142"/>
      <point x="389" y="1142" type="qcurve"/>
      <point x="367" y="1142"/>
      <point x="326" y="1165"/>
      <point x="297" y="1204"/>
      <point x="280" y="1258"/>
    </contour>
  </outline>
</glyph>
<glyph name="l" format="2">
  <advance width="432"/>
  <unicode hex="006C"/>
  <anchor x="100" y="0" name="AccentBelow"/>
  <anchor x="250" y="1600" name="AccentDefault"/>
  <anchor x="150" y="760" name="AccentMiddle"/>
  <outline>
    <contour>
      <point x="510" y="1494" type="line"/>
      <point x="348" y="269" type="line"/>
      <point x="344" y="233"/>
      <point x="344" y="204" type="qcurve"/>
      <point x="344" y="173"/>
      <point x="359" y="127"/>
      <point x="386" y="97"/>
      <point x="422" y="82"/>
      <point x="443" y="82" type="qcurve"/>
      <point x="428" y="-30" type="line"/>
      <point x="343" y="-30"/>
      <point x="230" y="-3"/>
      <point x="164" y="54"/>
      <point x="136" y="142"/>
      <point x="136" y="203" type="qcurve"/>
      <point x="136" y="233"/>
      <point x="141" y="303"/>
      <point x="146" y="342" type="qcurve"/>
      <point x="295" y="1464" type="line"/>
      <point x="465" y="1494" type="line"/>
    </contour>
  </outline>
</glyph>
<glyph name="m" format="2">
  <advance width="1248"/>
  <unicode hex="006D"/>
  <outline>
    <contour>
      <point x="200" y="944" type="line"/>
      <point x="370" y="974" type="line"/>
      <point x="415" y="974" type="line"/>
      <point x="404" y="893" type="line"/>
      <point x="425" y="915"/>
      <point x="473" y="956"/>
      <point x="526" y="986"/>
      <point x="581" y="1004"/>
      <point x="610" y="1004" type="qcurve"/>
      <point x="685" y="1004"/>
      <point x="783" y="924"/>
      <point x="804" y="852" type="qcurve"/>
      <point x="830" y="882"/>
      <point x="885" y="937"/>
      <point x="945" y="979"/>
      <point x="1011" y="1004"/>
      <point x="1047" y="1004" type="qcurve"/>
      <point x="1089" y="1004"/>
      <point x="1166" y="974"/>
      <point x="1223" y="914"/>
      <point x="1258" y="823"/>
      <point x="1258" y="762" type="qcurve"/>
      <point x="1258" y="732"/>
      <point x="1253" y="699" type="qcurve"/>
      <point x="1184" y="173" type="line"/>
      <point x="1182" y="162"/>
      <point x="1179" y="140"/>
      <point x="1179" y="132" type="qcurve"/>
      <point x="1179" y="105"/>
      <point x="1200" y="82"/>
      <point x="1226" y="82" type="qcurve"/>
      <point x="1211" y="-30" type="line"/>
      <point x="1159" y="-30"/>
      <point x="1073" y="-3"/>
      <point x="1011" y="50"/>
      <point x="976" y="128"/>
      <point x="976" y="179" type="qcurve"/>
      <point x="976" y="195"/>
      <point x="980" y="232"/>
      <point x="982" y="247" type="qcurve"/>
      <point x="1047" y="740" type="line"/>
      <point x="1049" y="752"/>
      <point x="1050" y="774"/>
      <point x="1050" y="784" type="qcurve"/>
      <point x="1050" y="814"/>
      <point x="1038" y="855"/>
      <point x="1018" y="880"/>
      <point x="993" y="892"/>
      <point x="980" y="892" type="qcurve"/>
      <point x="960" y="892"/>
      <point x="919" y="871"/>
      <point x="878" y="836"/>
      <point x="841" y="792"/>
      <point x="825" y="769" type="qcurve"/>
      <point x="724" y="0" type="line"/>
      <point x="512" y="0" type="line"/>
      <point x="610" y="741" type="line"/>
      <point x="613" y="761"/>
      <point x="613" y="783" type="qcurve"/>
      <point x="613" y="813"/>
      <point x="600" y="854"/>
      <point x="581" y="880"/>
      <point x="555" y="892"/>
      <point x="543" y="892" type="qcurve"/>
      <point x="524" y="892"/>
      <point x="483" y="872"/>
      <point x="443" y="838"/>
      <point x="404" y="794"/>
      <point x="388" y="770" type="qcurve"/>
      <point x="287" y="0" type="line"/>
      <point x="75" y="0" type="line"/>
    </contour>
  </outline>
</glyph>
<glyph name="n" format="2">
  <advance width="840"/>
  <unicode hex="006E"/>
  <anchor x="250" y="0" name="AccentBelow"/>
  <anchor x="400" y="1100" name="AccentDefault"/>
  <anchor x="300" y="500" name="AccentMiddle"/>
  <outline>
    <contour>
      <point x="200" y="944" type="line"/>
      <point x="370" y="974" type="line"/>
      <point x="415" y="974" type="line"/>
      <point x="404" y="892" type="line"/>
      <point x="427" y="914"/>
      <point x="480" y="955"/>
      <point x="538" y="986"/>
      <point x="598" y="1004"/>
      <point x="627" y="1004" type="qcurve"/>
      <point x="680" y="1004"/>
      <point x="764" y="970"/>
      <point x="823" y="906"/>
      <point x="854" y="812"/>
      <point x="854" y="752" type="qcurve"/>
      <point x="854" y="735"/>
      <point x="851" y="699"/>
      <point x="848" y="680" type="qcurve"/>
      <point x="782" y="172" type="line"/>
      <point x="779" y="157"/>
      <point x="777" y="138"/>
      <point x="777" y="130" type="qcurve"/>
      <point x="777" y="104"/>
      <point x="798" y="82"/>
      <point x="824" y="82" type="qcurve"/>
      <point x="809" y="-30" type="line"/>
      <point x="751" y="-30"/>
      <point x="663" y="1"/>
      <point x="603" y="56"/>
      <point x="573" y="133"/>
      <point x="573" y="180" type="qcurve"/>
      <point x="573" y="196"/>
      <point x="578" y="230"/>
      <point x="580" y="247" type="qcurve"/>
      <point x="643" y="724" type="line"/>
      <point x="644" y="738"/>
      <point x="647" y="765"/>
      <point x="647" y="777" type="qcurve"/>
      <point x="647" y="804"/>
      <point x="632" y="847"/>
      <point x="608" y="877"/>
      <point x="576" y="892"/>
      <point x="558" y="892" type="qcurve"/>
      <point x="533" y="892"/>
      <point x="483" y="868"/>
      <point x="438" y="832"/>
      <point x="401" y="789"/>
      <point x="388" y="770" type="qcurve"/>
      <point x="287" y="0" type="line"/>
      <point x="75" y="0" type="line"/>
    </contour>
  </outline>
</glyph>
<glyph name="o" format="2">
  <advance width="840"/>
  <unicode hex="006F"/>
  <guideline x="419" y="0" angle="80"/>
  <anchor x="250" y="0" name="AccentBelow"/>
  <anchor x="400" y="1100" name="AccentDefault"/>
  <anchor x="300" y="500" name="AccentMiddle"/>
  <outline>
    <contour>
      <point x="538" y="892" type="qcurve" name="sv01"/>
      <point x="503" y="892"/>
      <point x="444" y="842"/>
      <point x="395" y="757"/>
      <point x="357" y="644"/>
      <point x="331" y="517"/>
      <point x="317" y="383"/>
      <point x="317" y="321" type="qcurve" name="sh02"/>
      <point x="317" y="207"/>
      <point x="371" y="82"/>
      <point x="431" y="82" type="qcurve" name="sv02"/>
      <point x="465" y="82"/>
      <point x="524" y="132"/>
      <point x="574" y="216"/>
      <point x="612" y="329"/>
      <point x="638" y="456"/>
      <point x="652" y="589"/>
      <point x="652" y="651" type="qcurve" name="ah01"/>
      <point x="652" y="766"/>
      <point x="597" y="892"/>
    </contour>
    <contour>
      <point x="553" y="1004" type="qcurve" name="at01"/>
      <point x="629" y="1004"/>
      <point x="748" y="945"/>
      <point x="829" y="839"/>
      <point x="871" y="690"/>
      <point x="871" y="600" type="qcurve" name="sh03"/>
      <point x="871" y="513"/>
      <point x="839" y="353"/>
      <point x="782" y="213"/>
      <point x="700" y="98"/>
      <point x="599" y="15"/>
      <point x="481" y="-30"/>
      <point x="416" y="-30" type="qcurve" name="ab01"/>
      <point x="339" y="-30"/>
      <point x="221" y="29"/>
      <point x="140" y="136"/>
      <point x="98" y="285"/>
      <point x="98" y="375" type="qcurve" name="sh01"/>
      <point x="98" y="461"/>
      <point x="130" y="622"/>
      <point x="188" y="761"/>
      <point x="270" y="876"/>
      <point x="371" y="959"/>
      <point x="488" y="1004"/>
    </contour>
  </outline>
</glyph>
<glyph name="p" format="2">
  <advance width="840"/>
  <unicode hex="0070"/>
  <outline>
    <contour>
      <point x="200" y="944" type="line"/>
      <point x="370" y="974" type="line"/>
      <point x="415" y="974" type="line"/>
      <point x="407" y="914" type="line"/>
      <point x="424" y="935"/>
      <point x="468" y="968"/>
      <point x="518" y="992"/>
      <point x="569" y="1004"/>
      <point x="592" y="1004" type="qcurve"/>
      <point x="653" y="1004"/>
      <point x="756" y="947"/>
      <point x="830" y="842"/>
      <point x="870" y="695"/>
      <point x="870" y="604" type="qcurve"/>
      <point x="870" y="484"/>
      <point x="810" y="256"/>
      <point x="701" y="78"/>
      <point x="546" y="-30"/>
      <point x="452" y="-30" type="qcurve"/>
      <point x="410" y="-30"/>
      <point x="324" y="9"/>
      <point x="293" y="51" type="qcurve"/>
      <point x="225" y="-460" type="line"/>
      <point x="55" y="-490" type="line"/>
      <point x="10" y="-490" type="line"/>
    </contour>
    <contour>
      <point x="392" y="802" type="qcurve"/>
      <point x="308" y="162" type="line"/>
      <point x="330" y="119"/>
      <point x="386" y="82"/>
      <point x="422" y="82" type="qcurve"/>
      <point x="461" y="82"/>
      <point x="543" y="171"/>
      <point x="609" y="320"/>
      <point x="651" y="515"/>
      <point x="651" y="622" type="qcurve"/>
      <point x="651" y="683"/>
      <point x="635" y="782"/>
      <point x="605" y="853"/>
      <point x="560" y="892"/>
      <point x="532" y="892" type="qcurve"/>
      <point x="507" y="892"/>
      <point x="464" y="873"/>
      <point x="428" y="846"/>
      <point x="401" y="815"/>
    </contour>
  </outline>
</glyph>
<glyph name="q" format="2">
  <advance width="840"/>
  <unicode hex="0071"/>
  <anchor x="200" y="-500" name="AccentBelow"/>
  <anchor x="400" y="1100" name="AccentDefault"/>
  <anchor x="300" y="500" name="AccentMiddle"/>
  <outline>
    <contour>
      <point x="666" y="852" type="line"/>
      <point x="653" y="865"/>
      <point x="591" y="892"/>
      <point x="547" y="892" type="qcurve"/>
      <point x="515" y="892"/>
      <point x="455" y="846"/>
      <point x="404" y="767"/>
      <point x="362" y="661"/>
      <point x="333" y="541"/>
      <point x="317" y="412"/>
      <point x="317" y="350" type="qcurve"/>
      <point x="317" y="283"/>
      <point x="336" y="183"/>
      <point x="370" y="116"/>
      <point x="414" y="82"/>
      <point x="440" y="82" type="qcurve"/>
      <point x="485" y="82"/>
      <point x="552" y="133"/>
      <point x="575" y="163" type="qcurve"/>
    </contour>
    <contour>
      <point x="526" y="1004" type="qcurve"/>
      <point x="582" y="1004"/>
      <point x="675" y="981"/>
      <point x="758" y="940"/>
      <point x="836" y="884"/>
      <point x="878" y="852" type="qcurve"/>
      <point x="704" y="-460" type="line"/>
      <point x="533" y="-490" type="line"/>
      <point x="488" y="-490" type="line"/>
      <point x="560" y="51" type="line"/>
      <point x="524" y="13"/>
      <point x="433" y="-30"/>
      <point x="388" y="-30" type="qcurve"/>
      <point x="325" y="-30"/>
      <point x="218" y="24"/>
      <point x="141" y="126"/>
      <point x="98" y="275"/>
      <point x="98" y="370" type="qcurve"/>
      <point x="98" y="450"/>
      <point x="127" y="606"/>
      <point x="181" y="747"/>
      <point x="257" y="867"/>
      <point x="353" y="954"/>
      <point x="464" y="1004"/>
    </contour>
  </outline>
</glyph>
<glyph name="s" format="2">
  <advance width="648"/>
  <unicode hex="0073"/>
  <guideline x="0" y="749" angle="340"/>
  <guideline x="0" y="586" angle="340"/>
  <guideline x="0" y="1323" angle="320"/>
  <guideline x="326" y="0" angle="90"/>
  <guideline x="74" y="0" angle="45"/>
  <guideline x="-51" y="0" angle="45"/>
  <anchor x="200" y="0" name="AccentBelow"/>
  <anchor x="200" y="0" name="AccentCedilla"/>
  <anchor x="300" y="1100" name="AccentDefault"/>
  <anchor x="150" y="500" name="AccentMiddle"/>
  <outline>
    <contour>
      <point x="125" y="234" type="line" name="iv01"/>
      <point x="139" y="203"/>
      <point x="177" y="148"/>
      <point x="223" y="106"/>
      <point x="274" y="82"/>
      <point x="301" y="82" type="qcurve" name="sv01"/>
      <point x="330" y="82"/>
      <point x="383" y="106"/>
      <point x="424" y="151"/>
      <point x="447" y="215"/>
      <point x="447" y="254" type="qcurve" name="ah01"/>
      <point x="447" y="351"/>
      <point x="329" y="413" type="qcurve"/>
      <point x="299" y="429"/>
      <point x="240" y="481"/>
      <point x="195" y="552"/>
      <point x="168" y="640"/>
      <point x="168" y="692" type="qcurve" name="sh01"/>
      <point x="168" y="768"/>
      <point x="218" y="884"/>
      <point x="298" y="963"/>
      <point x="399" y="1004"/>
      <point x="450" y="1004" type="qcurve" name="sh02"/>
      <point x="495" y="1004"/>
      <point x="568" y="983"/>
      <point x="631" y="944"/>
      <point x="686" y="888"/>
      <point x="714" y="852" type="qcurve"/>
      <point x="630" y="740" type="line" name="sh04"/>
      <point x="619" y="772"/>
      <point x="585" y="827"/>
      <point x="543" y="868"/>
      <point x="494" y="892"/>
      <point x="467" y="892" type="qcurve" name="sv02"/>
      <point x="445" y="892"/>
      <point x="404" y="872"/>
      <point x="374" y="833"/>
      <point x="357" y="778"/>
      <point x="357" y="744" type="qcurve" name="sh05"/>
      <point x="357" y="710"/>
      <point x="374" y="662"/>
      <point x="400" y="628"/>
      <point x="432" y="606"/>
      <point x="448" y="598" type="qcurve" name="sh06"/>
      <point x="548" y="547"/>
      <point x="644" y="403"/>
      <point x="644" y="309" type="qcurve" name="sh03"/>
      <point x="644" y="222"/>
      <point x="585" y="94"/>
      <point x="493" y="10"/>
      <point x="377" y="-30"/>
      <point x="321" y="-30" type="qcurve" name="ab01"/>
      <point x="273" y="-30"/>
      <point x="189" y="-3"/>
      <point x="119" y="40"/>
      <point x="62" y="95"/>
      <point x="41" y="122" type="qcurve"/>
    </contour>
  </outline>
</glyph>
<glyph name="t" format="2">
  <advance width="552"/>
  <unicode hex="0074"/>
  <anchor x="200" y="0" name="AccentBelow"/>
  <anchor x="150" y="0" name="AccentCedilla"/>
  <anchor x="250" y="1600" name="AccentDefault"/>
  <anchor x="150" y="500" name="AccentMiddle"/>
  <outline>
    <contour>
      <point x="527" y="1322" type="line"/>
      <point x="485" y="1004" type="line"/>
      <point x="619" y="1004" type="line"/>
      <point x="601" y="865" type="line"/>
      <point x="467" y="873" type="line"/>
      <point x="388" y="269" type="line"/>
      <point x="386" y="251"/>
      <point x="383" y="219"/>
      <point x="383" y="205" type="qcurve"/>
      <point x="383" y="142"/>
      <point x="436" y="82"/>
      <point x="497" y="82" type="qcurve"/>
      <point x="482" y="-30" type="line"/>
      <point x="392" y="-30"/>
      <point x="273" y="-3"/>
      <point x="203" y="54"/>
      <point x="176" y="142"/>
      <point x="176" y="203" type="qcurve"/>
      <point x="176" y="233"/>
      <point x="181" y="303"/>
      <point x="186" y="342" type="qcurve"/>
      <point x="258" y="885" type="line"/>
      <point x="157" y="892" type="line"/>
      <point x="172" y="1004" type="line"/>
      <point x="274" y="1004" type="line"/>
      <point x="311" y="1292" type="line"/>
      <point x="482" y="1322" type="line"/>
    </contour>
  </outline>
</glyph>
<glyph name="u" format="2">
  <advance width="840"/>
  <unicode hex="0075"/>
  <anchor x="300" y="0" name="AccentBelow"/>
  <anchor x="400" y="1100" name="AccentDefault"/>
  <anchor x="300" y="500" name="AccentMiddle"/>
  <anchor x="400" y="0" name="AccentOgonek"/>
  <outline>
    <contour>
      <point x="419" y="1004" type="line"/>
      <point x="320" y="258" type="line"/>
      <point x="316" y="223"/>
      <point x="316" y="198" type="qcurve"/>
      <point x="316" y="163"/>
      <point x="329" y="118"/>
      <point x="351" y="92"/>
      <point x="377" y="82"/>
      <point x="389" y="82" type="qcurve"/>
      <point x="416" y="82"/>
      <point x="468" y="100"/>
      <point x="516" y="131"/>
      <point x="558" y="174"/>
      <point x="574" y="199" type="qcurve"/>
      <point x="676" y="974" type="line"/>
      <point x="847" y="1004" type="line"/>
      <point x="892" y="1004" type="line"/>
      <point x="781" y="165" type="line"/>
      <point x="779" y="156"/>
      <point x="777" y="138"/>
      <point x="777" y="130" type="qcurve"/>
      <point x="777" y="106"/>
      <point x="799" y="82"/>
      <point x="824" y="82" type="qcurve"/>
      <point x="809" y="-30" type="line"/>
      <point x="759" y="-30"/>
      <point x="684" y="-19"/>
      <point x="630" y="6"/>
      <point x="593" y="49"/>
      <point x="581" y="82" type="qcurve"/>
      <point x="560" y="62"/>
      <point x="509" y="22"/>
      <point x="448" y="-10"/>
      <point x="379" y="-30"/>
      <point x="342" y="-30" type="qcurve"/>
      <point x="293" y="-30"/>
      <point x="209" y="-1"/>
      <point x="146" y="60"/>
      <point x="110" y="157"/>
      <point x="110" y="226" type="qcurve"/>
      <point x="110" y="259"/>
      <point x="114" y="298" type="qcurve"/>
      <point x="203" y="974" type="line"/>
      <point x="374" y="1004" type="line"/>
    </contour>
  </outline>
</glyph>
<glyph name="v" format="2">
  <advance width="768"/>
  <unicode hex="0076"/>
  <anchor x="250" y="0" name="AccentBelow"/>
  <anchor x="400" y="1100" name="AccentDefault"/>
  <anchor x="250" y="500" name="AccentMiddle"/>
  <outline>
    <contour>
      <point x="382" y="1004" type="line"/>
      <point x="480" y="308" type="line"/>
      <point x="762" y="1004" type="line"/>
      <point x="864" y="974" type="line"/>
      <point x="470" y="0" type="line"/>
      <point x="298" y="0" type="line"/>
      <point x="160" y="974" type="line"/>
    </contour>
  </outline>
</glyph>
<glyph name="w" format="2">
  <advance width="1080"/>
  <unicode hex="0077"/>
  <outline>
    <contour>
      <point x="814" y="1004" type="line"/>
      <point x="863" y="368" type="line"/>
      <point x="1083" y="1004" type="line"/>
      <point x="1185" y="974" type="line"/>
      <point x="846" y="0" type="line"/>
      <point x="674" y="0" type="line"/>
      <point x="621" y="621" type="line"/>
      <point x="405" y="0" type="line"/>
      <point x="233" y="0" type="line"/>
      <point x="151" y="974" type="line"/>
      <point x="373" y="1004" type="line"/>
      <point x="422" y="368" type="line"/>
      <point x="642" y="1004" type="line"/>
    </contour>
  </outline>
</glyph>
<glyph name="y" format="2">
  <advance width="720"/>
  <unicode hex="0079"/>
  <anchor x="100" y="-500" name="AccentBelow"/>
  <anchor x="400" y="1100" name="AccentDefault"/>
  <anchor x="250" y="500" name="AccentMiddle"/>
  <outline>
    <contour>
      <point x="383" y="1004" type="line"/>
      <point x="486" y="385" type="line"/>
      <point x="719" y="1004" type="line"/>
      <point x="821" y="974" type="line"/>
      <point x="443" y="-30" type="line"/>
      <point x="406" y="-129"/>
      <point x="329" y="-298"/>
      <point x="230" y="-421"/>
      <point x="101" y="-490"/>
      <point x="11" y="-490" type="qcurve"/>
      <point x="26" y="-378" type="line"/>
      <point x="89" y="-378"/>
      <point x="185" y="-311"/>
      <point x="258" y="-203"/>
      <point x="315" y="-69"/>
      <point x="341" y="-3" type="qcurve"/>
      <point x="159" y="974" type="line"/>
    </contour>
  </outline>
</glyph>
<glyph name="z" format="2">
  <advance width="720"/>
  <unicode hex="007A"/>
  <anchor x="250" y="0" name="AccentBelow"/>
  <anchor x="400" y="1100" name="AccentDefault"/>
  <anchor x="250" y="500" name="AccentMiddle"/>
  <outline>
    <contour>
      <point x="30" y="60" type="line"/>
      <point x="557" y="862" type="line"/>
      <point x="173" y="835" type="line"/>
      <point x="191" y="974" type="line"/>
      <point x="826" y="974" type="line"/>
      <point x="818" y="914" type="line"/>
      <point x="284" y="112" type="line"/>
      <point x="715" y="141" type="line"/>
      <point x="697" y="0" type="line"/>
      <point x="23" y="0" type="line"/>
    </contour>
  </outline>
</glyph>
<glyph name="bar" format="2">
  <advance width="552"/>
  <unicode hex="007C"/>
  <outline>
    <contour>
      <point x="602" y="1682" type="line" name="av02"/>
      <point x="342" y="-278" type="line" name="av01"/>
      <point x="153" y="-278" type="line"/>
      <point x="413" y="1682" type="line"/>
    </contour>
  </outline>
</glyph>
<glyph name="braceright" format="2">
  <advance width="552"/>
  <unicode hex="007D"/>
  <outline>
    <contour>
      <point x="258" y="1464" type="line"/>
      <point x="308" y="1463"/>
      <point x="407" y="1449"/>
      <point x="487" y="1401"/>
      <point x="536" y="1309"/>
      <point x="536" y="1231" type="qcurve"/>
      <point x="536" y="1189"/>
      <point x="530" y="1140" type="qcurve"/>
      <point x="505" y="956" type="line"/>
      <point x="499" y="912"/>
      <point x="491" y="836"/>
      <point x="491" y="803" type="qcurve"/>
      <point x="491" y="768"/>
      <point x="503" y="713"/>
      <point x="529" y="675"/>
      <point x="573" y="654"/>
      <point x="607" y="654" type="qcurve"/>
      <point x="590" y="532" type="line"/>
      <point x="541" y="532"/>
      <point x="478" y="488"/>
      <point x="440" y="408"/>
      <point x="418" y="297"/>
      <point x="409" y="230" type="qcurve"/>
      <point x="383" y="36" type="line"/>
      <point x="370" y="-64"/>
      <point x="308" y="-187"/>
      <point x="215" y="-254"/>
      <point x="96" y="-277"/>
      <point x="27" y="-278" type="qcurve"/>
      <point x="44" y="-156" type="line"/>
      <point x="88" y="-156"/>
      <point x="140" y="-138"/>
      <point x="170" y="-97"/>
      <point x="185" y="-29"/>
      <point x="192" y="21" type="qcurve"/>
      <point x="226" y="269" type="line"/>
      <point x="233" y="325"/>
      <point x="263" y="419"/>
      <point x="311" y="498"/>
      <point x="378" y="565"/>
      <point x="423" y="593" type="qcurve"/>
      <point x="362" y="638"/>
      <point x="305" y="756"/>
      <point x="305" y="837" type="qcurve"/>
      <point x="305" y="856"/>
      <point x="308" y="896"/>
      <point x="311" y="917" type="qcurve"/>
      <point x="342" y="1153" type="line"/>
      <point x="346" y="1182"/>
      <point x="350" y="1227"/>
      <point x="350" y="1247" type="qcurve"/>
      <point x="350" y="1272"/>
      <point x="340" y="1308"/>
      <point x="315" y="1331"/>
      <point x="274" y="1342"/>
      <point x="242" y="1342" type="qcurve"/>
    </contour>
  </outline>
</glyph>
<glyph name="brokenbar" format="2">
  <advance width="552"/>
  <unicode hex="00A6"/>
  <outline>
    <contour>
      <point x="584" y="1682" type="line"/>
      <point x="474" y="848" type="line"/>
      <point x="285" y="848" type="line"/>
      <point x="395" y="1682" type="line"/>
    </contour>
    <contour>
      <point x="136" y="-278" type="line"/>
      <point x="247" y="556" type="line"/>
      <point x="436" y="556" type="line"/>
      <point x="325" y="-278" type="line"/>
    </contour>
  </outline>
</glyph>
<glyph name="section" format="2">
  <advance width="768"/>
  <unicode hex="00A7"/>
  <guideline x="395" y="0" angle="90"/>
  <outline>
    <contour>
      <point x="372" y="510" type="qcurve" name="dh02"/>
      <point x="372" y="468"/>
      <point x="395" y="395"/>
      <point x="431" y="332" name="hr00"/>
      <point x="475" y="277"/>
      <point x="497" y="253" type="qcurve"/>
      <point x="533" y="296"/>
      <point x="572" y="411"/>
      <point x="572" y="468" type="qcurve" name="ih01"/>
      <point x="572" y="511"/>
      <point x="550" y="584"/>
      <point x="514" y="646" name="hr01"/>
      <point x="470" y="698"/>
      <point x="448" y="721" type="qcurve"/>
      <point x="414" y="680"/>
      <point x="372" y="568"/>
    </contour>
    <contour>
      <point x="330" y="-490" type="qcurve" name="ab01"/>
      <point x="284" y="-490"/>
      <point x="208" y="-464"/>
      <point x="144" y="-422" name="hr02"/>
      <point x="91" y="-367"/>
      <point x="69" y="-338" type="qcurve"/>
      <point x="153" y="-226" type="line" name="iv01"/>
      <point x="164" y="-259"/>
      <point x="199" y="-314"/>
      <point x="239" y="-355"/>
      <point x="284" y="-378"/>
      <point x="305" y="-378" type="qcurve" name="sv01"/>
      <point x="338" y="-378"/>
      <point x="392" y="-341"/>
      <point x="428" y="-281"/>
      <point x="449" y="-207"/>
      <point x="449" y="-169" type="qcurve" name="dh03"/>
      <point x="449" y="-101"/>
      <point x="405" y="0"/>
      <point x="339" y="86"/>
      <point x="263" y="165"/>
      <point x="197" y="257"/>
      <point x="153" y="372"/>
      <point x="153" y="449" type="qcurve" name="dh01"/>
      <point x="153" y="518"/>
      <point x="187" y="634"/>
      <point x="244" y="731"/>
      <point x="317" y="810"/>
      <point x="358" y="843" type="qcurve"/>
      <point x="330" y="891"/>
      <point x="299" y="1000"/>
      <point x="299" y="1065" type="qcurve" name="ih02"/>
      <point x="299" y="1150"/>
      <point x="353" y="1296"/>
      <point x="440" y="1403"/>
      <point x="554" y="1464"/>
      <point x="614" y="1464" type="qcurve" name="at01"/>
      <point x="666" y="1464"/>
      <point x="741" y="1440"/>
      <point x="800" y="1398"/>
      <point x="850" y="1343"/>
      <point x="876" y="1312" type="qcurve"/>
      <point x="792" y="1200" type="line" name="iv02"/>
      <point x="784" y="1225"/>
      <point x="753" y="1279"/>
      <point x="712" y="1323"/>
      <point x="663" y="1352"/>
      <point x="636" y="1352" type="qcurve" name="sv02"/>
      <point x="602" y="1352"/>
      <point x="551" y="1314"/>
      <point x="515" y="1252"/>
      <point x="496" y="1176"/>
      <point x="496" y="1139" type="qcurve" name="sh01"/>
      <point x="496" y="1071"/>
      <point x="539" y="971"/>
      <point x="605" y="886"/>
      <point x="682" y="807"/>
      <point x="748" y="716"/>
      <point x="791" y="602"/>
      <point x="791" y="525" type="qcurve" name="sh02"/>
      <point x="791" y="456"/>
      <point x="758" y="340"/>
      <point x="701" y="242"/>
      <point x="626" y="162"/>
      <point x="586" y="129" type="qcurve"/>
      <point x="614" y="82"/>
      <point x="645" y="-28"/>
      <point x="645" y="-94" type="qcurve" name="dh04"/>
      <point x="645" y="-180"/>
      <point x="592" y="-325"/>
      <point x="504" y="-431"/>
      <point x="391" y="-490"/>
    </contour>
  </outline>
</glyph>
<glyph name="guillemotleft" format="2">
  <advance width="768"/>
  <unicode hex="00AB"/>
  <guideline x="0" y="894" angle="0"/>
  <outline>
    <contour>
      <point x="398" y="906" type="line" name="av01"/>
      <point x="555" y="868" type="line" name="iv01"/>
      <point x="308" y="487" type="line"/>
      <point x="454" y="106" type="line"/>
      <point x="286" y="68" type="line" name="av03"/>
      <point x="95" y="487" type="line"/>
    </contour>
    <contour>
      <point x="695" y="906" type="line" name="av02"/>
      <point x="851" y="868" type="line" name="iv02"/>
      <point x="605" y="487" type="line"/>
      <point x="750" y="106" type="line"/>
      <point x="582" y="68" type="line" name="av04"/>
      <point x="392" y="487" type="line"/>
    </contour>
  </outline>
</glyph>
<glyph name="logicalnot" format="2">
  <advance width="864"/>
  <unicode hex="00AC"/>
  <outline>
    <contour>
      <point x="914" y="805" type="line"/>
      <point x="842" y="256" type="line"/>
      <point x="653" y="256" type="line"/>
      <point x="698" y="593" type="line"/>
      <point x="132" y="593" type="line"/>
      <point x="160" y="805" type="line"/>
    </contour>
  </outline>
</glyph>
<glyph name="acute" format="2">
  <advance width="576"/>
  <unicode hex="00B4"/>
  <outline>
    <contour>
      <point x="305" y="1219" type="line"/>
      <point x="515" y="1588" type="line"/>
      <point x="548" y="1588" type="line"/>
      <point x="637" y="1470" type="line"/>
      <point x="637" y="1426" type="line"/>
      <point x="362" y="1138" type="line"/>
    </contour>
  </outline>
</glyph>
<glyph name="mu" format="2">
  <advance width="768"/>
  <unicode hex="00B5"/>
  <guideline x="767" y="0" angle="80"/>
  <outline>
    <contour>
      <point x="225" y="-460" type="line" name="hr00"/>
      <point x="55" y="-490" type="line" name="ab01"/>
      <point x="10" y="-490" type="line"/>
      <point x="203" y="974" type="line"/>
      <point x="374" y="1004" type="line" name="at01"/>
      <point x="419" y="1004" type="line"/>
      <point x="308" y="179" type="line"/>
      <point x="320" y="128"/>
      <point x="374" y="82"/>
      <point x="402" y="82" type="qcurve" name="sv01"/>
      <point x="475" y="82"/>
      <point x="529" y="198" type="qcurve"/>
      <point x="631" y="974" type="line"/>
      <point x="802" y="1004" type="line" name="at02"/>
      <point x="847" y="1004" type="line"/>
      <point x="736" y="165" type="line"/>
      <point x="734" y="158"/>
      <point x="732" y="137"/>
      <point x="732" y="129" type="qcurve"/>
      <point x="732" y="105"/>
      <point x="754" y="82"/>
      <point x="779" y="82" type="qcurve" name="sv02"/>
      <point x="764" y="-30" type="line" name="ab02"/>
      <point x="708" y="-30"/>
      <point x="632" y="-17"/>
      <point x="581" y="10"/>
      <point x="548" y="52"/>
      <point x="536" y="82" type="qcurve" name="iv01"/>
      <point x="504" y="30"/>
      <point x="431" y="-30"/>
      <point x="386" y="-30" type="qcurve" name="ab03"/>
      <point x="376" y="-30"/>
      <point x="350" y="-24"/>
      <point x="323" y="-11"/>
      <point x="298" y="10"/>
      <point x="288" y="25" type="qcurve" name="iv02"/>
    </contour>
  </outline>
</glyph>
<glyph name="paragraph" format="2">
  <advance width="768"/>
  <unicode hex="00B6"/>
  <outline>
    <contour>
      <point x="911" y="1434" type="line"/>
      <point x="895" y="1312" type="line"/>
      <point x="847" y="1312" type="line"/>
      <point x="674" y="0" type="line"/>
      <point x="537" y="0" type="line"/>
      <point x="710" y="1312" type="line"/>
      <point x="623" y="1312" type="line"/>
      <point x="450" y="0" type="line"/>
      <point x="314" y="0" type="line"/>
      <point x="413" y="750" type="line"/>
      <point x="352" y="750"/>
      <point x="260" y="800"/>
      <point x="202" y="891"/>
      <point x="181" y="1017"/>
      <point x="191" y="1092" type="qcurve"/>
      <point x="200" y="1167"/>
      <point x="257" y="1293"/>
      <point x="342" y="1383"/>
      <point x="453" y="1434"/>
      <point x="518" y="1434" type="qcurve"/>
    </contour>
  </outline>
</glyph>
<glyph name="onesuperior" format="2">
  <advance width="552"/>
  <unicode hex="00B9"/>
  <outline>
    <contour>
      <point x="596" y="1464" type="line"/>
      <point x="479" y="586" type="line"/>
      <point x="343" y="586" type="line"/>
      <point x="440" y="1313" type="line"/>
      <point x="314" y="1272" type="line"/>
      <point x="314" y="1340" type="line"/>
      <point x="566" y="1464" type="line"/>
    </contour>
  </outline>
</glyph>
<glyph name="Ccedilla" format="2">
  <advance width="1008"/>
  <unicode hex="00C7"/>
  <outline>
    <contour>
      <point x="1156" y="1235" type="qcurve"/>
      <point x="1065" y="1113" type="line"/>
      <point x="1022" y="1213"/>
      <point x="876" y="1322"/>
      <point x="772" y="1322" type="qcurve"/>
      <point x="718" y="1322"/>
      <point x="615" y="1263"/>
      <point x="524" y="1158"/>
      <point x="448" y="1012"/>
      <point x="393" y="838"/>
      <point x="362" y="641"/>
      <point x="362" y="537" type="qcurve"/>
      <point x="362" y="434"/>
      <point x="399" y="276"/>
      <point x="466" y="168"/>
      <point x="557" y="112"/>
      <point x="611" y="112" type="qcurve"/>
      <point x="657" y="112"/>
      <point x="740" y="133"/>
      <point x="818" y="183"/>
      <point x="891" y="262"/>
      <point x="927" y="321" type="qcurve"/>
      <point x="1019" y="199" type="line"/>
      <point x="976" y="147"/>
      <point x="885" y="62"/>
      <point x="782" y="2"/>
      <point x="723" y="-14" type="qcurve"/>
      <point x="694" y="-22"/>
      <point x="663" y="-26" type="qcurve"/>
      <point x="652" y="-72" type="line"/>
      <point x="668" y="-75"/>
      <point x="701" y="-97"/>
      <point x="730" y="-137"/>
      <point x="749" y="-195"/>
      <point x="749" y="-232" type="qcurve"/>
      <point x="749" y="-295"/>
      <point x="707" y="-391"/>
      <point x="641" y="-456"/>
      <point x="560" y="-490"/>
      <point x="519" y="-490" type="qcurve"/>
      <point x="482" y="-490"/>
      <point x="426" y="-465"/>
      <point x="384" y="-428"/>
      <point x="357" y="-386"/>
      <point x="350" y="-368" type="qcurve"/>
      <point x="424" y="-270" type="line"/>
      <point x="437" y="-315"/>
      <point x="476" y="-368"/>
      <point x="504" y="-368" type="qcurve"/>
      <point x="527" y="-368"/>
      <point x="563" y="-348"/>
      <point x="587" y="-314"/>
      <point x="599" y="-268"/>
      <point x="599" y="-242" type="qcurve"/>
      <point x="599" y="-216"/>
      <point x="586" y="-169"/>
      <point x="560" y="-134"/>
      <point x="523" y="-113"/>
      <point x="500" y="-113" type="qcurve"/>
      <point x="525" y="-24" type="line"/>
      <point x="467" y="-15"/>
      <point x="415" y="12" type="qcurve"/>
      <point x="331" y="54"/>
      <point x="203" y="211"/>
      <point x="128" y="436"/>
      <point x="128" y="577" type="qcurve"/>
      <point x="128" y="695"/>
      <point x="179" y="918"/>
      <point x="268" y="1115"/>
      <point x="391" y="1279"/>
      <point x="538" y="1398"/>
      <point x="704" y="1464"/>
      <point x="791" y="1464" type="qcurve"/>
      <point x="856" y="1464"/>
      <point x="965" y="1430"/>
      <point x="1055" y="1369"/>
      <point x="1127" y="1285"/>
    </contour>
  </outline>
</glyph>
<glyph name="Eth" format="2">
  <advance width="1128"/>
  <unicode hex="00D0"/>
  <outline>
    <contour>
      <point x="288" y="1434" type="line"/>
      <point x="647" y="1434" type="line"/>
      <point x="773" y="1434"/>
      <point x="969" y="1358"/>
      <point x="1103" y="1213"/>
      <point x="1172" y="1003"/>
      <point x="1172" y="870" type="qcurve"/>
      <point x="1172" y="742"/>
      <point x="1118" y="513"/>
      <point x="1021" y="320"/>
      <point x="889" y="165"/>
      <point x="732" y="58"/>
      <point x="557" y="0"/>
      <point x="466" y="0" type="qcurve"/>
      <point x="99" y="0" type="line"/>
      <point x="194" y="717" type="line"/>
      <point x="123" y="717" type="line"/>
      <point x="143" y="859" type="line"/>
      <point x="212" y="859" type="line"/>
    </contour>
    <contour>
      <point x="505" y="1302" type="line"/>
      <point x="446" y="859" type="line"/>
      <point x="704" y="859" type="line"/>
      <point x="686" y="717" type="line"/>
      <point x="428" y="717" type="line"/>
      <point x="350" y="132" type="line"/>
      <point x="462" y="132" type="line"/>
      <point x="534" y="132"/>
      <point x="661" y="191"/>
      <point x="767" y="295"/>
      <point x="850" y="438"/>
      <point x="908" y="603"/>
      <point x="938" y="785"/>
      <point x="938" y="877" type="qcurve"/>
      <point x="938" y="982"/>
      <point x="893" y="1141"/>
      <point x="809" y="1248"/>
      <point x="688" y="1302"/>
      <point x="611" y="1302" type="qcurve"/>
    </contour>
  </outline>
</glyph>
<glyph name="Oslash" format="2">
  <advance width="1200"/>
  <unicode hex="00D8"/>
  <outline>
    <contour>
      <point x="794" y="1464" type="qcurve"/>
      <point x="880" y="1464"/>
      <point x="963" y="1426" type="qcurve"/>
      <point x="1025" y="1559" type="line"/>
      <point x="1134" y="1529" type="line"/>
      <point x="1057" y="1365" type="line"/>
      <point x="1101" y="1326"/>
      <point x="1175" y="1221"/>
      <point x="1229" y="1092"/>
      <point x="1258" y="940"/>
      <point x="1258" y="855" type="qcurve"/>
      <point x="1258" y="737"/>
      <point x="1208" y="515"/>
      <point x="1118" y="318"/>
      <point x="995" y="154"/>
      <point x="848" y="36"/>
      <point x="683" y="-30"/>
      <point x="596" y="-30" type="qcurve"/>
      <point x="551" y="-30"/>
      <point x="461" y="-10"/>
      <point x="421" y="9" type="qcurve"/>
      <point x="358" y="-125" type="line"/>
      <point x="248" y="-95" type="line"/>
      <point x="326" y="72" type="line"/>
      <point x="281" y="111"/>
      <point x="209" y="214"/>
      <point x="157" y="342"/>
      <point x="128" y="492"/>
      <point x="128" y="577" type="qcurve"/>
      <point x="128" y="695"/>
      <point x="179" y="918"/>
      <point x="269" y="1115"/>
      <point x="392" y="1280"/>
      <point x="540" y="1398"/>
      <point x="707" y="1464"/>
    </contour>
    <contour>
      <point x="362" y="531" type="qcurve"/>
      <point x="362" y="447"/>
      <point x="391" y="310"/>
      <point x="413" y="256" type="qcurve"/>
      <point x="893" y="1281" type="line"/>
      <point x="866" y="1305"/>
      <point x="805" y="1322"/>
      <point x="770" y="1322" type="qcurve"/>
      <point x="716" y="1322"/>
      <point x="613" y="1262"/>
      <point x="522" y="1156"/>
      <point x="446" y="1008"/>
      <point x="392" y="832"/>
      <point x="362" y="634"/>
    </contour>
    <contour>
      <point x="613" y="112" type="qcurve"/>
      <point x="668" y="112"/>
      <point x="771" y="172"/>
      <point x="862" y="278"/>
      <point x="938" y="426"/>
      <point x="993" y="601"/>
      <point x="1024" y="799"/>
      <point x="1024" y="902" type="qcurve"/>
      <point x="1024" y="986"/>
      <point x="995" y="1122"/>
      <point x="971" y="1181" type="qcurve"/>
      <point x="489" y="156" type="line"/>
      <point x="516" y="133"/>
      <point x="578" y="112"/>
    </contour>
  </outline>
</glyph>
<glyph name="Thorn" format="2">
  <advance width="864"/>
  <unicode hex="00DE"/>
  <outline>
    <contour>
      <point x="288" y="1434" type="line"/>
      <point x="527" y="1464" type="line"/>
      <point x="485" y="1156" type="line"/>
      <point x="572" y="1156" type="line"/>
      <point x="667" y="1156"/>
      <point x="799" y="1099"/>
      <point x="882" y="1001"/>
      <point x="920" y="870"/>
      <point x="920" y="797" type="qcurve"/>
      <point x="920" y="694"/>
      <point x="861" y="506"/>
      <point x="746" y="363"/>
      <point x="572" y="278"/>
      <point x="457" y="278" type="qcurve"/>
      <point x="370" y="278" type="line"/>
      <point x="333" y="0" type="line"/>
      <point x="99" y="0" type="line"/>
    </contour>
    <contour>
      <point x="468" y="1024" type="line"/>
      <point x="387" y="410" type="line"/>
      <point x="455" y="410" type="line"/>
      <point x="515" y="410"/>
      <point x="602" y="486"/>
      <point x="659" y="603"/>
      <point x="686" y="744"/>
      <point x="686" y="809" type="qcurve"/>
      <point x="686" y="858"/>
      <point x="668" y="938"/>
      <point x="631" y="994"/>
      <point x="575" y="1024"/>
      <point x="536" y="1024" type="qcurve"/>
    </contour>
  </outline>
</glyph>
<glyph name="germandbls" format="2">
  <advance width="864"/>
  <unicode hex="00DF"/>
  <guideline x="452" y="0" angle="90"/>
  <outline>
    <contour>
      <point x="212" y="1039" type="line" name="hr00"/>
      <point x="227" y="1153"/>
      <point x="304" y="1340"/>
      <point x="410" y="1473"/>
      <point x="537" y="1546"/>
      <point x="602" y="1546" type="qcurve" name="dv02"/>
      <point x="662" y="1546"/>
      <point x="751" y="1506" name="hr01"/>
      <point x="809" y="1440"/>
      <point x="837" y="1357"/>
      <point x="837" y="1314" type="qcurve" name="dh04"/>
      <point x="837" y="1258" name="hr02"/>
      <point x="806" y="1172"/>
      <point x="761" y="1101"/>
      <point x="707" y="1041"/>
      <point x="662" y="983"/>
      <point x="632" y="923"/>
      <point x="632" y="888" type="qcurve" name="dh02"/>
      <point x="632" y="856"/>
      <point x="668" y="799"/>
      <point x="722" y="740"/>
      <point x="785" y="675"/>
      <point x="840" y="594"/>
      <point x="876" y="493"/>
      <point x="876" y="427" type="qcurve" name="sh01"/>
      <point x="876" y="325"/>
      <point x="809" y="157"/>
      <point x="683" y="36"/>
      <point x="502" y="-30"/>
      <point x="389" y="-30" type="qcurve" name="ab02"/>
      <point x="404" y="82" type="line" name="sv01"/>
      <point x="449" y="82"/>
      <point x="539" y="113"/>
      <point x="611" y="179"/>
      <point x="656" y="282"/>
      <point x="656" y="354" type="qcurve" name="sh02"/>
      <point x="656" y="398"/>
      <point x="633" y="472"/>
      <point x="599" y="541"/>
      <point x="560" y="608"/>
      <point x="525" y="679"/>
      <point x="503" y="760"/>
      <point x="503" y="808" type="qcurve" name="dh01"/>
      <point x="503" y="855"/>
      <point x="525" y="941"/>
      <point x="560" y="1021"/>
      <point x="599" y="1100"/>
      <point x="633" y="1182"/>
      <point x="656" y="1268"/>
      <point x="656" y="1316" type="qcurve" name="dh03"/>
      <point x="656" y="1365"/>
      <point x="620" y="1434"/>
      <point x="583" y="1434" type="qcurve" name="dv01"/>
      <point x="554" y="1434"/>
      <point x="509" y="1399"/>
      <point x="471" y="1310"/>
      <point x="440" y="1158"/>
      <point x="424" y="1041" type="qcurve"/>
      <point x="287" y="0" type="line" name="ab01"/>
      <point x="75" y="0" type="line"/>
    </contour>
  </outline>
</glyph>
<glyph name="ae" format="2">
  <advance width="1200"/>
  <unicode hex="00E6"/>
  <outline>
    <contour>
      <point x="875" y="82" type="qcurve"/>
      <point x="905" y="82"/>
      <point x="957" y="109"/>
      <point x="1002" y="152"/>
      <point x="1040" y="206"/>
      <point x="1057" y="234" type="qcurve"/>
      <point x="1142" y="122" type="line"/>
      <point x="1115" y="90"/>
      <point x="1050" y="34"/>
      <point x="974" y="-7"/>
      <point x="886" y="-30"/>
      <point x="837" y="-30" type="qcurve"/>
      <point x="786" y="-30"/>
      <point x="705" y="-3"/>
      <point x="642" y="48"/>
      <point x="594" y="121"/>
      <point x="576" y="167" type="qcurve"/>
      <point x="540" y="111"/>
      <point x="473" y="35"/>
      <point x="405" y="-11"/>
      <point x="332" y="-30"/>
      <point x="290" y="-30" type="qcurve"/>
      <point x="242" y="-30"/>
      <point x="165" y="4"/>
      <point x="113" y="65"/>
      <point x="84" y="152"/>
      <point x="84" y="205" type="qcurve"/>
      <point x="84" y="295"/>
      <point x="149" y="432"/>
      <point x="272" y="528"/>
      <point x="451" y="587"/>
      <point x="565" y="599" type="qcurve"/>
      <point x="581" y="718" type="line"/>
      <point x="582" y="726"/>
      <point x="584" y="749"/>
      <point x="584" y="760" type="qcurve"/>
      <point x="584" y="797"/>
      <point x="564" y="848"/>
      <point x="534" y="879"/>
      <point x="497" y="892"/>
      <point x="481" y="892" type="qcurve"/>
      <point x="464" y="892"/>
      <point x="413" y="872"/>
      <point x="354" y="833"/>
      <point x="293" y="777"/>
      <point x="264" y="740" type="qcurve"/>
      <point x="179" y="852" type="line"/>
      <point x="256" y="922"/>
      <point x="432" y="1004"/>
      <point x="518" y="1004" type="qcurve"/>
      <point x="589" y="1004"/>
      <point x="696" y="950"/>
      <point x="734" y="893" type="qcurve"/>
      <point x="789" y="947"/>
      <point x="907" y="1004"/>
      <point x="982" y="1004" type="qcurve"/>
      <point x="1028" y="1004"/>
      <point x="1117" y="964"/>
      <point x="1186" y="875"/>
      <point x="1228" y="734"/>
      <point x="1228" y="633" type="qcurve"/>
      <point x="1228" y="601"/>
      <point x="1223" y="529"/>
      <point x="1217" y="487" type="qcurve"/>
      <point x="755" y="487" type="line"/>
      <point x="750" y="445"/>
      <point x="745" y="372"/>
      <point x="745" y="340" type="qcurve"/>
      <point x="745" y="266"/>
      <point x="767" y="167"/>
      <point x="803" y="107"/>
      <point x="849" y="82"/>
    </contour>
    <contour>
      <point x="551" y="497" type="line"/>
      <point x="498" y="490"/>
      <point x="407" y="442"/>
      <point x="341" y="365"/>
      <point x="303" y="262"/>
      <point x="303" y="199" type="qcurve"/>
      <point x="303" y="142"/>
      <point x="337" y="82"/>
      <point x="367" y="82" type="qcurve"/>
      <point x="394" y="82"/>
      <point x="437" y="102"/>
      <point x="473" y="134"/>
      <point x="500" y="175"/>
      <point x="512" y="197" type="qcurve"/>
    </contour>
    <contour>
      <point x="959" y="892" type="qcurve"/>
      <point x="929" y="892"/>
      <point x="869" y="855"/>
      <point x="818" y="781"/>
      <point x="779" y="671"/>
      <point x="769" y="599" type="qcurve"/>
      <point x="1051" y="599" type="line"/>
      <point x="1055" y="631"/>
      <point x="1059" y="686"/>
      <point x="1059" y="710" type="qcurve"/>
      <point x="1059" y="806"/>
      <point x="1003" y="892"/>
    </contour>
  </outline>
</glyph>
<glyph name="ccedilla" format="2">
  <advance width="768"/>
  <unicode hex="00E7"/>
  <outline>
    <contour>
      <point x="734" y="740" type="line" name="iv01"/>
      <point x="722" y="767"/>
      <point x="692" y="821"/>
      <point x="652" y="865"/>
      <point x="601" y="892"/>
      <point x="568" y="892" type="qcurve" name="sh02"/>
      <point x="536" y="892"/>
      <point x="474" y="849"/>
      <point x="420" y="773"/>
      <point x="375" y="671"/>
      <point x="343" y="552"/>
      <point x="325" y="422"/>
      <point x="325" y="357" type="qcurve" name="sh04"/>
      <point x="325" y="227"/>
      <point x="399" y="82"/>
      <point x="461" y="82" type="qcurve"/>
      <point x="488" y="82"/>
      <point x="538" y="109"/>
      <point x="582" y="152"/>
      <point x="620" y="207"/>
      <point x="637" y="235" type="qcurve" name="iv02"/>
      <point x="722" y="122" type="line"/>
      <point x="695" y="90"/>
      <point x="636" y="34"/>
      <point x="565" y="-7"/>
      <point x="521" y="-18" type="qcurve"/>
      <point x="497" y="-24"/>
      <point x="470" y="-28" type="qcurve"/>
      <point x="459" y="-72" type="line"/>
      <point x="475" y="-75"/>
      <point x="509" y="-97"/>
      <point x="537" y="-137"/>
      <point x="556" y="-195"/>
      <point x="556" y="-232" type="qcurve" name="sh01"/>
      <point x="556" y="-295"/>
      <point x="515" y="-391"/>
      <point x="449" y="-456"/>
      <point x="367" y="-490"/>
      <point x="326" y="-490" type="qcurve" name="sh05"/>
      <point x="290" y="-490"/>
      <point x="233" y="-465"/>
      <point x="191" y="-428"/>
      <point x="164" y="-386"/>
      <point x="157" y="-368" type="qcurve"/>
      <point x="231" y="-270" type="line" name="ih01"/>
      <point x="244" y="-315"/>
      <point x="283" y="-368"/>
      <point x="311" y="-368" type="qcurve" name="sh06"/>
      <point x="334" y="-368"/>
      <point x="370" y="-348"/>
      <point x="394" y="-314"/>
      <point x="407" y="-268"/>
      <point x="407" y="-242" type="qcurve" name="ah01"/>
      <point x="407" y="-216"/>
      <point x="393" y="-169"/>
      <point x="367" y="-134"/>
      <point x="330" y="-113"/>
      <point x="307" y="-113" type="qcurve" name="ih02"/>
      <point x="334" y="-18" type="line" name="sh07"/>
      <point x="311" y="-11"/>
      <point x="289" y="0" type="qcurve"/>
      <point x="230" y="29"/>
      <point x="149" y="136"/>
      <point x="106" y="286"/>
      <point x="106" y="377" type="qcurve" name="sh03"/>
      <point x="106" y="462"/>
      <point x="137" y="622"/>
      <point x="196" y="761"/>
      <point x="278" y="876"/>
      <point x="380" y="959"/>
      <point x="497" y="1004"/>
      <point x="560" y="1004" type="qcurve" name="sh08"/>
      <point x="614" y="1004"/>
      <point x="695" y="980"/>
      <point x="757" y="938"/>
      <point x="801" y="883"/>
      <point x="818" y="852" type="qcurve"/>
    </contour>
  </outline>
</glyph>
<glyph name="eth" format="2">
  <advance width="840"/>
  <unicode hex="00F0"/>
  <outline>
    <contour>
      <point x="521" y="760" type="qcurve"/>
      <point x="473" y="760"/>
      <point x="394" y="677"/>
      <point x="336" y="547"/>
      <point x="304" y="389"/>
      <point x="304" y="315" type="qcurve"/>
      <point x="304" y="263"/>
      <point x="321" y="177"/>
      <point x="353" y="116"/>
      <point x="401" y="82"/>
      <point x="431" y="82" type="qcurve"/>
      <point x="478" y="82"/>
      <point x="559" y="164"/>
      <point x="617" y="294"/>
      <point x="651" y="456"/>
      <point x="651" y="537" type="qcurve"/>
      <point x="651" y="581"/>
      <point x="635" y="662"/>
      <point x="603" y="723"/>
      <point x="554" y="760"/>
    </contour>
    <contour>
      <point x="398" y="-30" type="qcurve"/>
      <point x="335" y="-30"/>
      <point x="223" y="19"/>
      <point x="140" y="113"/>
      <point x="92" y="249"/>
      <point x="92" y="336" type="qcurve"/>
      <point x="92" y="412"/>
      <point x="125" y="550"/>
      <point x="183" y="669"/>
      <point x="263" y="766"/>
      <point x="358" y="835"/>
      <point x="463" y="872"/>
      <point x="517" y="872" type="qcurve"/>
      <point x="541" y="872"/>
      <point x="593" y="862"/>
      <point x="645" y="843"/>
      <point x="692" y="814"/>
      <point x="709" y="796" type="qcurve"/>
      <point x="713" y="835"/>
      <point x="719" y="903"/>
      <point x="719" y="935" type="qcurve"/>
      <point x="719" y="986"/>
      <point x="703" y="1071"/>
      <point x="684" y="1109" type="qcurve"/>
      <point x="545" y="974" type="line"/>
      <point x="494" y="1077" type="line"/>
      <point x="632" y="1212" type="line"/>
      <point x="565" y="1351" type="line"/>
      <point x="681" y="1464" type="line"/>
      <point x="749" y="1326" type="line"/>
      <point x="892" y="1464" type="line"/>
      <point x="943" y="1361" type="line"/>
      <point x="801" y="1223" type="line"/>
      <point x="821" y="1187"/>
      <point x="852" y="1088"/>
      <point x="874" y="973"/>
      <point x="885" y="844"/>
      <point x="885" y="777" type="qcurve"/>
      <point x="885" y="683"/>
      <point x="855" y="490"/>
      <point x="798" y="311"/>
      <point x="714" y="154"/>
      <point x="606" y="37"/>
      <point x="474" y="-30"/>
    </contour>
  </outline>
</glyph>
<glyph name="divide" format="2">
  <advance width="864"/>
  <unicode hex="00F7"/>
  <outline>
    <contour>
      <point x="164" y="593" type="line" name="hr00"/>
      <point x="857" y="593" type="line" name="dv02"/>
      <point x="829" y="381" type="line" name="dv01"/>
      <point x="136" y="381" type="line"/>
    </contour>
    <contour>
      <point x="556" y="116" type="qcurve" name="dh02"/>
      <point x="556" y="86" name="hr01"/>
      <point x="539" y="32"/>
      <point x="509" y="-7"/>
      <point x="469" y="-30"/>
      <point x="446" y="-30" type="qcurve" name="ab01"/>
      <point x="424" y="-30"/>
      <point x="383" y="-7"/>
      <point x="354" y="32"/>
      <point x="337" y="86"/>
      <point x="337" y="116" type="qcurve" name="dh01"/>
      <point x="337" y="146"/>
      <point x="354" y="200"/>
      <point x="383" y="239"/>
      <point x="424" y="262"/>
      <point x="446" y="262" type="qcurve" name="sv01"/>
      <point x="469" y="262"/>
      <point x="509" y="239"/>
      <point x="539" y="200"/>
      <point x="556" y="146"/>
    </contour>
    <contour>
      <point x="654" y="858" type="qcurve" name="sh01"/>
      <point x="654" y="828"/>
      <point x="637" y="774"/>
      <point x="608" y="735"/>
      <point x="567" y="712"/>
      <point x="545" y="712" type="qcurve" name="sv02"/>
      <point x="522" y="712"/>
      <point x="482" y="735"/>
      <point x="452" y="774"/>
      <point x="435" y="828"/>
      <point x="435" y="858" type="qcurve" name="ih01"/>
      <point x="435" y="888"/>
      <point x="452" y="942"/>
      <point x="482" y="981"/>
      <point x="522" y="1004"/>
      <point x="545" y="1004" type="qcurve" name="at01"/>
      <point x="567" y="1004"/>
      <point x="608" y="981"/>
      <point x="637" y="942"/>
      <point x="654" y="888"/>
    </contour>
  </outline>
</glyph>
<glyph name="oslash" format="2">
  <advance width="840"/>
  <unicode hex="00F8"/>
  <outline>
    <contour>
      <point x="553" y="1004" type="qcurve"/>
      <point x="608" y="1004"/>
      <point x="653" y="989" type="qcurve"/>
      <point x="704" y="1099" type="line"/>
      <point x="821" y="1069" type="line"/>
      <point x="755" y="928" type="line"/>
      <point x="812" y="875"/>
      <point x="871" y="707"/>
      <point x="871" y="600" type="qcurve"/>
      <point x="871" y="470"/>
      <point x="802" y="241"/>
      <point x="680" y="70"/>
      <point x="513" y="-30"/>
      <point x="416" y="-30" type="qcurve"/>
      <point x="388" y="-30"/>
      <point x="338" y="-22"/>
      <point x="315" y="-14" type="qcurve"/>
      <point x="263" y="-125" type="line"/>
      <point x="147" y="-95" type="line"/>
      <point x="213" y="46" type="line"/>
      <point x="157" y="100"/>
      <point x="98" y="268"/>
      <point x="98" y="375" type="qcurve"/>
      <point x="98" y="461"/>
      <point x="130" y="622"/>
      <point x="188" y="761"/>
      <point x="270" y="876"/>
      <point x="371" y="959"/>
      <point x="488" y="1004"/>
    </contour>
    <contour>
      <point x="431" y="82" type="qcurve"/>
      <point x="465" y="82"/>
      <point x="524" y="132"/>
      <point x="574" y="216"/>
      <point x="612" y="329"/>
      <point x="638" y="456"/>
      <point x="652" y="589"/>
      <point x="652" y="651" type="qcurve"/>
      <point x="652" y="665"/>
      <point x="651" y="691"/>
      <point x="650" y="703" type="qcurve"/>
      <point x="371" y="105" type="line"/>
      <point x="396" y="82"/>
    </contour>
    <contour>
      <point x="538" y="892" type="qcurve"/>
      <point x="503" y="892"/>
      <point x="444" y="842"/>
      <point x="395" y="757"/>
      <point x="357" y="644"/>
      <point x="331" y="517"/>
      <point x="317" y="383"/>
      <point x="317" y="321" type="qcurve"/>
      <point x="317" y="308"/>
      <point x="317" y="284"/>
      <point x="318" y="272" type="qcurve"/>
      <point x="597" y="869" type="line"/>
      <point x="572" y="892"/>
    </contour>
  </outline>
</glyph>
<glyph name="aogonek" format="2">
  <advance width="840"/>
  <unicode hex="0105"/>
  <anchor x="450" y="1100" name="AccentDefault"/>
  <outline>
    <contour>
      <point x="794" y="-407" type="line"/>
      <point x="758" y="-428"/>
      <point x="701" y="-450"/>
      <point x="668" y="-450" type="qcurve"/>
      <point x="628" y="-450"/>
      <point x="572" y="-423"/>
      <point x="536" y="-376"/>
      <point x="518" y="-315"/>
      <point x="518" y="-280" type="qcurve"/>
      <point x="518" y="-198"/>
      <point x="596" y="-69"/>
      <point x="664" y="-9" type="qcurve"/>
      <point x="635" y="2"/>
      <point x="594" y="47"/>
      <point x="581" y="82" type="qcurve"/>
      <point x="559" y="60"/>
      <point x="506" y="20"/>
      <point x="444" y="-11"/>
      <point x="372" y="-30"/>
      <point x="330" y="-30" type="qcurve"/>
      <point x="281" y="-30"/>
      <point x="194" y="0"/>
      <point x="128" y="58"/>
      <point x="90" y="142"/>
      <point x="90" y="196" type="qcurve"/>
      <point x="90" y="295"/>
      <point x="173" y="442"/>
      <point x="319" y="541"/>
      <point x="515" y="594"/>
      <point x="626" y="599" type="qcurve"/>
      <point x="635" y="668" type="line"/>
      <point x="640" y="699"/>
      <point x="640" y="728" type="qcurve"/>
      <point x="640" y="765"/>
      <point x="619" y="826"/>
      <point x="581" y="869"/>
      <point x="529" y="892"/>
      <point x="499" y="892" type="qcurve"/>
      <point x="478" y="892"/>
      <point x="425" y="875"/>
      <point x="367" y="838"/>
      <point x="303" y="780"/>
      <point x="272" y="740" type="qcurve"/>
      <point x="188" y="852" type="line"/>
      <point x="226" y="888"/>
      <point x="309" y="944"/>
      <point x="397" y="983"/>
      <point x="486" y="1004"/>
      <point x="529" y="1004" type="qcurve"/>
      <point x="585" y="1004"/>
      <point x="698" y="961"/>
      <point x="788" y="877"/>
      <point x="844" y="755"/>
      <point x="844" y="676" type="qcurve"/>
      <point x="844" y="643"/>
      <point x="839" y="609" type="qcurve"/>
      <point x="779" y="150" type="line"/>
      <point x="778" y="145"/>
      <point x="777" y="136"/>
      <point x="777" y="131" type="qcurve"/>
      <point x="777" y="82"/>
      <point x="824" y="82" type="qcurve"/>
      <point x="809" y="-30" type="line"/>
      <point x="798" y="-30"/>
      <point x="778" y="-30"/>
      <point x="768" y="-29" type="qcurve"/>
      <point x="741" y="-49"/>
      <point x="695" y="-92"/>
      <point x="660" y="-142"/>
      <point x="640" y="-197"/>
      <point x="640" y="-227" type="qcurve"/>
      <point x="640" y="-265"/>
      <point x="677" y="-308"/>
      <point x="701" y="-308" type="qcurve"/>
      <point x="724" y="-308"/>
      <point x="761" y="-284"/>
      <point x="776" y="-270" type="qcurve"/>
    </contour>
    <contour>
      <point x="613" y="497" type="line"/>
      <point x="563" y="491"/>
      <point x="455" y="455"/>
      <point x="366" y="386"/>
      <point x="309" y="281"/>
      <point x="309" y="207" type="qcurve"/>
      <point x="309" y="170"/>
      <point x="327" y="122"/>
      <point x="356" y="93"/>
      <point x="390" y="82"/>
      <point x="406" y="82" type="qcurve"/>
      <point x="427" y="82"/>
      <point x="474" y="102"/>
      <point x="520" y="135"/>
      <point x="560" y="177"/>
      <point x="574" y="199" type="qcurve"/>
    </contour>
  </outline>
</glyph>
<glyph name="dcroat" format="2">
  <advance width="840"/>
  <unicode hex="0111"/>
  <outline>
    <contour>
      <point x="526" y="1004" type="qcurve"/>
      <point x="548" y="1004"/>
      <point x="595" y="988"/>
      <point x="637" y="966"/>
      <point x="668" y="941"/>
      <point x="677" y="931" type="qcurve"/>
      <point x="705" y="1150" type="line"/>
      <point x="548" y="1160" type="line"/>
      <point x="560" y="1272" type="line"/>
      <point x="722" y="1272" type="line"/>
      <point x="747" y="1464" type="line"/>
      <point x="917" y="1494" type="line"/>
      <point x="962" y="1494" type="line"/>
      <point x="933" y="1272" type="line"/>
      <point x="1011" y="1272" type="line"/>
      <point x="993" y="1133" type="line"/>
      <point x="915" y="1137" type="line"/>
      <point x="785" y="156" type="line"/>
      <point x="785" y="149"/>
      <point x="784" y="136"/>
      <point x="784" y="131" type="qcurve"/>
      <point x="784" y="107"/>
      <point x="803" y="82"/>
      <point x="830" y="82" type="qcurve"/>
      <point x="815" y="-30" type="line"/>
      <point x="716" y="-30"/>
      <point x="606" y="19"/>
      <point x="587" y="82" type="qcurve"/>
      <point x="569" y="58"/>
      <point x="519" y="17"/>
      <point x="466" y="-13"/>
      <point x="412" y="-30"/>
      <point x="388" y="-30" type="qcurve"/>
      <point x="325" y="-30"/>
      <point x="218" y="24"/>
      <point x="141" y="126"/>
      <point x="98" y="275"/>
      <point x="98" y="370" type="qcurve"/>
      <point x="98" y="450"/>
      <point x="127" y="606"/>
      <point x="181" y="747"/>
      <point x="257" y="867"/>
      <point x="353" y="955"/>
      <point x="464" y="1004"/>
    </contour>
    <contour>
      <point x="662" y="821" type="line"/>
      <point x="647" y="852"/>
      <point x="592" y="892"/>
      <point x="547" y="892" type="qcurve"/>
      <point x="515" y="892"/>
      <point x="455" y="846"/>
      <point x="404" y="767"/>
      <point x="362" y="661"/>
      <point x="333" y="541"/>
      <point x="317" y="412"/>
      <point x="317" y="350" type="qcurve"/>
      <point x="317" y="283"/>
      <point x="336" y="183"/>
      <point x="369" y="116"/>
      <point x="414" y="82"/>
      <point x="440" y="82" type="qcurve"/>
      <point x="485" y="82"/>
      <point x="550" y="123"/>
      <point x="573" y="152" type="qcurve"/>
    </contour>
  </outline>
</glyph>
<glyph name="hbar" format="2">
  <advance width="840"/>
  <unicode hex="0127"/>
  <outline>
    <contour>
      <point x="269" y="1464" type="line"/>
      <point x="439" y="1494" type="line"/>
      <point x="484" y="1494" type="line"/>
      <point x="455" y="1272" type="line"/>
      <point x="604" y="1272" type="line"/>
      <point x="585" y="1133" type="line"/>
      <point x="437" y="1142" type="line"/>
      <point x="409" y="925" type="line"/>
      <point x="454" y="963"/>
      <point x="561" y="1004"/>
      <point x="620" y="1004" type="qcurve"/>
      <point x="674" y="1004"/>
      <point x="760" y="970"/>
      <point x="821" y="904"/>
      <point x="853" y="809"/>
      <point x="853" y="748" type="qcurve"/>
      <point x="853" y="716"/>
      <point x="848" y="680" type="qcurve"/>
      <point x="782" y="172" type="line"/>
      <point x="780" y="161"/>
      <point x="777" y="138"/>
      <point x="777" y="130" type="qcurve"/>
      <point x="777" y="107"/>
      <point x="798" y="82"/>
      <point x="824" y="82" type="qcurve"/>
      <point x="809" y="-30" type="line"/>
      <point x="767" y="-30"/>
      <point x="683" y="-7"/>
      <point x="615" y="42"/>
      <point x="573" y="121"/>
      <point x="573" y="177" type="qcurve"/>
      <point x="573" y="193"/>
      <point x="577" y="227"/>
      <point x="580" y="247" type="qcurve"/>
      <point x="643" y="724" type="line"/>
      <point x="645" y="740"/>
      <point x="645" y="755" type="qcurve"/>
      <point x="645" y="787"/>
      <point x="629" y="838"/>
      <point x="602" y="873"/>
      <point x="568" y="892"/>
      <point x="551" y="892" type="qcurve"/>
      <point x="526" y="892"/>
      <point x="480" y="875"/>
      <point x="439" y="846"/>
      <point x="404" y="811"/>
      <point x="391" y="793" type="qcurve"/>
      <point x="287" y="0" type="line"/>
      <point x="75" y="0" type="line"/>
      <point x="227" y="1154" type="line"/>
      <point x="134" y="1160" type="line"/>
      <point x="149" y="1272" type="line"/>
      <point x="243" y="1272" type="line"/>
    </contour>
  </outline>
</glyph>
<glyph name="dotlessi" format="2">
  <advance width="432"/>
  <unicode hex="0131"/>
  <outline>
    <contour>
      <point x="239" y="974" type="line"/>
      <point x="410" y="1004" type="line"/>
      <point x="455" y="1004" type="line"/>
      <point x="322" y="0" type="line"/>
      <point x="110" y="0" type="line"/>
    </contour>
  </outline>
</glyph>
<glyph name="Lslash" format="2">
  <advance width="816"/>
  <unicode hex="0141"/>
  <guideline x="0" y="396" angle="30"/>
  <guideline x="0" y="587" angle="30"/>
  <guideline x="457" y="0" angle="90"/>
  <guideline x="40" y="0" angle="90"/>
  <guideline x="543" y="0" angle="100"/>
  <outline>
    <contour>
      <point x="287" y="1434" type="line" name="hr00"/>
      <point x="525" y="1464" type="line" name="at01"/>
      <point x="455" y="937" type="line" name="iv01"/>
      <point x="542" y="1004" type="line" name="iv02"/>
      <point x="542" y="813" type="line"/>
      <point x="427" y="724" type="line"/>
      <point x="347" y="122" type="line"/>
      <point x="781" y="162" type="line"/>
      <point x="760" y="0" type="line" name="ab01"/>
      <point x="98" y="0" type="line"/>
      <point x="167" y="524" type="line" name="iv03"/>
      <point x="80" y="457" type="line" name="iv04"/>
      <point x="80" y="648" type="line"/>
      <point x="194" y="736" type="line"/>
    </contour>
  </outline>
</glyph>
<glyph name="eng" format="2">
  <advance width="840"/>
  <unicode hex="014B"/>
  <outline>
    <contour>
      <point x="200" y="944" type="line"/>
      <point x="370" y="974" type="line"/>
      <point x="415" y="974" type="line"/>
      <point x="404" y="892" type="line"/>
      <point x="427" y="914"/>
      <point x="480" y="955"/>
      <point x="538" y="986"/>
      <point x="598" y="1004"/>
      <point x="627" y="1004" type="qcurve"/>
      <point x="680" y="1004"/>
      <point x="764" y="970"/>
      <point x="823" y="906"/>
      <point x="854" y="813"/>
      <point x="854" y="753" type="qcurve"/>
      <point x="854" y="736"/>
      <point x="851" y="700"/>
      <point x="848" y="680" type="qcurve"/>
      <point x="749" y="-76" type="line"/>
      <point x="732" y="-199"/>
      <point x="680" y="-359"/>
      <point x="595" y="-453"/>
      <point x="470" y="-490"/>
      <point x="381" y="-490" type="qcurve"/>
      <point x="396" y="-378" type="line"/>
      <point x="427" y="-378"/>
      <point x="468" y="-363"/>
      <point x="496" y="-322"/>
      <point x="515" y="-249"/>
      <point x="522" y="-191" type="qcurve"/>
      <point x="643" y="724" type="line"/>
      <point x="644" y="738"/>
      <point x="647" y="764"/>
      <point x="647" y="776" type="qcurve"/>
      <point x="647" y="831"/>
      <point x="602" y="892"/>
      <point x="560" y="892" type="qcurve"/>
      <point x="536" y="892"/>
      <point x="485" y="868"/>
      <point x="439" y="832"/>
      <point x="401" y="789"/>
      <point x="388" y="770" type="qcurve"/>
      <point x="287" y="0" type="line"/>
      <point x="75" y="0" type="line"/>
    </contour>
  </outline>
</glyph>
<glyph name="OE" format="2">
  <advance width="1416"/>
  <unicode hex="0152"/>
  <outline>
    <contour>
      <point x="598" y="-30" type="qcurve"/>
      <point x="505" y="-30"/>
      <point x="338" y="53"/>
      <point x="212" y="209"/>
      <point x="138" y="433"/>
      <point x="138" y="574" type="qcurve"/>
      <point x="138" y="691"/>
      <point x="187" y="915"/>
      <point x="275" y="1113"/>
      <point x="398" y="1278"/>
      <point x="543" y="1397"/>
      <point x="709" y="1464"/>
      <point x="796" y="1464" type="qcurve"/>
      <point x="835" y="1464"/>
      <point x="915" y="1448"/>
      <point x="951" y="1434" type="qcurve"/>
      <point x="1529" y="1434" type="line"/>
      <point x="1509" y="1272" type="line"/>
      <point x="1107" y="1312" type="line"/>
      <point x="1047" y="859" type="line"/>
      <point x="1377" y="859" type="line"/>
      <point x="1358" y="717" type="line"/>
      <point x="1028" y="717" type="line"/>
      <point x="950" y="122" type="line"/>
      <point x="1383" y="162" type="line"/>
      <point x="1363" y="0" type="line"/>
      <point x="762" y="0" type="line"/>
      <point x="722" y="-15"/>
      <point x="638" y="-30"/>
    </contour>
    <contour>
      <point x="777" y="1322" type="qcurve"/>
      <point x="722" y="1322"/>
      <point x="619" y="1261"/>
      <point x="529" y="1153"/>
      <point x="455" y="1003"/>
      <point x="401" y="826"/>
      <point x="372" y="627"/>
      <point x="372" y="524" type="qcurve"/>
      <point x="372" y="422"/>
      <point x="408" y="267"/>
      <point x="473" y="164"/>
      <point x="563" y="112"/>
      <point x="617" y="112" type="qcurve"/>
      <point x="671" y="112"/>
      <point x="718" y="137" type="qcurve"/>
      <point x="872" y="1301" type="line"/>
      <point x="849" y="1314"/>
      <point x="802" y="1322"/>
    </contour>
  </outline>
</glyph>
<glyph name="scedilla" format="2">
  <advance width="648"/>
  <unicode hex="015F"/>
  <outline>
    <contour>
      <point x="125" y="234" type="line" name="iv01"/>
      <point x="139" y="203"/>
      <point x="177" y="148"/>
      <point x="223" y="106"/>
      <point x="274" y="82"/>
      <point x="301" y="82" type="qcurve"/>
      <point x="330" y="82"/>
      <point x="383" y="106"/>
      <point x="424" y="151"/>
      <point x="447" y="215"/>
      <point x="447" y="254" type="qcurve" name="dh03"/>
      <point x="447" y="352" name="hr00"/>
      <point x="329" y="413" type="qcurve"/>
      <point x="299" y="429"/>
      <point x="240" y="481"/>
      <point x="195" y="552"/>
      <point x="168" y="640"/>
      <point x="168" y="692" type="qcurve" name="dh01"/>
      <point x="168" y="768"/>
      <point x="218" y="884" name="hr01"/>
      <point x="298" y="963" name="hr02"/>
      <point x="399" y="1004"/>
      <point x="450" y="1004" type="qcurve" name="at01"/>
      <point x="495" y="1004"/>
      <point x="568" y="983"/>
      <point x="631" y="944"/>
      <point x="686" y="888"/>
      <point x="714" y="852" type="qcurve"/>
      <point x="630" y="740" type="line" name="ih01"/>
      <point x="619" y="771"/>
      <point x="585" y="827"/>
      <point x="543" y="868"/>
      <point x="494" y="892"/>
      <point x="467" y="892" type="qcurve" name="sv01"/>
      <point x="445" y="892"/>
      <point x="404" y="872"/>
      <point x="374" y="833"/>
      <point x="357" y="778"/>
      <point x="357" y="744" type="qcurve" name="dh02"/>
      <point x="357" y="710"/>
      <point x="374" y="662"/>
      <point x="400" y="628"/>
      <point x="432" y="606"/>
      <point x="448" y="598" type="qcurve"/>
      <point x="548" y="547"/>
      <point x="644" y="403"/>
      <point x="644" y="309" type="qcurve" name="dh04"/>
      <point x="644" y="237"/>
      <point x="599" y="122"/>
      <point x="528" y="38"/>
      <point x="439" y="-13"/>
      <point x="393" y="-22" type="qcurve"/>
      <point x="381" y="-72" type="line"/>
      <point x="397" y="-75"/>
      <point x="431" y="-98"/>
      <point x="459" y="-137"/>
      <point x="478" y="-195"/>
      <point x="478" y="-232" type="qcurve" name="sh01"/>
      <point x="478" y="-295"/>
      <point x="437" y="-391"/>
      <point x="371" y="-456"/>
      <point x="289" y="-490"/>
      <point x="248" y="-490" type="qcurve" name="ab01"/>
      <point x="212" y="-490"/>
      <point x="155" y="-465"/>
      <point x="113" y="-428"/>
      <point x="86" y="-386"/>
      <point x="79" y="-368" type="qcurve"/>
      <point x="153" y="-270" type="line" name="iv02"/>
      <point x="166" y="-315"/>
      <point x="205" y="-368"/>
      <point x="233" y="-368" type="qcurve" name="sv02"/>
      <point x="256" y="-368"/>
      <point x="292" y="-348"/>
      <point x="316" y="-314"/>
      <point x="329" y="-268"/>
      <point x="329" y="-242" type="qcurve" name="ih02"/>
      <point x="329" y="-216"/>
      <point x="315" y="-169"/>
      <point x="289" y="-134"/>
      <point x="252" y="-113"/>
      <point x="229" y="-113" type="qcurve" name="ih03"/>
      <point x="254" y="-23" type="line"/>
      <point x="194" y="-9"/>
      <point x="85" y="65"/>
      <point x="41" y="122" type="qcurve"/>
    </contour>
  </outline>
</glyph>
<glyph name="tcommaaccent" format="2">
  <advance width="552"/>
  <unicode hex="0163"/>
  <guideline x="430" y="0" angle="90"/>
  <guideline x="487" y="0" angle="80"/>
  <outline>
    <contour>
      <point x="485" y="1004" type="line" name="hr00"/>
      <point x="619" y="1004" type="line"/>
      <point x="601" y="865" type="line"/>
      <point x="467" y="873" type="line" name="sh02"/>
      <point x="388" y="269" type="line" name="sh03"/>
      <point x="386" y="251"/>
      <point x="383" y="219"/>
      <point x="383" y="205" type="qcurve" name="dh02"/>
      <point x="383" y="142"/>
      <point x="436" y="82"/>
      <point x="497" y="82" type="qcurve"/>
      <point x="482" y="-30" type="line" name="ab01"/>
      <point x="449" y="-30"/>
      <point x="392" y="-27"/>
      <point x="368" y="-23" type="qcurve" name="ab02"/>
      <point x="357" y="-72" type="line"/>
      <point x="373" y="-75"/>
      <point x="407" y="-98"/>
      <point x="435" y="-137"/>
      <point x="454" y="-195"/>
      <point x="454" y="-232" type="qcurve" name="sh01"/>
      <point x="454" y="-295" name="hr01"/>
      <point x="413" y="-391"/>
      <point x="347" y="-456"/>
      <point x="265" y="-490"/>
      <point x="224" y="-490" type="qcurve" name="ab03"/>
      <point x="188" y="-490"/>
      <point x="131" y="-465"/>
      <point x="89" y="-428"/>
      <point x="62" y="-386"/>
      <point x="55" y="-368" type="qcurve"/>
      <point x="129" y="-270" type="line" name="iv01"/>
      <point x="142" y="-315"/>
      <point x="181" y="-368"/>
      <point x="209" y="-368" type="qcurve" name="sv01"/>
      <point x="232" y="-368"/>
      <point x="267" y="-348"/>
      <point x="290" y="-314"/>
      <point x="302" y="-268"/>
      <point x="302" y="-242" type="qcurve" name="ih01"/>
      <point x="302" y="-216"/>
      <point x="290" y="-169"/>
      <point x="265" y="-134"/>
      <point x="228" y="-113"/>
      <point x="205" y="-113" type="qcurve" name="ih02"/>
      <point x="243" y="21" type="line"/>
      <point x="203" y="49"/>
      <point x="176" y="142"/>
      <point x="176" y="203" type="qcurve" name="dh01"/>
      <point x="176" y="233"/>
      <point x="181" y="303"/>
      <point x="186" y="342" type="qcurve" name="sh04"/>
      <point x="258" y="885" type="line"/>
      <point x="157" y="892" type="line"/>
      <point x="172" y="1004" type="line" name="sh05"/>
      <point x="274" y="1004" type="line"/>
      <point x="311" y="1292" type="line" name="sh06"/>
      <point x="482" y="1322" type="line" name="av01"/>
      <point x="527" y="1322" type="line"/>
    </contour>
  </outline>
</glyph>
<glyph name="Tbar" format="2">
  <advance width="864"/>
  <unicode hex="0166"/>
  <guideline x="231" y="0" angle="90"/>
  <guideline x="648" y="0" angle="90"/>
  <outline>
    <contour>
      <point x="212" y="1434" type="line" name="at01"/>
      <point x="1031" y="1434" type="line"/>
      <point x="1010" y="1272" type="line"/>
      <point x="722" y="1312" type="line"/>
      <point x="662" y="859" type="line"/>
      <point x="841" y="859" type="line" name="dv02"/>
      <point x="822" y="717" type="line" name="dv01"/>
      <point x="644" y="717" type="line"/>
      <point x="549" y="0" type="line" name="ab01"/>
      <point x="315" y="0" type="line"/>
      <point x="410" y="717" type="line" name="sv01"/>
      <point x="234" y="717" type="line"/>
      <point x="254" y="859" type="line" name="sv02"/>
      <point x="428" y="859" type="line"/>
      <point x="488" y="1313" type="line" name="iv01"/>
      <point x="190" y="1272" type="line" name="iv02"/>
    </contour>
  </outline>
</glyph>
<glyph name="tbar" format="2">
  <advance width="552"/>
  <unicode hex="0167"/>
  <outline>
    <contour>
      <point x="121" y="609" type="line"/>
      <point x="221" y="609" type="line"/>
      <point x="258" y="885" type="line"/>
      <point x="157" y="892" type="line"/>
      <point x="172" y="1004" type="line"/>
      <point x="274" y="1004" type="line"/>
      <point x="311" y="1292" type="line"/>
      <point x="482" y="1322" type="line"/>
      <point x="527" y="1322" type="line"/>
      <point x="485" y="1004" type="line"/>
      <point x="619" y="1004" type="line"/>
      <point x="601" y="865" type="line"/>
      <point x="467" y="873" type="line"/>
      <point x="433" y="609" type="line"/>
      <point x="567" y="609" type="line"/>
      <point x="551" y="487" type="line"/>
      <point x="416" y="487" type="line"/>
      <point x="388" y="269" type="line"/>
      <point x="386" y="251"/>
      <point x="383" y="219"/>
      <point x="383" y="205" type="qcurve"/>
      <point x="383" y="142"/>
      <point x="436" y="82"/>
      <point x="497" y="82" type="qcurve"/>
      <point x="482" y="-30" type="line"/>
      <point x="392" y="-30"/>
      <point x="273" y="-3"/>
      <point x="203" y="54"/>
      <point x="176" y="142"/>
      <point x="176" y="203" type="qcurve"/>
      <point x="176" y="233"/>
      <point x="181" y="303"/>
      <point x="186" y="342" type="qcurve"/>
      <point x="205" y="487" type="line"/>
      <point x="104" y="487" type="line"/>
    </contour>
  </outline>
</glyph>
<glyph name="longs" format="2">
  <advance width="432"/>
  <unicode hex="017F"/>
  <outline>
    <contour>
      <point x="313" y="0" type="line"/>
      <point x="101" y="0" type="line"/>
      <point x="235" y="1012" type="line"/>
      <point x="248" y="1114"/>
      <point x="299" y="1281"/>
      <point x="391" y="1399"/>
      <point x="534" y="1464"/>
      <point x="641" y="1464" type="qcurve"/>
      <point x="626" y="1352" type="line"/>
      <point x="585" y="1352"/>
      <point x="528" y="1315"/>
      <point x="490" y="1252"/>
      <point x="467" y="1168"/>
      <point x="461" y="1120" type="qcurve"/>
    </contour>
  </outline>
</glyph>
<glyph name="uni0256" format="2">
  <advance width="840"/>
  <unicode hex="0256"/>
  <outline>
    <contour>
      <point x="962" y="1494" type="line" name="av01"/>
      <point x="740" y="-191" type="line" name="sh02"/>
      <point x="736" y="-222"/>
      <point x="731" y="-269"/>
      <point x="731" y="-288" type="qcurve" name="sh01"/>
      <point x="731" y="-316"/>
      <point x="744" y="-351"/>
      <point x="768" y="-371"/>
      <point x="799" y="-378"/>
      <point x="816" y="-378" type="qcurve"/>
      <point x="801" y="-490" type="line" name="ab01"/>
      <point x="735" y="-490"/>
      <point x="635" y="-466"/>
      <point x="567" y="-405"/>
      <point x="533" y="-302"/>
      <point x="533" y="-222" type="qcurve" name="ah01"/>
      <point x="533" y="-190"/>
      <point x="538" y="-118"/>
      <point x="543" y="-76" type="qcurve" name="sh03"/>
      <point x="560" y="50" type="line" name="ih01"/>
      <point x="524" y="17"/>
      <point x="433" y="-30"/>
      <point x="388" y="-30" type="qcurve" name="ab02"/>
      <point x="325" y="-30"/>
      <point x="218" y="24"/>
      <point x="141" y="126"/>
      <point x="98" y="275"/>
      <point x="98" y="370" type="qcurve" name="sh04"/>
      <point x="98" y="450"/>
      <point x="127" y="606"/>
      <point x="181" y="747"/>
      <point x="257" y="867"/>
      <point x="353" y="954"/>
      <point x="464" y="1004"/>
      <point x="526" y="1004" type="qcurve" name="sh05"/>
      <point x="548" y="1004"/>
      <point x="595" y="988"/>
      <point x="637" y="966"/>
      <point x="668" y="941"/>
      <point x="677" y="931" type="qcurve" name="ih02"/>
      <point x="747" y="1464" type="line"/>
      <point x="917" y="1494" type="line"/>
    </contour>
    <contour>
      <point x="662" y="821" type="line"/>
      <point x="647" y="852"/>
      <point x="592" y="892"/>
      <point x="547" y="892" type="qcurve" name="sh06"/>
      <point x="515" y="892"/>
      <point x="455" y="846"/>
      <point x="404" y="767"/>
      <point x="362" y="661"/>
      <point x="333" y="541"/>
      <point x="317" y="412"/>
      <point x="317" y="350" type="qcurve" name="sh07"/>
      <point x="317" y="283"/>
      <point x="336" y="183"/>
      <point x="370" y="116"/>
      <point x="414" y="82"/>
      <point x="440" y="82" type="qcurve" name="sv01"/>
      <point x="485" y="82"/>
      <point x="550" y="123"/>
      <point x="573" y="152" type="qcurve"/>
    </contour>
  </outline>
</glyph>
<glyph name="uni0259" format="2">
  <advance width="768"/>
  <unicode hex="0259"/>
  <outline>
    <contour>
      <point x="453" y="892" type="qcurve"/>
      <point x="423" y="892"/>
      <point x="371" y="865"/>
      <point x="325" y="822"/>
      <point x="286" y="767"/>
      <point x="269" y="739" type="qcurve"/>
      <point x="185" y="852" type="line"/>
      <point x="211" y="884"/>
      <point x="276" y="940"/>
      <point x="353" y="981"/>
      <point x="441" y="1004"/>
      <point x="491" y="1004" type="qcurve"/>
      <point x="565" y="1004"/>
      <point x="680" y="946"/>
      <point x="759" y="840"/>
      <point x="800" y="692"/>
      <point x="800" y="602" type="qcurve"/>
      <point x="800" y="516"/>
      <point x="769" y="355"/>
      <point x="711" y="215"/>
      <point x="629" y="99"/>
      <point x="528" y="16"/>
      <point x="410" y="-30"/>
      <point x="346" y="-30" type="qcurve"/>
      <point x="300" y="-30"/>
      <point x="211" y="10"/>
      <point x="141" y="99"/>
      <point x="98" y="240"/>
      <point x="98" y="342" type="qcurve"/>
      <point x="98" y="375"/>
      <point x="104" y="447"/>
      <point x="109" y="487" type="qcurve"/>
      <point x="578" y="487" type="line"/>
      <point x="584" y="529"/>
      <point x="589" y="601"/>
      <point x="589" y="633" type="qcurve"/>
      <point x="589" y="706"/>
      <point x="566" y="805"/>
      <point x="528" y="866"/>
      <point x="479" y="892"/>
    </contour>
    <contour>
      <point x="368" y="82" type="qcurve"/>
      <point x="399" y="82"/>
      <point x="458" y="119"/>
      <point x="509" y="193"/>
      <point x="551" y="303"/>
      <point x="563" y="375" type="qcurve"/>
      <point x="275" y="375" type="line"/>
      <point x="272" y="344"/>
      <point x="267" y="290"/>
      <point x="267" y="266" type="qcurve"/>
      <point x="267" y="169"/>
      <point x="325" y="82"/>
    </contour>
  </outline>
</glyph>
<glyph name="uni025B" format="2">
  <advance width="648"/>
  <unicode hex="025B"/>
  <guideline x="444" y="0" angle="80"/>
  <guideline x="430" y="0" angle="90"/>
  <guideline x="445" y="0" angle="90"/>
  <outline>
    <contour>
      <point x="268" y="551" type="qcurve" name="ih01"/>
      <point x="255" y="561"/>
      <point x="228" y="596"/>
      <point x="206" y="642"/>
      <point x="191" y="698"/>
      <point x="191" y="730" type="qcurve" name="sh01"/>
      <point x="191" y="803"/>
      <point x="245" y="907"/>
      <point x="329" y="973"/>
      <point x="427" y="1004" name="hr00"/>
      <point x="472" y="1004" type="qcurve" name="at01"/>
      <point x="520" y="1004"/>
      <point x="596" y="979"/>
      <point x="655" y="937"/>
      <point x="698" y="882"/>
      <point x="714" y="852" type="qcurve"/>
      <point x="629" y="740" type="line" name="iv01"/>
      <point x="617" y="773"/>
      <point x="587" y="828"/>
      <point x="551" y="869"/>
      <point x="510" y="892"/>
      <point x="489" y="892" type="qcurve" name="sv01"/>
      <point x="464" y="892"/>
      <point x="424" y="865"/>
      <point x="395" y="821"/>
      <point x="380" y="765"/>
      <point x="380" y="736" type="qcurve" name="sh02"/>
      <point x="380" y="711"/>
      <point x="395" y="662"/>
      <point x="428" y="623"/>
      <point x="483" y="599"/>
      <point x="524" y="599" type="qcurve" name="dv02"/>
      <point x="509" y="487" type="line" name="dv01"/>
      <point x="458" y="487"/>
      <point x="374" y="452"/>
      <point x="315" y="386"/>
      <point x="283" y="291"/>
      <point x="283" y="231" type="qcurve" name="dh02"/>
      <point x="283" y="195"/>
      <point x="301" y="140"/>
      <point x="331" y="102"/>
      <point x="371" y="82"/>
      <point x="392" y="82" type="qcurve" name="sv02"/>
      <point x="420" y="82"/>
      <point x="468" y="108"/>
      <point x="509" y="151"/>
      <point x="545" y="206"/>
      <point x="563" y="235" type="qcurve" name="iv02"/>
      <point x="647" y="122" type="line"/>
      <point x="623" y="92"/>
      <point x="563" y="37"/>
      <point x="493" y="-5"/>
      <point x="415" y="-30"/>
      <point x="374" y="-30" type="qcurve" name="ab01"/>
      <point x="309" y="-30"/>
      <point x="200" y="11"/>
      <point x="122" y="83"/>
      <point x="79" y="181"/>
      <point x="79" y="238" type="qcurve" name="dh01"/>
      <point x="79" y="305"/>
      <point x="113" y="410"/>
      <point x="167" y="487"/>
      <point x="235" y="538"/>
    </contour>
  </outline>
</glyph>
<glyph name="uni0260" format="2">
  <advance width="840"/>
  <unicode hex="0260"/>
  <guideline x="0" y="944" angle="0"/>
  <guideline x="0" y="921" angle="0"/>
  <guideline x="174" y="0" angle="80"/>
  <outline>
    <contour>
      <point x="524" y="1004" type="qcurve" name="at01"/>
      <point x="556" y="1004"/>
      <point x="607" y="997"/>
      <point x="646" y="987"/>
      <point x="674" y="977"/>
      <point x="682" y="974" type="qcurve"/>
      <point x="689" y="1029"/>
      <point x="751" y="1125"/>
      <point x="845" y="1194"/>
      <point x="965" y="1234"/>
      <point x="1029" y="1234" type="qcurve" name="av01"/>
      <point x="1014" y="1122" type="line"/>
      <point x="985" y="1122"/>
      <point x="944" y="1106"/>
      <point x="915" y="1068"/>
      <point x="897" y="1005"/>
      <point x="891" y="957" type="qcurve"/>
      <point x="771" y="49" type="line"/>
      <point x="754" y="-80"/>
      <point x="676" y="-271"/>
      <point x="563" y="-398"/>
      <point x="419" y="-460"/>
      <point x="337" y="-460" type="qcurve" name="ab01"/>
      <point x="113" y="-460" type="line"/>
      <point x="131" y="-328" type="line" name="sv01"/>
      <point x="347" y="-328" type="line"/>
      <point x="382" y="-328"/>
      <point x="443" y="-309"/>
      <point x="495" y="-248"/>
      <point x="535" y="-135"/>
      <point x="548" y="-40" type="qcurve"/>
      <point x="564" y="80" type="line" name="iv01"/>
      <point x="527" y="42"/>
      <point x="437" y="0"/>
      <point x="392" y="0" type="qcurve" name="ab02"/>
      <point x="328" y="0"/>
      <point x="221" y="47"/>
      <point x="142" y="140"/>
      <point x="98" y="280"/>
      <point x="98" y="373" type="qcurve" name="dh01"/>
      <point x="98" y="454"/>
      <point x="128" y="611"/>
      <point x="181" y="751"/>
      <point x="257" y="870"/>
      <point x="352" y="956"/>
      <point x="463" y="1004"/>
    </contour>
    <contour>
      <point x="578" y="182" type="qcurve"/>
      <point x="661" y="821" type="line"/>
      <point x="645" y="852"/>
      <point x="590" y="892"/>
      <point x="545" y="892" type="qcurve" name="sv03"/>
      <point x="514" y="892"/>
      <point x="455" y="848"/>
      <point x="404" y="771"/>
      <point x="363" y="667"/>
      <point x="334" y="549"/>
      <point x="317" y="421"/>
      <point x="317" y="358" type="qcurve" name="dh02"/>
      <point x="317" y="293"/>
      <point x="338" y="200"/>
      <point x="372" y="140"/>
      <point x="418" y="112"/>
      <point x="443" y="112" type="qcurve" name="sv02"/>
      <point x="489" y="112"/>
      <point x="554" y="153"/>
    </contour>
  </outline>
</glyph>
<glyph name="uni0265" format="2">
  <advance width="840"/>
  <unicode hex="0265"/>
  <outline>
    <contour>
      <point x="676" y="974" type="line"/>
      <point x="847" y="1004" type="line"/>
      <point x="892" y="1004" type="line"/>
      <point x="698" y="-460" type="line"/>
      <point x="527" y="-490" type="line"/>
      <point x="482" y="-490" type="line"/>
      <point x="554" y="49" type="line"/>
      <point x="509" y="11"/>
      <point x="401" y="-30"/>
      <point x="343" y="-30" type="qcurve"/>
      <point x="289" y="-30"/>
      <point x="203" y="4"/>
      <point x="142" y="70"/>
      <point x="110" y="165"/>
      <point x="110" y="226" type="qcurve"/>
      <point x="110" y="258"/>
      <point x="114" y="294" type="qcurve"/>
      <point x="181" y="802" type="line"/>
      <point x="182" y="813"/>
      <point x="185" y="836"/>
      <point x="185" y="844" type="qcurve"/>
      <point x="185" y="867"/>
      <point x="164" y="892"/>
      <point x="139" y="892" type="qcurve"/>
      <point x="154" y="1004" type="line"/>
      <point x="196" y="1004"/>
      <point x="280" y="981"/>
      <point x="347" y="932"/>
      <point x="389" y="853"/>
      <point x="389" y="797" type="qcurve"/>
      <point x="389" y="781"/>
      <point x="386" y="747"/>
      <point x="383" y="727" type="qcurve"/>
      <point x="320" y="250" type="line"/>
      <point x="317" y="233"/>
      <point x="317" y="219" type="qcurve"/>
      <point x="317" y="187"/>
      <point x="334" y="136"/>
      <point x="361" y="101"/>
      <point x="395" y="82"/>
      <point x="412" y="82" type="qcurve"/>
      <point x="449" y="82"/>
      <point x="515" y="119"/>
      <point x="541" y="145" type="qcurve"/>
      <point x="549" y="153"/>
      <point x="564" y="171"/>
      <point x="571" y="180" type="qcurve"/>
    </contour>
  </outline>
</glyph>
<glyph name="uni0269" format="2">
  <advance width="432"/>
  <unicode hex="0269"/>
  <outline>
    <contour>
      <point x="419" y="1004" type="line"/>
      <point x="322" y="269" type="line"/>
      <point x="320" y="251"/>
      <point x="317" y="219"/>
      <point x="317" y="205" type="qcurve"/>
      <point x="317" y="142"/>
      <point x="370" y="82"/>
      <point x="431" y="82" type="qcurve"/>
      <point x="416" y="-30" type="line"/>
      <point x="326" y="-30"/>
      <point x="207" y="-3"/>
      <point x="137" y="54"/>
      <point x="110" y="142"/>
      <point x="110" y="203" type="qcurve"/>
      <point x="110" y="233"/>
      <point x="115" y="303"/>
      <point x="120" y="342" type="qcurve"/>
      <point x="203" y="974" type="line"/>
      <point x="374" y="1004" type="line"/>
    </contour>
  </outline>
</glyph>
<glyph name="uni026D" format="2">
  <advance width="432"/>
  <unicode hex="026D"/>
  <outline>
    <contour>
      <point x="510" y="1494" type="line"/>
      <point x="288" y="-191" type="line"/>
      <point x="284" y="-227"/>
      <point x="284" y="-256" type="qcurve"/>
      <point x="284" y="-287"/>
      <point x="299" y="-333"/>
      <point x="326" y="-363"/>
      <point x="362" y="-378"/>
      <point x="383" y="-378" type="qcurve"/>
      <point x="368" y="-490" type="line"/>
      <point x="283" y="-490"/>
      <point x="170" y="-463"/>
      <point x="104" y="-406"/>
      <point x="76" y="-318"/>
      <point x="76" y="-257" type="qcurve"/>
      <point x="76" y="-227"/>
      <point x="81" y="-157"/>
      <point x="86" y="-118" type="qcurve"/>
      <point x="295" y="1464" type="line"/>
      <point x="465" y="1494" type="line"/>
    </contour>
  </outline>
</glyph>
<glyph name="uni026E" format="2">
  <advance width="936"/>
  <unicode hex="026E"/>
  <outline>
    <contour>
      <point x="281" y="-226" type="line"/>
      <point x="293" y="-253"/>
      <point x="323" y="-307"/>
      <point x="364" y="-351"/>
      <point x="415" y="-378"/>
      <point x="446" y="-378" type="qcurve"/>
      <point x="494" y="-378"/>
      <point x="582" y="-285"/>
      <point x="649" y="-133"/>
      <point x="689" y="57"/>
      <point x="689" y="155" type="qcurve"/>
      <point x="689" y="220"/>
      <point x="669" y="323"/>
      <point x="634" y="394"/>
      <point x="584" y="432"/>
      <point x="554" y="432" type="qcurve"/>
      <point x="516" y="432"/>
      <point x="463" y="421"/>
      <point x="436" y="407" type="qcurve"/>
      <point x="444" y="468" type="line"/>
      <point x="702" y="862" type="line"/>
      <point x="397" y="835" type="line"/>
      <point x="307" y="154" type="line"/>
      <point x="305" y="142"/>
      <point x="305" y="131" type="qcurve"/>
      <point x="305" y="111"/>
      <point x="323" y="82"/>
      <point x="351" y="82" type="qcurve"/>
      <point x="336" y="-30" type="line"/>
      <point x="212" y="-30"/>
      <point x="101" y="65"/>
      <point x="101" y="169" type="qcurve"/>
      <point x="101" y="186"/>
      <point x="104" y="224"/>
      <point x="107" y="245" type="qcurve"/>
      <point x="269" y="1464" type="line"/>
      <point x="439" y="1494" type="line"/>
      <point x="484" y="1494" type="line"/>
      <point x="415" y="974" type="line"/>
      <point x="971" y="974" type="line"/>
      <point x="964" y="914" type="line"/>
      <point x="702" y="524" type="line"/>
      <point x="751" y="504"/>
      <point x="827" y="433"/>
      <point x="880" y="334"/>
      <point x="908" y="210"/>
      <point x="908" y="138" type="qcurve"/>
      <point x="908" y="52"/>
      <point x="876" y="-107"/>
      <point x="818" y="-247"/>
      <point x="736" y="-362"/>
      <point x="635" y="-444"/>
      <point x="518" y="-490"/>
      <point x="454" y="-490" type="qcurve"/>
      <point x="400" y="-490"/>
      <point x="318" y="-464"/>
      <point x="257" y="-421"/>
      <point x="212" y="-366"/>
      <point x="196" y="-338" type="qcurve"/>
    </contour>
  </outline>
</glyph>
<glyph name="uni0271" format="2">
  <advance width="1248"/>
  <unicode hex="0271"/>
  <outline>
    <contour>
      <point x="200" y="944" type="line"/>
      <point x="370" y="974" type="line"/>
      <point x="415" y="974" type="line"/>
      <point x="404" y="893" type="line"/>
      <point x="425" y="915"/>
      <point x="473" y="956"/>
      <point x="526" y="986"/>
      <point x="581" y="1004"/>
      <point x="610" y="1004" type="qcurve"/>
      <point x="685" y="1004"/>
      <point x="783" y="924"/>
      <point x="804" y="852" type="qcurve"/>
      <point x="830" y="882"/>
      <point x="885" y="937"/>
      <point x="945" y="979"/>
      <point x="1011" y="1004"/>
      <point x="1047" y="1004" type="qcurve"/>
      <point x="1089" y="1004"/>
      <point x="1166" y="974"/>
      <point x="1223" y="914"/>
      <point x="1258" y="823"/>
      <point x="1258" y="762" type="qcurve"/>
      <point x="1258" y="732"/>
      <point x="1253" y="699" type="qcurve"/>
      <point x="1151" y="-76" type="line"/>
      <point x="1135" y="-194"/>
      <point x="1079" y="-353"/>
      <point x="994" y="-449"/>
      <point x="876" y="-490"/>
      <point x="799" y="-490" type="qcurve"/>
      <point x="814" y="-378" type="line"/>
      <point x="839" y="-378"/>
      <point x="874" y="-363"/>
      <point x="899" y="-322"/>
      <point x="917" y="-249"/>
      <point x="924" y="-191" type="qcurve"/>
      <point x="1047" y="740" type="line"/>
      <point x="1049" y="752"/>
      <point x="1050" y="774"/>
      <point x="1050" y="784" type="qcurve"/>
      <point x="1050" y="814"/>
      <point x="1038" y="855"/>
      <point x="1018" y="880"/>
      <point x="993" y="892"/>
      <point x="980" y="892" type="qcurve"/>
      <point x="960" y="892"/>
      <point x="919" y="871"/>
      <point x="878" y="836"/>
      <point x="841" y="792"/>
      <point x="825" y="769" type="qcurve"/>
      <point x="724" y="0" type="line"/>
      <point x="512" y="0" type="line"/>
      <point x="610" y="741" type="line"/>
      <point x="613" y="761"/>
      <point x="613" y="783" type="qcurve"/>
      <point x="613" y="813"/>
      <point x="600" y="854"/>
      <point x="581" y="880"/>
      <point x="555" y="892"/>
      <point x="543" y="892" type="qcurve"/>
      <point x="524" y="892"/>
      <point x="483" y="872"/>
      <point x="443" y="838"/>
      <point x="404" y="794"/>
      <point x="388" y="770" type="qcurve"/>
      <point x="287" y="0" type="line"/>
      <point x="75" y="0" type="line"/>
    </contour>
  </outline>
</glyph>
<glyph name="uni0273" format="2">
  <advance width="840"/>
  <unicode hex="0273"/>
  <outline>
    <contour>
      <point x="415" y="974" type="line"/>
      <point x="404" y="892" type="line"/>
      <point x="427" y="914"/>
      <point x="480" y="955"/>
      <point x="538" y="986"/>
      <point x="598" y="1004"/>
      <point x="627" y="1004" type="qcurve"/>
      <point x="680" y="1004"/>
      <point x="764" y="970"/>
      <point x="823" y="906"/>
      <point x="854" y="812"/>
      <point x="854" y="752" type="qcurve"/>
      <point x="854" y="735"/>
      <point x="851" y="699"/>
      <point x="848" y="680" type="qcurve"/>
      <point x="730" y="-221" type="line"/>
      <point x="725" y="-254"/>
      <point x="725" y="-279" type="qcurve"/>
      <point x="725" y="-333"/>
      <point x="764" y="-378"/>
      <point x="794" y="-378" type="qcurve"/>
      <point x="780" y="-490" type="line"/>
      <point x="706" y="-490"/>
      <point x="608" y="-452"/>
      <point x="550" y="-383"/>
      <point x="526" y="-285"/>
      <point x="526" y="-225" type="qcurve"/>
      <point x="526" y="-191"/>
      <point x="532" y="-118"/>
      <point x="537" y="-78" type="qcurve"/>
      <point x="643" y="724" type="line"/>
      <point x="644" y="738"/>
      <point x="647" y="764"/>
      <point x="647" y="776" type="qcurve"/>
      <point x="647" y="831"/>
      <point x="607" y="892"/>
      <point x="566" y="892" type="qcurve"/>
      <point x="541" y="892"/>
      <point x="488" y="868"/>
      <point x="440" y="832"/>
      <point x="401" y="789"/>
      <point x="388" y="770" type="qcurve"/>
      <point x="287" y="0" type="line"/>
      <point x="75" y="0" type="line"/>
      <point x="200" y="944" type="line"/>
      <point x="370" y="974" type="line"/>
    </contour>
  </outline>
</glyph>
<glyph name="uni0274" format="2">
  <advance width="840"/>
  <unicode hex="0274"/>
  <outline>
    <contour>
      <point x="203" y="974" type="line" name="hr00"/>
      <point x="329" y="1004" type="line" name="at01"/>
      <point x="694" y="380" type="line" name="iv01"/>
      <point x="776" y="1004" type="line" name="at02"/>
      <point x="894" y="974" type="line"/>
      <point x="765" y="0" type="line" name="ab01"/>
      <point x="644" y="0" type="line"/>
      <point x="279" y="624" type="line" name="iv02"/>
      <point x="197" y="0" type="line" name="ab02"/>
      <point x="75" y="0" type="line"/>
    </contour>
  </outline>
</glyph>
<glyph name="uni0276" format="2">
  <advance width="1008"/>
  <unicode hex="0276"/>
  <outline>
    <contour>
      <point x="416" y="-30" type="qcurve"/>
      <point x="339" y="-30"/>
      <point x="221" y="29"/>
      <point x="140" y="136"/>
      <point x="98" y="285"/>
      <point x="98" y="375" type="qcurve"/>
      <point x="98" y="461"/>
      <point x="130" y="622"/>
      <point x="188" y="761"/>
      <point x="270" y="876"/>
      <point x="371" y="959"/>
      <point x="488" y="1004"/>
      <point x="553" y="1004" type="qcurve"/>
      <point x="591" y="1004"/>
      <point x="659" y="988"/>
      <point x="689" y="974" type="qcurve"/>
      <point x="1072" y="974" type="line"/>
      <point x="1054" y="835" type="line"/>
      <point x="797" y="862" type="line"/>
      <point x="763" y="599" type="line"/>
      <point x="1023" y="599" type="line"/>
      <point x="1008" y="487" type="line"/>
      <point x="748" y="487" type="line"/>
      <point x="698" y="112" type="line"/>
      <point x="962" y="141" type="line"/>
      <point x="944" y="0" type="line"/>
      <point x="560" y="0" type="line"/>
      <point x="527" y="-14"/>
      <point x="454" y="-30"/>
    </contour>
    <contour>
      <point x="538" y="892" type="qcurve"/>
      <point x="503" y="892"/>
      <point x="444" y="842"/>
      <point x="395" y="757"/>
      <point x="357" y="644"/>
      <point x="331" y="517"/>
      <point x="317" y="383"/>
      <point x="317" y="321" type="qcurve"/>
      <point x="317" y="207"/>
      <point x="371" y="82"/>
      <point x="431" y="82" type="qcurve"/>
      <point x="445" y="82"/>
      <point x="473" y="91"/>
      <point x="485" y="99" type="qcurve"/>
      <point x="588" y="877" type="line"/>
      <point x="568" y="892"/>
    </contour>
  </outline>
</glyph>
<glyph name="uni027E" format="2">
  <advance width="432"/>
  <unicode hex="027E"/>
  <outline>
    <contour>
      <point x="110" y="0" type="line" name="ab01"/>
      <point x="188" y="590" type="line"/>
      <point x="205" y="716"/>
      <point x="260" y="876"/>
      <point x="345" y="969"/>
      <point x="463" y="1004"/>
      <point x="541" y="1004" type="qcurve" name="at01"/>
      <point x="526" y="892" type="line"/>
      <point x="501" y="892"/>
      <point x="466" y="877"/>
      <point x="440" y="837"/>
      <point x="422" y="763"/>
      <point x="415" y="705" type="qcurve"/>
      <point x="322" y="0" type="line"/>
    </contour>
  </outline>
</glyph>
<glyph name="uni027F" format="2">
  <advance width="432"/>
  <unicode hex="027F"/>
  <outline>
    <contour>
      <point x="166" y="1004" type="line"/>
      <point x="233" y="1004"/>
      <point x="334" y="979"/>
      <point x="401" y="917"/>
      <point x="435" y="815"/>
      <point x="435" y="739" type="qcurve"/>
      <point x="435" y="675"/>
      <point x="424" y="590" type="qcurve"/>
      <point x="346" y="0" type="line"/>
      <point x="134" y="0" type="line"/>
      <point x="227" y="705" type="line"/>
      <point x="231" y="737"/>
      <point x="236" y="787"/>
      <point x="236" y="807" type="qcurve"/>
      <point x="236" y="858"/>
      <point x="197" y="892"/>
      <point x="151" y="892" type="qcurve"/>
    </contour>
  </outline>
</glyph>
<glyph name="uni0283" format="2">
  <advance width="552"/>
  <unicode hex="0283"/>
  <outline>
    <contour>
      <point x="371" y="-76" type="line"/>
      <point x="355" y="-202"/>
      <point x="303" y="-362"/>
      <point x="221" y="-455"/>
      <point x="102" y="-490"/>
      <point x="19" y="-490" type="qcurve"/>
      <point x="34" y="-378" type="line"/>
      <point x="59" y="-378"/>
      <point x="95" y="-363"/>
      <point x="119" y="-323"/>
      <point x="137" y="-250"/>
      <point x="145" y="-191" type="qcurve"/>
      <point x="309" y="1050" type="line"/>
      <point x="326" y="1176"/>
      <point x="377" y="1336"/>
      <point x="459" y="1429"/>
      <point x="578" y="1464"/>
      <point x="662" y="1464" type="qcurve"/>
      <point x="647" y="1352" type="line"/>
      <point x="622" y="1352"/>
      <point x="587" y="1337"/>
      <point x="561" y="1297"/>
      <point x="543" y="1223"/>
      <point x="536" y="1165" type="qcurve"/>
    </contour>
  </outline>
</glyph>
<glyph name="uni0285" format="2">
  <advance width="552"/>
  <unicode hex="0285"/>
  <outline>
    <contour>
      <point x="263" y="1464" type="line" name="at01"/>
      <point x="332" y="1464"/>
      <point x="434" y="1439"/>
      <point x="500" y="1377"/>
      <point x="532" y="1275" name="hr00"/>
      <point x="532" y="1199" type="qcurve" name="sh01"/>
      <point x="532" y="1135"/>
      <point x="521" y="1050" type="qcurve" name="sh02"/>
      <point x="417" y="269" type="line" name="sh03"/>
      <point x="413" y="237"/>
      <point x="408" y="187" name="hr01"/>
      <point x="408" y="167" type="qcurve" name="dh02"/>
      <point x="408" y="116"/>
      <point x="447" y="82"/>
      <point x="494" y="82" type="qcurve"/>
      <point x="479" y="-30" type="line" name="ab01"/>
      <point x="409" y="-30"/>
      <point x="307" y="-5"/>
      <point x="241" y="56"/>
      <point x="209" y="158"/>
      <point x="209" y="234" type="qcurve" name="dh01"/>
      <point x="209" y="298"/>
      <point x="221" y="384" type="qcurve" name="sh04"/>
      <point x="324" y="1165" type="line" name="sh05"/>
      <point x="328" y="1197"/>
      <point x="333" y="1247"/>
      <point x="333" y="1267" type="qcurve" name="ih01"/>
      <point x="333" y="1318"/>
      <point x="294" y="1352"/>
      <point x="248" y="1352" type="qcurve"/>
    </contour>
  </outline>
</glyph>
<glyph name="uni0286" format="2">
  <advance width="552"/>
  <unicode hex="0286"/>
  <outline>
    <contour>
      <point x="550" y="0" type="line"/>
      <point x="531" y="-139" type="line"/>
      <point x="412" y="-133" type="line"/>
      <point x="401" y="-217"/>
      <point x="341" y="-349"/>
      <point x="251" y="-441"/>
      <point x="137" y="-490"/>
      <point x="72" y="-490" type="qcurve"/>
      <point x="0" y="-490"/>
      <point x="-74" y="-389"/>
      <point x="-74" y="-307" type="qcurve"/>
      <point x="-74" y="-232"/>
      <point x="-29" y="-117"/>
      <point x="45" y="-40"/>
      <point x="140" y="0"/>
      <point x="191" y="0" type="qcurve"/>
      <point x="218" y="0" type="line"/>
      <point x="357" y="1050" type="line"/>
      <point x="374" y="1176"/>
      <point x="425" y="1336"/>
      <point x="507" y="1429"/>
      <point x="626" y="1464"/>
      <point x="710" y="1464" type="qcurve"/>
      <point x="695" y="1352" type="line"/>
      <point x="670" y="1352"/>
      <point x="635" y="1337"/>
      <point x="609" y="1297"/>
      <point x="591" y="1223"/>
      <point x="584" y="1165" type="qcurve"/>
      <point x="430" y="0" type="line"/>
    </contour>
    <contour>
      <point x="202" y="-122" type="line"/>
      <point x="148" y="-118" type="line"/>
      <point x="119" y="-119"/>
      <point x="69" y="-144"/>
      <point x="32" y="-187"/>
      <point x="10" y="-248"/>
      <point x="10" y="-286" type="qcurve"/>
      <point x="10" y="-333"/>
      <point x="47" y="-378"/>
      <point x="72" y="-378" type="qcurve"/>
      <point x="89" y="-378"/>
      <point x="125" y="-361"/>
      <point x="158" y="-319"/>
      <point x="185" y="-249"/>
      <point x="192" y="-195" type="qcurve"/>
    </contour>
  </outline>
</glyph>
<glyph name="uni0288" format="2">
  <advance width="552"/>
  <unicode hex="0288"/>
  <outline>
    <contour>
      <point x="527" y="1322" type="line"/>
      <point x="485" y="1004" type="line"/>
      <point x="619" y="1004" type="line"/>
      <point x="601" y="865" type="line"/>
      <point x="468" y="873" type="line"/>
      <point x="327" y="-191" type="line"/>
      <point x="325" y="-209"/>
      <point x="322" y="-241"/>
      <point x="322" y="-255" type="qcurve"/>
      <point x="322" y="-318"/>
      <point x="375" y="-378"/>
      <point x="437" y="-378" type="qcurve"/>
      <point x="422" y="-490" type="line"/>
      <point x="335" y="-490"/>
      <point x="217" y="-463"/>
      <point x="146" y="-406"/>
      <point x="115" y="-319"/>
      <point x="115" y="-258" type="qcurve"/>
      <point x="115" y="-227"/>
      <point x="120" y="-158"/>
      <point x="125" y="-118" type="qcurve"/>
      <point x="258" y="885" type="line"/>
      <point x="157" y="892" type="line"/>
      <point x="172" y="1004" type="line"/>
      <point x="274" y="1004" type="line"/>
      <point x="311" y="1292" type="line"/>
      <point x="482" y="1322" type="line"/>
    </contour>
  </outline>
</glyph>
<glyph name="uni0289" format="2">
  <advance width="840"/>
  <unicode hex="0289"/>
  <outline>
    <contour>
      <point x="419" y="1004" type="line"/>
      <point x="365" y="599" type="line"/>
      <point x="626" y="599" type="line"/>
      <point x="676" y="974" type="line"/>
      <point x="847" y="1004" type="line"/>
      <point x="892" y="1004" type="line"/>
      <point x="838" y="599" type="line"/>
      <point x="892" y="599" type="line"/>
      <point x="877" y="487" type="line"/>
      <point x="824" y="487" type="line"/>
      <point x="781" y="165" type="line"/>
      <point x="779" y="156"/>
      <point x="777" y="138"/>
      <point x="777" y="130" type="qcurve"/>
      <point x="777" y="106"/>
      <point x="799" y="82"/>
      <point x="824" y="82" type="qcurve"/>
      <point x="809" y="-30" type="line"/>
      <point x="759" y="-30"/>
      <point x="684" y="-19"/>
      <point x="630" y="6"/>
      <point x="593" y="49"/>
      <point x="581" y="82" type="qcurve"/>
      <point x="560" y="62"/>
      <point x="509" y="22"/>
      <point x="448" y="-10"/>
      <point x="379" y="-30"/>
      <point x="342" y="-30" type="qcurve"/>
      <point x="293" y="-30"/>
      <point x="209" y="-1"/>
      <point x="146" y="60"/>
      <point x="110" y="157"/>
      <point x="110" y="226" type="qcurve"/>
      <point x="110" y="259"/>
      <point x="114" y="298" type="qcurve"/>
      <point x="139" y="487" type="line"/>
      <point x="76" y="487" type="line"/>
      <point x="91" y="599" type="line"/>
      <point x="154" y="599" type="line"/>
      <point x="203" y="974" type="line"/>
      <point x="374" y="1004" type="line"/>
    </contour>
    <contour>
      <point x="316" y="198" type="qcurve"/>
      <point x="316" y="163"/>
      <point x="329" y="118"/>
      <point x="351" y="92"/>
      <point x="377" y="82"/>
      <point x="389" y="82" type="qcurve"/>
      <point x="416" y="82"/>
      <point x="468" y="100"/>
      <point x="516" y="131"/>
      <point x="558" y="174"/>
      <point x="574" y="199" type="qcurve"/>
      <point x="611" y="487" type="line"/>
      <point x="350" y="487" type="line"/>
      <point x="320" y="258" type="line"/>
      <point x="316" y="223"/>
    </contour>
  </outline>
</glyph>
<glyph name="uni028D" format="2">
  <advance width="1080"/>
  <unicode hex="028D"/>
  <outline>
    <contour>
      <point x="394" y="-30" type="line"/>
      <point x="344" y="606" type="line"/>
      <point x="125" y="-30" type="line"/>
      <point x="23" y="0" type="line"/>
      <point x="362" y="974" type="line"/>
      <point x="534" y="974" type="line"/>
      <point x="587" y="353" type="line"/>
      <point x="803" y="974" type="line"/>
      <point x="975" y="974" type="line"/>
      <point x="1057" y="0" type="line"/>
      <point x="835" y="-30" type="line"/>
      <point x="785" y="606" type="line"/>
      <point x="566" y="-30" type="line"/>
    </contour>
  </outline>
</glyph>
<glyph name="uni028E" format="2">
  <advance width="720"/>
  <unicode hex="028E"/>
  <outline>
    <contour>
      <point x="468" y="-30" type="line" name="ab01"/>
      <point x="365" y="589" type="line" name="iv01"/>
      <point x="132" y="-30" type="line" name="ab02"/>
      <point x="31" y="0" type="line"/>
      <point x="408" y="1004" type="line"/>
      <point x="446" y="1103"/>
      <point x="522" y="1272"/>
      <point x="621" y="1395"/>
      <point x="751" y="1464"/>
      <point x="841" y="1464" type="qcurve" name="at01"/>
      <point x="826" y="1352" type="line" name="sv01"/>
      <point x="762" y="1352"/>
      <point x="666" y="1285"/>
      <point x="593" y="1177"/>
      <point x="536" y="1043"/>
      <point x="511" y="977" type="qcurve"/>
      <point x="692" y="0" type="line"/>
    </contour>
  </outline>
</glyph>
<glyph name="uni0291" format="2">
  <advance width="840"/>
  <unicode hex="0291"/>
  <outline>
    <contour>
      <point x="30" y="60" type="line"/>
      <point x="557" y="862" type="line"/>
      <point x="173" y="835" type="line"/>
      <point x="191" y="974" type="line"/>
      <point x="826" y="974" type="line"/>
      <point x="818" y="914" type="line"/>
      <point x="284" y="112" type="line"/>
      <point x="377" y="117" type="line"/>
      <point x="439" y="226"/>
      <point x="532" y="369"/>
      <point x="610" y="453"/>
      <point x="679" y="487"/>
      <point x="716" y="487" type="qcurve"/>
      <point x="738" y="487"/>
      <point x="784" y="465"/>
      <point x="822" y="421"/>
      <point x="846" y="356"/>
      <point x="846" y="314" type="qcurve"/>
      <point x="846" y="240"/>
      <point x="804" y="136"/>
      <point x="734" y="67"/>
      <point x="644" y="26"/>
      <point x="547" y="6"/>
      <point x="452" y="0"/>
      <point x="412" y="0" type="qcurve"/>
      <point x="294" y="-208" type="line"/>
      <point x="224" y="-154" type="line"/>
      <point x="311" y="0" type="line"/>
      <point x="23" y="0" type="line"/>
    </contour>
    <contour>
      <point x="484" y="126" type="qcurve"/>
      <point x="509" y="127"/>
      <point x="569" y="131"/>
      <point x="629" y="142"/>
      <point x="686" y="164"/>
      <point x="728" y="202"/>
      <point x="755" y="260"/>
      <point x="755" y="301" type="qcurve"/>
      <point x="755" y="334"/>
      <point x="725" y="375"/>
      <point x="696" y="375" type="qcurve"/>
      <point x="671" y="375"/>
      <point x="623" y="343"/>
      <point x="573" y="280"/>
      <point x="518" y="187"/>
    </contour>
  </outline>
</glyph>
<glyph name="uni0294" format="2">
  <advance width="768"/>
  <unicode hex="0294"/>
  <guideline x="79" y="0" angle="90"/>
  <outline>
    <contour>
      <point x="230" y="0" type="line" name="ab01"/>
      <point x="321" y="690" type="line"/>
      <point x="404" y="690" type="line"/>
      <point x="450" y="690"/>
      <point x="530" y="756"/>
      <point x="587" y="867"/>
      <point x="620" y="1010"/>
      <point x="620" y="1088" type="qcurve" name="dh01"/>
      <point x="620" y="1148"/>
      <point x="600" y="1245"/>
      <point x="565" y="1314"/>
      <point x="515" y="1352"/>
      <point x="484" y="1352" type="qcurve" name="sv01"/>
      <point x="456" y="1352"/>
      <point x="406" y="1324"/>
      <point x="362" y="1281"/>
      <point x="324" y="1226"/>
      <point x="308" y="1199" type="qcurve" name="iv01"/>
      <point x="223" y="1312" type="line"/>
      <point x="248" y="1343"/>
      <point x="307" y="1399"/>
      <point x="379" y="1440"/>
      <point x="467" y="1464"/>
      <point x="521" y="1464" type="qcurve" name="at01"/>
      <point x="600" y="1464"/>
      <point x="719" y="1400"/>
      <point x="799" y="1290"/>
      <point x="839" y="1146"/>
      <point x="839" y="1067" type="qcurve" name="dh02"/>
      <point x="839" y="968"/>
      <point x="789" y="798"/>
      <point x="701" y="664"/>
      <point x="583" y="571"/>
      <point x="514" y="548" type="qcurve"/>
      <point x="442" y="0" type="line"/>
    </contour>
  </outline>
</glyph>
<glyph name="uni029D" format="2">
  <advance width="552"/>
  <unicode hex="029D"/>
  <outline>
    <contour>
      <point x="552" y="0" type="line"/>
      <point x="534" y="-139" type="line"/>
      <point x="414" y="-133" type="line"/>
      <point x="403" y="-217"/>
      <point x="343" y="-349"/>
      <point x="254" y="-441"/>
      <point x="140" y="-490"/>
      <point x="74" y="-490" type="qcurve"/>
      <point x="2" y="-490"/>
      <point x="-72" y="-389"/>
      <point x="-72" y="-307" type="qcurve"/>
      <point x="-72" y="-232"/>
      <point x="-26" y="-117"/>
      <point x="53" y="-40"/>
      <point x="160" y="0"/>
      <point x="221" y="0" type="qcurve"/>
      <point x="349" y="974" type="line"/>
      <point x="520" y="1004" type="line"/>
      <point x="565" y="1004" type="line"/>
      <point x="432" y="0" type="line"/>
    </contour>
    <contour>
      <point x="204" y="-118" type="line"/>
      <point x="107" y="-118"/>
      <point x="12" y="-210"/>
      <point x="12" y="-286" type="qcurve"/>
      <point x="12" y="-333"/>
      <point x="50" y="-378"/>
      <point x="74" y="-378" type="qcurve"/>
      <point x="91" y="-378"/>
      <point x="128" y="-361"/>
      <point x="161" y="-319"/>
      <point x="188" y="-249"/>
      <point x="194" y="-195" type="qcurve"/>
    </contour>
    <contour>
      <point x="391" y="1318" type="qcurve"/>
      <point x="391" y="1348"/>
      <point x="408" y="1402"/>
      <point x="437" y="1441"/>
      <point x="478" y="1464"/>
      <point x="500" y="1464" type="qcurve"/>
      <point x="523" y="1464"/>
      <point x="563" y="1441"/>
      <point x="593" y="1402"/>
      <point x="610" y="1348"/>
      <point x="610" y="1318" type="qcurve"/>
      <point x="610" y="1288"/>
      <point x="593" y="1234"/>
      <point x="563" y="1195"/>
      <point x="523" y="1172"/>
      <point x="500" y="1172" type="qcurve"/>
      <point x="478" y="1172"/>
      <point x="437" y="1195"/>
      <point x="408" y="1234"/>
      <point x="391" y="1288"/>
    </contour>
  </outline>
</glyph>
<glyph name="uni02A1" format="2">
  <advance width="768"/>
  <unicode hex="02A1"/>
  <outline>
    <contour>
      <point x="230" y="0" type="line"/>
      <point x="264" y="257" type="line"/>
      <point x="177" y="263" type="line"/>
      <point x="193" y="375" type="line"/>
      <point x="279" y="375" type="line"/>
      <point x="321" y="690" type="line"/>
      <point x="404" y="690" type="line"/>
      <point x="450" y="690"/>
      <point x="530" y="756"/>
      <point x="587" y="867"/>
      <point x="620" y="1010"/>
      <point x="620" y="1088" type="qcurve"/>
      <point x="620" y="1148"/>
      <point x="600" y="1245"/>
      <point x="565" y="1314"/>
      <point x="515" y="1352"/>
      <point x="484" y="1352" type="qcurve"/>
      <point x="456" y="1352"/>
      <point x="406" y="1324"/>
      <point x="362" y="1281"/>
      <point x="324" y="1226"/>
      <point x="308" y="1199" type="qcurve"/>
      <point x="223" y="1312" type="line"/>
      <point x="248" y="1343"/>
      <point x="307" y="1399"/>
      <point x="379" y="1440"/>
      <point x="467" y="1464"/>
      <point x="521" y="1464" type="qcurve"/>
      <point x="600" y="1464"/>
      <point x="719" y="1400"/>
      <point x="799" y="1290"/>
      <point x="839" y="1146"/>
      <point x="839" y="1067" type="qcurve"/>
      <point x="839" y="968"/>
      <point x="789" y="798"/>
      <point x="701" y="664"/>
      <point x="583" y="571"/>
      <point x="514" y="548" type="qcurve"/>
      <point x="491" y="375" type="line"/>
      <point x="593" y="375" type="line"/>
      <point x="570" y="236" type="line"/>
      <point x="473" y="242" type="line"/>
      <point x="442" y="0" type="line"/>
    </contour>
  </outline>
</glyph>
<glyph name="uni02A2" format="2">
  <advance width="768"/>
  <unicode hex="02A2"/>
  <guideline x="337" y="0" angle="90"/>
  <guideline x="211" y="0" angle="90"/>
  <guideline x="627" y="0" angle="90"/>
  <outline>
    <contour>
      <point x="525" y="0" type="line" name="ab01"/>
      <point x="314" y="0" type="line"/>
      <point x="347" y="257" type="line"/>
      <point x="260" y="263" type="line"/>
      <point x="276" y="375" type="line" name="sv01"/>
      <point x="362" y="375" type="line" name="sv04"/>
      <point x="386" y="548" type="line" name="sh01"/>
      <point x="335" y="566"/>
      <point x="256" y="632"/>
      <point x="203" y="725"/>
      <point x="175" y="842"/>
      <point x="175" y="909" type="qcurve" name="dh01"/>
      <point x="175" y="1032"/>
      <point x="249" y="1236" name="hr00"/>
      <point x="373" y="1383"/>
      <point x="534" y="1464"/>
      <point x="621" y="1464" type="qcurve" name="at01"/>
      <point x="675" y="1464"/>
      <point x="756" y="1440"/>
      <point x="817" y="1398"/>
      <point x="862" y="1343"/>
      <point x="879" y="1312" type="qcurve"/>
      <point x="794" y="1200" type="line" name="iv01"/>
      <point x="782" y="1227"/>
      <point x="752" y="1281"/>
      <point x="713" y="1325"/>
      <point x="662" y="1352"/>
      <point x="629" y="1352" type="qcurve" name="sv05"/>
      <point x="590" y="1352"/>
      <point x="527" y="1310"/>
      <point x="474" y="1240"/>
      <point x="434" y="1150"/>
      <point x="407" y="1053"/>
      <point x="394" y="957"/>
      <point x="394" y="917" type="qcurve" name="dh02"/>
      <point x="394" y="864"/>
      <point x="414" y="780"/>
      <point x="452" y="722"/>
      <point x="503" y="690"/>
      <point x="533" y="690" type="qcurve"/>
      <point x="616" y="690" type="line" name="dv02"/>
      <point x="574" y="375" type="line" name="sv02"/>
      <point x="677" y="375" type="line" name="sv03"/>
      <point x="653" y="236" type="line" name="dv01"/>
      <point x="557" y="242" type="line"/>
    </contour>
  </outline>
</glyph>
<glyph name="uni02A3" format="2">
  <advance width="1296"/>
  <unicode hex="02A3"/>
  <outline>
    <contour>
      <point x="526" y="1004" type="qcurve"/>
      <point x="548" y="1004"/>
      <point x="595" y="988"/>
      <point x="637" y="966"/>
      <point x="668" y="941"/>
      <point x="677" y="931" type="qcurve"/>
      <point x="747" y="1464" type="line"/>
      <point x="917" y="1494" type="line"/>
      <point x="962" y="1494" type="line"/>
      <point x="893" y="974" type="line"/>
      <point x="1402" y="974" type="line"/>
      <point x="1394" y="914" type="line"/>
      <point x="860" y="112" type="line"/>
      <point x="1291" y="141" type="line"/>
      <point x="1273" y="0" type="line"/>
      <point x="649" y="0" type="line"/>
      <point x="625" y="14"/>
      <point x="595" y="55"/>
      <point x="587" y="82" type="qcurve"/>
      <point x="568" y="56"/>
      <point x="521" y="15"/>
      <point x="470" y="-14"/>
      <point x="415" y="-30"/>
      <point x="388" y="-30" type="qcurve"/>
      <point x="325" y="-30"/>
      <point x="218" y="24"/>
      <point x="141" y="126"/>
      <point x="98" y="275"/>
      <point x="98" y="370" type="qcurve"/>
      <point x="98" y="450"/>
      <point x="127" y="606"/>
      <point x="181" y="747"/>
      <point x="257" y="867"/>
      <point x="353" y="954"/>
      <point x="464" y="1004"/>
    </contour>
    <contour>
      <point x="662" y="821" type="line"/>
      <point x="647" y="852"/>
      <point x="592" y="892"/>
      <point x="547" y="892" type="qcurve"/>
      <point x="515" y="892"/>
      <point x="455" y="846"/>
      <point x="404" y="767"/>
      <point x="362" y="661"/>
      <point x="333" y="541"/>
      <point x="317" y="412"/>
      <point x="317" y="350" type="qcurve"/>
      <point x="317" y="283"/>
      <point x="336" y="183"/>
      <point x="370" y="116"/>
      <point x="414" y="82"/>
      <point x="440" y="82" type="qcurve"/>
      <point x="485" y="82"/>
      <point x="550" y="123"/>
      <point x="573" y="152" type="qcurve"/>
    </contour>
    <contour>
      <point x="1133" y="862" type="line"/>
      <point x="876" y="844" type="line"/>
      <point x="815" y="377" type="line"/>
    </contour>
  </outline>
</glyph>
<glyph name="uni02A5" format="2">
  <advance width="1440"/>
  <unicode hex="02A5"/>
  <outline>
    <contour>
      <point x="533" y="1004" type="qcurve" name="at01"/>
      <point x="556" y="1004"/>
      <point x="602" y="988"/>
      <point x="644" y="966"/>
      <point x="676" y="941"/>
      <point x="684" y="931" type="qcurve" name="ih01"/>
      <point x="755" y="1464" type="line"/>
      <point x="925" y="1494" type="line" name="av02"/>
      <point x="970" y="1494" type="line" name="hr00"/>
      <point x="901" y="974" type="line"/>
      <point x="1409" y="974" type="line"/>
      <point x="1402" y="914" type="line"/>
      <point x="868" y="112" type="line" name="ih02"/>
      <point x="961" y="117" type="line" name="sv02"/>
      <point x="1022" y="226"/>
      <point x="1115" y="369"/>
      <point x="1193" y="453" name="hr01"/>
      <point x="1262" y="487"/>
      <point x="1300" y="487" type="qcurve" name="dv02"/>
      <point x="1322" y="487"/>
      <point x="1367" y="465"/>
      <point x="1406" y="421"/>
      <point x="1430" y="356"/>
      <point x="1430" y="314" type="qcurve" name="dh04"/>
      <point x="1430" y="240"/>
      <point x="1388" y="136"/>
      <point x="1318" y="67"/>
      <point x="1227" y="26"/>
      <point x="1130" y="6"/>
      <point x="1035" y="0"/>
      <point x="995" y="0" type="qcurve" name="ab02"/>
      <point x="878" y="-208" type="line" name="av01"/>
      <point x="807" y="-154" type="line" name="hr02"/>
      <point x="894" y="0" type="line" name="ih03"/>
      <point x="656" y="0" type="line"/>
      <point x="644" y="7"/>
      <point x="623" y="31"/>
      <point x="607" y="55"/>
      <point x="596" y="77"/>
      <point x="595" y="82" type="qcurve" name="ih04"/>
      <point x="576" y="58"/>
      <point x="527" y="17"/>
      <point x="473" y="-13"/>
      <point x="419" y="-30"/>
      <point x="395" y="-30" type="qcurve" name="ab01"/>
      <point x="332" y="-30"/>
      <point x="226" y="24"/>
      <point x="149" y="126"/>
      <point x="105" y="275"/>
      <point x="105" y="370" type="qcurve" name="dh01"/>
      <point x="105" y="450"/>
      <point x="134" y="606"/>
      <point x="188" y="747"/>
      <point x="265" y="867"/>
      <point x="360" y="955"/>
      <point x="472" y="1004"/>
    </contour>
    <contour>
      <point x="669" y="821" type="line"/>
      <point x="654" y="852"/>
      <point x="599" y="892"/>
      <point x="554" y="892" type="qcurve" name="sv01"/>
      <point x="522" y="892"/>
      <point x="463" y="846"/>
      <point x="412" y="767"/>
      <point x="370" y="661"/>
      <point x="341" y="541"/>
      <point x="324" y="412"/>
      <point x="324" y="350" type="qcurve" name="dh02"/>
      <point x="324" y="283"/>
      <point x="344" y="183"/>
      <point x="377" y="116"/>
      <point x="422" y="82"/>
      <point x="447" y="82" type="qcurve" name="sv03"/>
      <point x="493" y="82"/>
      <point x="557" y="123"/>
      <point x="581" y="152" type="qcurve"/>
    </contour>
    <contour>
      <point x="1140" y="862" type="line" name="ih05"/>
      <point x="884" y="844" type="line"/>
      <point x="822" y="377" type="line" name="ih06"/>
    </contour>
    <contour>
      <point x="1067" y="126" type="qcurve" name="ih07"/>
      <point x="1093" y="127"/>
      <point x="1152" y="131"/>
      <point x="1213" y="142"/>
      <point x="1269" y="164"/>
      <point x="1312" y="202"/>
      <point x="1338" y="260"/>
      <point x="1338" y="301" type="qcurve" name="dh03"/>
      <point x="1338" y="334"/>
      <point x="1309" y="375"/>
      <point x="1280" y="375" type="qcurve" name="dv01"/>
      <point x="1254" y="375"/>
      <point x="1207" y="343"/>
      <point x="1157" y="280"/>
      <point x="1101" y="187"/>
    </contour>
  </outline>
</glyph>
<glyph name="uni02A6" format="2">
  <advance width="936"/>
  <unicode hex="02A6"/>
  <outline>
    <contour>
      <point x="512" y="1322" type="line" name="av01"/>
      <point x="470" y="1004" type="line" name="sh01"/>
      <point x="757" y="1004" type="line"/>
      <point x="802" y="1004"/>
      <point x="875" y="983"/>
      <point x="938" y="944"/>
      <point x="993" y="888"/>
      <point x="1021" y="852" type="qcurve"/>
      <point x="937" y="740" type="line" name="ih01"/>
      <point x="926" y="771"/>
      <point x="892" y="827"/>
      <point x="850" y="868"/>
      <point x="800" y="892"/>
      <point x="774" y="892" type="qcurve" name="sv01"/>
      <point x="752" y="892"/>
      <point x="711" y="872"/>
      <point x="681" y="833"/>
      <point x="664" y="778"/>
      <point x="664" y="744" type="qcurve" name="dh04"/>
      <point x="664" y="710"/>
      <point x="680" y="662"/>
      <point x="707" y="628"/>
      <point x="739" y="606"/>
      <point x="755" y="598" type="qcurve"/>
      <point x="855" y="547"/>
      <point x="950" y="403"/>
      <point x="950" y="309" type="qcurve" name="dh06"/>
      <point x="950" y="222"/>
      <point x="892" y="94"/>
      <point x="800" y="10"/>
      <point x="684" y="-30"/>
      <point x="628" y="-30" type="qcurve" name="ab01"/>
      <point x="462" y="-30" type="line"/>
      <point x="373" y="-30"/>
      <point x="257" y="-2"/>
      <point x="188" y="55"/>
      <point x="161" y="142"/>
      <point x="161" y="203" type="qcurve" name="dh01"/>
      <point x="161" y="233"/>
      <point x="166" y="303"/>
      <point x="171" y="342" type="qcurve" name="sh02"/>
      <point x="243" y="885" type="line" name="sv02"/>
      <point x="142" y="892" type="line" name="sv03"/>
      <point x="157" y="1004" type="line" name="sh03"/>
      <point x="259" y="1004" type="line"/>
      <point x="296" y="1292" type="line"/>
      <point x="467" y="1322" type="line"/>
    </contour>
    <contour>
      <point x="754" y="254" type="qcurve" name="dh05"/>
      <point x="754" y="352"/>
      <point x="636" y="413" type="qcurve"/>
      <point x="605" y="429"/>
      <point x="547" y="481"/>
      <point x="502" y="552"/>
      <point x="475" y="640"/>
      <point x="475" y="692" type="qcurve" name="dh03"/>
      <point x="475" y="745"/>
      <point x="500" y="833"/>
      <point x="521" y="869" type="qcurve" name="ih02"/>
      <point x="452" y="873" type="line" name="sv04"/>
      <point x="373" y="269" type="line" name="sh04"/>
      <point x="371" y="251"/>
      <point x="368" y="219"/>
      <point x="368" y="205" type="qcurve" name="dh02"/>
      <point x="368" y="142"/>
      <point x="420" y="82"/>
      <point x="481" y="82" type="qcurve" name="sv05"/>
      <point x="610" y="82" type="line"/>
      <point x="639" y="82"/>
      <point x="691" y="106"/>
      <point x="731" y="151"/>
      <point x="754" y="215"/>
    </contour>
  </outline>
</glyph>
<glyph name="uni02A7" format="2">
  <advance width="720"/>
  <unicode hex="02A7"/>
  <outline>
    <contour>
      <point x="505" y="1322" type="line"/>
      <point x="463" y="1004" type="line"/>
      <point x="566" y="1004" type="line"/>
      <point x="572" y="1050" type="line"/>
      <point x="589" y="1176"/>
      <point x="640" y="1336"/>
      <point x="722" y="1429"/>
      <point x="841" y="1464"/>
      <point x="925" y="1464" type="qcurve"/>
      <point x="910" y="1352" type="line"/>
      <point x="885" y="1352"/>
      <point x="850" y="1337"/>
      <point x="824" y="1297"/>
      <point x="806" y="1223"/>
      <point x="799" y="1165" type="qcurve"/>
      <point x="635" y="-76" type="line"/>
      <point x="618" y="-202"/>
      <point x="566" y="-362"/>
      <point x="484" y="-455"/>
      <point x="365" y="-490"/>
      <point x="282" y="-490" type="qcurve"/>
      <point x="297" y="-378" type="line"/>
      <point x="323" y="-378"/>
      <point x="358" y="-363"/>
      <point x="383" y="-323"/>
      <point x="401" y="-250"/>
      <point x="408" y="-191" type="qcurve"/>
      <point x="429" y="-30" type="line"/>
      <point x="350" y="-29"/>
      <point x="245" y="1"/>
      <point x="180" y="60"/>
      <point x="153" y="149"/>
      <point x="153" y="210" type="qcurve"/>
      <point x="153" y="266"/>
      <point x="164" y="342" type="qcurve"/>
      <point x="236" y="885" type="line"/>
      <point x="134" y="892" type="line"/>
      <point x="149" y="1004" type="line"/>
      <point x="251" y="1004" type="line"/>
      <point x="289" y="1292" type="line"/>
      <point x="460" y="1322" type="line"/>
    </contour>
    <contour>
      <point x="444" y="85" type="qcurve"/>
      <point x="548" y="867" type="line"/>
      <point x="446" y="873" type="line"/>
      <point x="365" y="269" type="line"/>
      <point x="361" y="237"/>
      <point x="361" y="211" type="qcurve"/>
      <point x="361" y="155"/>
      <point x="401" y="94"/>
    </contour>
  </outline>
</glyph>
<glyph name="uni02AA" format="2">
  <advance width="936"/>
  <unicode hex="02AA"/>
  <outline>
    <contour>
      <point x="285" y="1464" type="line"/>
      <point x="455" y="1494" type="line"/>
      <point x="500" y="1494" type="line"/>
      <point x="338" y="269" type="line"/>
      <point x="334" y="233"/>
      <point x="334" y="204" type="qcurve"/>
      <point x="334" y="142"/>
      <point x="389" y="82"/>
      <point x="430" y="82" type="qcurve"/>
      <point x="586" y="82" type="line"/>
      <point x="615" y="82"/>
      <point x="668" y="106"/>
      <point x="709" y="151"/>
      <point x="732" y="215"/>
      <point x="732" y="254" type="qcurve"/>
      <point x="732" y="352"/>
      <point x="614" y="413" type="qcurve"/>
      <point x="584" y="429"/>
      <point x="525" y="481"/>
      <point x="480" y="552"/>
      <point x="453" y="640"/>
      <point x="453" y="692" type="qcurve"/>
      <point x="453" y="768"/>
      <point x="503" y="884"/>
      <point x="583" y="963"/>
      <point x="684" y="1004"/>
      <point x="735" y="1004" type="qcurve"/>
      <point x="780" y="1004"/>
      <point x="853" y="983"/>
      <point x="916" y="944"/>
      <point x="971" y="888"/>
      <point x="999" y="852" type="qcurve"/>
      <point x="915" y="740" type="line"/>
      <point x="904" y="771"/>
      <point x="870" y="827"/>
      <point x="828" y="868"/>
      <point x="779" y="892"/>
      <point x="752" y="892" type="qcurve"/>
      <point x="730" y="892"/>
      <point x="689" y="872"/>
      <point x="659" y="833"/>
      <point x="642" y="778"/>
      <point x="642" y="744" type="qcurve"/>
      <point x="642" y="710"/>
      <point x="659" y="662"/>
      <point x="685" y="628"/>
      <point x="717" y="606"/>
      <point x="733" y="598" type="qcurve"/>
      <point x="833" y="547"/>
      <point x="929" y="403"/>
      <point x="929" y="309" type="qcurve"/>
      <point x="929" y="222"/>
      <point x="870" y="94"/>
      <point x="778" y="10"/>
      <point x="662" y="-30"/>
      <point x="606" y="-30" type="qcurve"/>
      <point x="414" y="-30" type="line"/>
      <point x="331" y="-30"/>
      <point x="220" y="-2"/>
      <point x="153" y="55"/>
      <point x="126" y="142"/>
      <point x="126" y="203" type="qcurve"/>
      <point x="126" y="233"/>
      <point x="131" y="303"/>
      <point x="137" y="342" type="qcurve"/>
    </contour>
  </outline>
</glyph>
<glyph name="uni02BA" format="2">
  <advance width="576"/>
  <unicode hex="02BA"/>
  <outline>
    <contour>
      <point x="152" y="1149" type="line"/>
      <point x="287" y="1580" type="line"/>
      <point x="319" y="1590" type="line"/>
      <point x="428" y="1507" type="line"/>
      <point x="437" y="1464" type="line"/>
      <point x="225" y="1094" type="line"/>
    </contour>
    <contour>
      <point x="428" y="1149" type="line"/>
      <point x="562" y="1580" type="line"/>
      <point x="594" y="1590" type="line"/>
      <point x="703" y="1507" type="line"/>
      <point x="712" y="1464" type="line"/>
      <point x="500" y="1094" type="line"/>
    </contour>
  </outline>
</glyph>
<glyph name="uni02BC" format="2">
  <advance width="576"/>
  <unicode hex="02BC"/>
  <outline>
    <contour>
      <point x="368" y="1490" type="line"/>
      <point x="479" y="1638" type="line"/>
      <point x="500" y="1638" type="line"/>
      <point x="506" y="1631"/>
      <point x="530" y="1594"/>
      <point x="554" y="1531"/>
      <point x="572" y="1444"/>
      <point x="572" y="1387" type="qcurve"/>
      <point x="572" y="1328"/>
      <point x="547" y="1231"/>
      <point x="506" y="1153"/>
      <point x="453" y="1094"/>
      <point x="426" y="1071" type="qcurve"/>
      <point x="368" y="1148" type="line"/>
      <point x="379" y="1158"/>
      <point x="402" y="1189"/>
      <point x="422" y="1233"/>
      <point x="436" y="1287"/>
      <point x="436" y="1320" type="qcurve"/>
      <point x="436" y="1351"/>
      <point x="420" y="1399"/>
      <point x="398" y="1435"/>
      <point x="375" y="1458"/>
      <point x="368" y="1464" type="qcurve"/>
    </contour>
  </outline>
</glyph>
<glyph name="uni02BD" format="2">
  <advance width="576"/>
  <unicode hex="02BD"/>
  <guideline x="213" y="0" angle="80"/>
  <outline>
    <contour>
      <point x="565" y="1464" type="line" name="hr00"/>
      <point x="558" y="1458"/>
      <point x="536" y="1435"/>
      <point x="513" y="1399"/>
      <point x="497" y="1351"/>
      <point x="497" y="1320" type="qcurve" name="dh02"/>
      <point x="497" y="1287"/>
      <point x="511" y="1233"/>
      <point x="531" y="1189"/>
      <point x="554" y="1158"/>
      <point x="565" y="1148" type="qcurve"/>
      <point x="507" y="1071" type="line" name="av02"/>
      <point x="480" y="1094"/>
      <point x="428" y="1153"/>
      <point x="386" y="1231"/>
      <point x="361" y="1328"/>
      <point x="361" y="1387" type="qcurve" name="dh01"/>
      <point x="361" y="1444"/>
      <point x="380" y="1531"/>
      <point x="404" y="1594"/>
      <point x="428" y="1631"/>
      <point x="434" y="1638" type="qcurve" name="av01"/>
      <point x="454" y="1638" type="line"/>
      <point x="565" y="1490" type="line"/>
    </contour>
  </outline>
</glyph>
<glyph name="uni02BF" format="2">
  <advance width="576"/>
  <unicode hex="02BF"/>
  <outline>
    <contour>
      <point x="554" y="1377" type="line"/>
      <point x="547" y="1379" type="line"/>
      <point x="545" y="1380"/>
      <point x="536" y="1380" type="qcurve"/>
      <point x="512" y="1380"/>
      <point x="484" y="1336"/>
      <point x="484" y="1308" type="qcurve"/>
      <point x="484" y="1282"/>
      <point x="509" y="1244"/>
      <point x="528" y="1239" type="qcurve"/>
      <point x="536" y="1238" type="line"/>
      <point x="517" y="1098" type="line"/>
      <point x="509" y="1100" type="line"/>
      <point x="480" y="1106"/>
      <point x="432" y="1145"/>
      <point x="397" y="1201"/>
      <point x="377" y="1271"/>
      <point x="377" y="1308" type="qcurve"/>
      <point x="377" y="1352"/>
      <point x="402" y="1430"/>
      <point x="446" y="1488"/>
      <point x="504" y="1522"/>
      <point x="536" y="1522" type="qcurve"/>
      <point x="551" y="1522"/>
      <point x="564" y="1519" type="qcurve"/>
      <point x="572" y="1517" type="line"/>
    </contour>
  </outline>
</glyph>
<glyph name="caron" format="2">
  <advance width="576"/>
  <unicode hex="02C7"/>
  <outline>
    <contour>
      <point x="244" y="1494" type="line" name="hr00"/>
      <point x="338" y="1524" type="line" name="av01"/>
      <point x="462" y="1321" type="line" name="iv01"/>
      <point x="640" y="1524" type="line" name="av02"/>
      <point x="727" y="1494" type="line"/>
      <point x="519" y="1159" type="line" name="av03"/>
      <point x="363" y="1159" type="line"/>
    </contour>
  </outline>
</glyph>
<glyph name="uni02C9" format="2">
  <advance width="576"/>
  <unicode hex="02C9"/>
  <guideline x="-143" y="0" angle="80"/>
  <outline>
    <contour>
      <point x="744" y="1314" type="line" name="dv02"/>
      <point x="724" y="1162" type="line" name="dv01"/>
      <point x="158" y="1162" type="line"/>
      <point x="178" y="1314" type="line"/>
    </contour>
  </outline>
</glyph>
<glyph name="uni02CB" format="2">
  <advance width="576"/>
  <unicode hex="02CB"/>
  <outline>
    <contour>
      <point x="548" y="1141" type="line"/>
      <point x="299" y="1390" type="line"/>
      <point x="299" y="1434" type="line"/>
      <point x="388" y="1552" type="line"/>
      <point x="421" y="1552" type="line"/>
      <point x="608" y="1220" type="line"/>
    </contour>
  </outline>
</glyph>
<glyph name="uni02CD" format="2">
  <advance width="576"/>
  <unicode hex="02CD"/>
  <outline>
    <contour>
      <point x="530" y="-307" type="line" name="dv01"/>
      <point x="-36" y="-307" type="line"/>
      <point x="-17" y="-155" type="line"/>
      <point x="550" y="-155" type="line" name="dv02"/>
    </contour>
  </outline>
</glyph>
<glyph name="breve" format="2">
  <advance width="576"/>
  <unicode hex="02D8"/>
  <outline>
    <contour>
      <point x="380" y="1494" type="line" name="dh02"/>
      <point x="380" y="1455"/>
      <point x="389" y="1389"/>
      <point x="410" y="1341"/>
      <point x="442" y="1313" name="hr00"/>
      <point x="464" y="1313" type="qcurve" name="sv01"/>
      <point x="492" y="1313"/>
      <point x="536" y="1346"/>
      <point x="568" y="1398"/>
      <point x="590" y="1462"/>
      <point x="596" y="1494" type="qcurve" name="sv02"/>
      <point x="748" y="1494" type="line"/>
      <point x="736" y="1426"/>
      <point x="677" y="1308"/>
      <point x="595" y="1221"/>
      <point x="495" y="1171"/>
      <point x="442" y="1171" type="qcurve" name="dv01"/>
      <point x="394" y="1171"/>
      <point x="315" y="1221"/>
      <point x="260" y="1308"/>
      <point x="229" y="1426"/>
      <point x="229" y="1494" type="qcurve" name="dh01"/>
    </contour>
  </outline>
</glyph>
<glyph name="ring" format="2">
  <advance width="576"/>
  <unicode hex="02DA"/>
  <guideline x="288" y="0" angle="90"/>
  <outline>
    <contour>
      <point x="312" y="1393" type="qcurve" name="sh01"/>
      <point x="312" y="1437"/>
      <point x="338" y="1514"/>
      <point x="381" y="1572"/>
      <point x="439" y="1606"/>
      <point x="472" y="1606" type="qcurve" name="dv04"/>
      <point x="505" y="1606"/>
      <point x="563" y="1572"/>
      <point x="606" y="1514"/>
      <point x="632" y="1437"/>
      <point x="632" y="1393" type="qcurve" name="sh02"/>
      <point x="632" y="1349"/>
      <point x="606" y="1272"/>
      <point x="563" y="1214"/>
      <point x="505" y="1180"/>
      <point x="472" y="1180" type="qcurve" name="dv01"/>
      <point x="439" y="1180"/>
      <point x="381" y="1214"/>
      <point x="338" y="1272"/>
      <point x="312" y="1349"/>
    </contour>
    <contour>
      <point x="419" y="1392" type="qcurve" name="sh03"/>
      <point x="419" y="1363"/>
      <point x="449" y="1322"/>
      <point x="471" y="1322" type="qcurve" name="dv02"/>
      <point x="494" y="1322"/>
      <point x="525" y="1363"/>
      <point x="525" y="1392" type="qcurve" name="ah01"/>
      <point x="525" y="1423"/>
      <point x="494" y="1464"/>
      <point x="471" y="1464" type="qcurve" name="dv03"/>
      <point x="449" y="1464"/>
      <point x="419" y="1423"/>
    </contour>
  </outline>
</glyph>
<glyph name="ogonek" format="2">
  <advance width="576"/>
  <unicode hex="02DB"/>
  <outline>
    <contour>
      <point x="376" y="-407" type="line"/>
      <point x="341" y="-428"/>
      <point x="284" y="-450"/>
      <point x="250" y="-450" type="qcurve"/>
      <point x="210" y="-450"/>
      <point x="154" y="-423"/>
      <point x="118" y="-376"/>
      <point x="101" y="-315"/>
      <point x="101" y="-280" type="qcurve"/>
      <point x="101" y="-225"/>
      <point x="134" y="-134"/>
      <point x="187" y="-61"/>
      <point x="252" y="-3"/>
      <point x="284" y="20" type="qcurve"/>
      <point x="394" y="0" type="line"/>
      <point x="367" y="-17"/>
      <point x="306" y="-61"/>
      <point x="256" y="-117"/>
      <point x="222" y="-186"/>
      <point x="222" y="-227" type="qcurve"/>
      <point x="222" y="-265"/>
      <point x="259" y="-308"/>
      <point x="283" y="-308" type="qcurve"/>
      <point x="306" y="-308"/>
      <point x="343" y="-284"/>
      <point x="358" y="-270" type="qcurve"/>
    </contour>
  </outline>
</glyph>
<glyph name="tilde" format="2">
  <advance width="576"/>
  <unicode hex="02DC"/>
  <outline>
    <contour>
      <point x="366" y="1434" type="qcurve"/>
      <point x="392" y="1434"/>
      <point x="432" y="1413"/>
      <point x="465" y="1382"/>
      <point x="494" y="1346"/>
      <point x="522" y="1315"/>
      <point x="552" y="1294"/>
      <point x="570" y="1294" type="qcurve"/>
      <point x="608" y="1294"/>
      <point x="657" y="1374"/>
      <point x="665" y="1434" type="qcurve"/>
      <point x="757" y="1434" type="line"/>
      <point x="747" y="1365"/>
      <point x="709" y="1256"/>
      <point x="655" y="1181"/>
      <point x="587" y="1142"/>
      <point x="550" y="1142" type="qcurve"/>
      <point x="524" y="1142"/>
      <point x="485" y="1163"/>
      <point x="452" y="1194"/>
      <point x="425" y="1230"/>
      <point x="396" y="1261"/>
      <point x="365" y="1282"/>
      <point x="346" y="1282" type="qcurve"/>
      <point x="308" y="1282"/>
      <point x="260" y="1202"/>
      <point x="251" y="1142" type="qcurve"/>
      <point x="160" y="1142" type="line"/>
      <point x="169" y="1211"/>
      <point x="208" y="1320"/>
      <point x="262" y="1395"/>
      <point x="329" y="1434"/>
    </contour>
  </outline>
</glyph>
<glyph name="hungarumlaut" format="2">
  <advance width="576"/>
  <unicode hex="02DD"/>
  <outline>
    <contour>
      <point x="219" y="1180" type="line"/>
      <point x="347" y="1517" type="line"/>
      <point x="368" y="1524" type="line"/>
      <point x="446" y="1460" type="line"/>
      <point x="451" y="1434" type="line"/>
      <point x="272" y="1137" type="line"/>
    </contour>
    <contour>
      <point x="485" y="1180" type="line"/>
      <point x="613" y="1517" type="line"/>
      <point x="634" y="1524" type="line"/>
      <point x="712" y="1460" type="line"/>
      <point x="717" y="1434" type="line"/>
      <point x="537" y="1137" type="line"/>
    </contour>
  </outline>
</glyph>
<glyph name="rhotichook" format="2">
  <advance width="576"/>
  <unicode hex="02DE"/>
  <outline>
    <contour>
      <point x="173" y="791" type="line"/>
      <point x="437" y="1004" type="line"/>
      <point x="461" y="943" type="line"/>
      <point x="418" y="889"/>
      <point x="372" y="767"/>
      <point x="372" y="697" type="qcurve"/>
      <point x="372" y="679"/>
      <point x="380" y="644"/>
      <point x="397" y="616"/>
      <point x="422" y="599"/>
      <point x="438" y="599" type="qcurve"/>
      <point x="456" y="599"/>
      <point x="488" y="621"/>
      <point x="511" y="659"/>
      <point x="527" y="711"/>
      <point x="531" y="740" type="qcurve"/>
      <point x="620" y="740" type="line"/>
      <point x="620" y="687"/>
      <point x="585" y="595"/>
      <point x="529" y="527"/>
      <point x="457" y="487"/>
      <point x="420" y="487" type="qcurve"/>
      <point x="390" y="487"/>
      <point x="341" y="517"/>
      <point x="307" y="570"/>
      <point x="288" y="639"/>
      <point x="288" y="678" type="qcurve"/>
      <point x="288" y="704"/>
      <point x="294" y="750"/>
      <point x="298" y="761" type="qcurve"/>
      <point x="203" y="682" type="line"/>
    </contour>
  </outline>
</glyph>
<glyph name="toneextrahigh" format="2">
  <advance width="576"/>
  <unicode hex="02E5"/>
  <outline>
    <contour>
      <point x="350" y="0" type="line"/>
      <point x="519" y="1278" type="line"/>
      <point x="167" y="1278" type="line"/>
      <point x="188" y="1434" type="line"/>
      <point x="731" y="1434" type="line"/>
      <point x="542" y="0" type="line"/>
    </contour>
  </outline>
</glyph>
<glyph name="tonehigh" format="2">
  <advance width="576"/>
  <unicode hex="02E6"/>
  <outline>
    <contour>
      <point x="146" y="1119" type="line" name="hr00"/>
      <point x="498" y="1119" type="line" name="dv02"/>
      <point x="539" y="1434" type="line" name="at01"/>
      <point x="731" y="1434" type="line"/>
      <point x="542" y="0" type="line" name="ab01"/>
      <point x="350" y="0" type="line"/>
      <point x="477" y="964" type="line" name="dv01"/>
      <point x="125" y="964" type="line"/>
    </contour>
  </outline>
</glyph>
<glyph name="righttoleftmark" format="2">
  <advance width="576"/>
  <unicode hex="02EB"/>
  <outline>
    <contour>
      <point x="601" y="428" type="line" name="dv01"/>
      <point x="250" y="428" type="line"/>
      <point x="194" y="10" type="line" name="av01"/>
      <point x="32" y="10" type="line"/>
      <point x="162" y="992" type="line" name="at01"/>
      <point x="324" y="992" type="line"/>
      <point x="268" y="564" type="line"/>
      <point x="619" y="564" type="line" name="dv02"/>
    </contour>
  </outline>
</glyph>
<glyph name="uni02EC" format="2">
  <advance width="576"/>
  <unicode hex="02EC"/>
  <outline>
    <contour>
      <point x="508" y="-114" type="line"/>
      <point x="272" y="-490" type="line"/>
      <point x="37" y="-114" type="line"/>
      <point x="107" y="-36" type="line"/>
      <point x="272" y="-296" type="line"/>
      <point x="438" y="-36" type="line"/>
    </contour>
  </outline>
</glyph>
<glyph name="uni02EE" format="2">
  <advance width="576"/>
  <unicode hex="02EE"/>
  <outline>
    <contour>
      <point x="232" y="1464" type="line" name="hr00"/>
      <point x="343" y="1612" type="line" name="av01"/>
      <point x="363" y="1612" type="line"/>
      <point x="369" y="1605"/>
      <point x="393" y="1568"/>
      <point x="417" y="1505"/>
      <point x="436" y="1418"/>
      <point x="436" y="1361" type="qcurve" name="sh02"/>
      <point x="436" y="1302"/>
      <point x="410" y="1205"/>
      <point x="369" y="1127"/>
      <point x="317" y="1068"/>
      <point x="290" y="1045" type="qcurve" name="sh03"/>
      <point x="232" y="1122" type="line"/>
      <point x="242" y="1132"/>
      <point x="266" y="1163"/>
      <point x="286" y="1207"/>
      <point x="299" y="1261"/>
      <point x="299" y="1294" type="qcurve" name="sh01"/>
      <point x="299" y="1325"/>
      <point x="284" y="1373"/>
      <point x="261" y="1409"/>
      <point x="239" y="1432"/>
      <point x="232" y="1438" type="qcurve"/>
    </contour>
    <contour>
      <point x="526" y="1464" type="line"/>
      <point x="637" y="1612" type="line" name="av02"/>
      <point x="657" y="1612" type="line"/>
      <point x="663" y="1605"/>
      <point x="687" y="1568"/>
      <point x="711" y="1505"/>
      <point x="730" y="1418"/>
      <point x="730" y="1361" type="qcurve" name="sh04"/>
      <point x="730" y="1302"/>
      <point x="704" y="1205"/>
      <point x="663" y="1127"/>
      <point x="611" y="1068"/>
      <point x="584" y="1045" type="qcurve" name="sh05"/>
      <point x="526" y="1122" type="line"/>
      <point x="536" y="1132"/>
      <point x="560" y="1163"/>
      <point x="580" y="1207"/>
      <point x="593" y="1261"/>
      <point x="593" y="1294" type="qcurve" name="ah01"/>
      <point x="593" y="1325"/>
      <point x="578" y="1373"/>
      <point x="555" y="1409"/>
      <point x="533" y="1432"/>
      <point x="526" y="1438" type="qcurve"/>
    </contour>
  </outline>
</glyph>
<glyph name="gravecomb" format="2">
  <unicode hex="0300"/>
  <anchor x="-300" y="1500" name="_AccentDefault"/>
  <outline>
    <contour>
      <point x="-39" y="1516" type="line"/>
      <point x="-314" y="1804" type="line"/>
      <point x="-314" y="1848" type="line"/>
      <point x="-225" y="1966" type="line"/>
      <point x="-192" y="1966" type="line"/>
      <point x="19" y="1597" type="line"/>
    </contour>
  </outline>
</glyph>
<glyph name="acutecomb" format="2">
  <unicode hex="0301"/>
  <outline>
    <contour>
      <point x="-332" y="1597" type="line"/>
      <point x="-122" y="1966" type="line"/>
      <point x="-89" y="1966" type="line"/>
      <point x="0" y="1848" type="line"/>
      <point x="0" y="1804" type="line"/>
      <point x="-275" y="1516" type="line"/>
    </contour>
  </outline>
</glyph>
<glyph name="overscorecomb" format="2">
  <unicode hex="0305"/>
  <anchor x="-300" y="1500" name="_AccentDefault"/>
  <outline>
    <contour>
      <point x="-483" y="1809" type="line"/>
      <point x="194" y="1809" type="line"/>
      <point x="170" y="1627" type="line"/>
      <point x="-508" y="1627" type="line"/>
    </contour>
  </outline>
</glyph>
<glyph name="brevecomb" format="2">
  <unicode hex="0306"/>
  <anchor x="-300" y="1500" name="_AccentDefault"/>
  <outline>
    <contour>
      <point x="-227" y="1920" type="line"/>
      <point x="-228" y="1912"/>
      <point x="-228" y="1898"/>
      <point x="-228" y="1890" type="qcurve"/>
      <point x="-228" y="1836"/>
      <point x="-187" y="1765"/>
      <point x="-151" y="1765" type="qcurve"/>
      <point x="-131" y="1765"/>
      <point x="-93" y="1789"/>
      <point x="-61" y="1831"/>
      <point x="-38" y="1888"/>
      <point x="-35" y="1920" type="qcurve"/>
      <point x="125" y="1920" type="line"/>
      <point x="116" y="1851"/>
      <point x="60" y="1731"/>
      <point x="-20" y="1642"/>
      <point x="-120" y="1591"/>
      <point x="-173" y="1591" type="qcurve"/>
      <point x="-222" y="1591"/>
      <point x="-302" y="1632"/>
      <point x="-359" y="1705"/>
      <point x="-390" y="1804"/>
      <point x="-390" y="1863" type="qcurve"/>
      <point x="-390" y="1877"/>
      <point x="-388" y="1906"/>
      <point x="-386" y="1920" type="qcurve"/>
    </contour>
  </outline>
</glyph>
<glyph name="dotaccentcomb" format="2">
  <unicode hex="0307"/>
  <outline>
    <contour>
      <point x="-266" y="1718" type="qcurve"/>
      <point x="-266" y="1748"/>
      <point x="-249" y="1802"/>
      <point x="-220" y="1841"/>
      <point x="-179" y="1864"/>
      <point x="-157" y="1864" type="qcurve"/>
      <point x="-134" y="1864"/>
      <point x="-94" y="1841"/>
      <point x="-65" y="1802"/>
      <point x="-47" y="1748"/>
      <point x="-47" y="1718" type="qcurve"/>
      <point x="-47" y="1688"/>
      <point x="-65" y="1634"/>
      <point x="-94" y="1595"/>
      <point x="-134" y="1572"/>
      <point x="-157" y="1572" type="qcurve"/>
      <point x="-179" y="1572"/>
      <point x="-220" y="1595"/>
      <point x="-249" y="1634"/>
      <point x="-266" y="1688"/>
    </contour>
  </outline>
</glyph>
<glyph name="hookabovecomb" format="2">
  <unicode hex="0309"/>
  <outline>
    <contour>
      <point x="-239" y="1602" type="line"/>
      <point x="-232" y="1642"/>
      <point x="-193" y="1702"/>
      <point x="-152" y="1758"/>
      <point x="-121" y="1818"/>
      <point x="-121" y="1859" type="qcurve"/>
      <point x="-121" y="1885"/>
      <point x="-143" y="1927"/>
      <point x="-161" y="1927" type="qcurve"/>
      <point x="-171" y="1927"/>
      <point x="-192" y="1912"/>
      <point x="-210" y="1887"/>
      <point x="-224" y="1851"/>
      <point x="-227" y="1830" type="qcurve"/>
      <point x="-333" y="1830" type="line"/>
      <point x="-327" y="1875"/>
      <point x="-287" y="1953"/>
      <point x="-228" y="2011"/>
      <point x="-155" y="2045"/>
      <point x="-115" y="2045" type="qcurve"/>
      <point x="-79" y="2045"/>
      <point x="-21" y="2015"/>
      <point x="18" y="1966"/>
      <point x="39" y="1902"/>
      <point x="39" y="1868" type="qcurve"/>
      <point x="39" y="1828"/>
      <point x="15" y="1769"/>
      <point x="-22" y="1723"/>
      <point x="-65" y="1686"/>
      <point x="-104" y="1652"/>
      <point x="-131" y="1617"/>
      <point x="-134" y="1595" type="qcurve"/>
      <point x="-144" y="1516" type="line"/>
      <point x="-251" y="1516" type="line"/>
    </contour>
  </outline>
</glyph>
<glyph name="haceknosp" format="2">
  <unicode hex="030C"/>
  <anchor x="-300" y="1500" name="_AccentDefault"/>
  <outline>
    <contour>
      <point x="-375" y="1890" type="line" name="hr00"/>
      <point x="-281" y="1920" type="line" name="av01"/>
      <point x="-157" y="1717" type="line" name="iv01"/>
      <point x="21" y="1920" type="line" name="av02"/>
      <point x="107" y="1890" type="line"/>
      <point x="-100" y="1555" type="line" name="av03"/>
      <point x="-256" y="1555" type="line"/>
    </contour>
  </outline>
</glyph>
<glyph name="linevertnosp" format="2">
  <unicode hex="030D"/>
  <anchor x="-300" y="1500" name="_AccentDefault"/>
  <outline>
    <contour>
      <point x="-252" y="1516" type="line" name="dv01"/>
      <point x="-198" y="1920" type="line" name="dv02"/>
      <point x="-62" y="1920" type="line"/>
      <point x="-116" y="1516" type="line"/>
    </contour>
  </outline>
</glyph>
<glyph name="linevertdblnosp" format="2">
  <unicode hex="030E"/>
  <outline>
    <contour>
      <point x="-387" y="1516" type="line"/>
      <point x="-333" y="1920" type="line"/>
      <point x="-197" y="1920" type="line"/>
      <point x="-251" y="1516" type="line"/>
    </contour>
    <contour>
      <point x="-116" y="1516" type="line"/>
      <point x="-62" y="1920" type="line"/>
      <point x="74" y="1920" type="line"/>
      <point x="21" y="1516" type="line"/>
    </contour>
  </outline>
</glyph>
